%TF.GenerationSoftware,KiCad,Pcbnew,(5.1.12)-1*%
%TF.CreationDate,2022-07-01T18:07:02+09:00*%
%TF.ProjectId,WemosD1Shield,57656d6f-7344-4315-9368-69656c642e6b,rev?*%
%TF.SameCoordinates,Original*%
%TF.FileFunction,Legend,Top*%
%TF.FilePolarity,Positive*%
%FSLAX46Y46*%
G04 Gerber Fmt 4.6, Leading zero omitted, Abs format (unit mm)*
G04 Created by KiCad (PCBNEW (5.1.12)-1) date 2022-07-01 18:07:02*
%MOMM*%
%LPD*%
G01*
G04 APERTURE LIST*
%ADD10C,0.150000*%
%ADD11C,0.120000*%
G04 APERTURE END LIST*
D10*
X164909523Y-97988380D02*
X164338095Y-97988380D01*
X164623809Y-97988380D02*
X164623809Y-96988380D01*
X164528571Y-97131238D01*
X164433333Y-97226476D01*
X164338095Y-97274095D01*
X165242857Y-96988380D02*
X165909523Y-96988380D01*
X165480952Y-97988380D01*
X162369523Y-97988380D02*
X161798095Y-97988380D01*
X162083809Y-97988380D02*
X162083809Y-96988380D01*
X161988571Y-97131238D01*
X161893333Y-97226476D01*
X161798095Y-97274095D01*
X163226666Y-96988380D02*
X163036190Y-96988380D01*
X162940952Y-97036000D01*
X162893333Y-97083619D01*
X162798095Y-97226476D01*
X162750476Y-97416952D01*
X162750476Y-97797904D01*
X162798095Y-97893142D01*
X162845714Y-97940761D01*
X162940952Y-97988380D01*
X163131428Y-97988380D01*
X163226666Y-97940761D01*
X163274285Y-97893142D01*
X163321904Y-97797904D01*
X163321904Y-97559809D01*
X163274285Y-97464571D01*
X163226666Y-97416952D01*
X163131428Y-97369333D01*
X162940952Y-97369333D01*
X162845714Y-97416952D01*
X162798095Y-97464571D01*
X162750476Y-97559809D01*
X129595619Y-129349523D02*
X129595619Y-128778095D01*
X129595619Y-129063809D02*
X130595619Y-129063809D01*
X130452761Y-128968571D01*
X130357523Y-128873333D01*
X130309904Y-128778095D01*
X130595619Y-129682857D02*
X130595619Y-130301904D01*
X130214666Y-129968571D01*
X130214666Y-130111428D01*
X130167047Y-130206666D01*
X130119428Y-130254285D01*
X130024190Y-130301904D01*
X129786095Y-130301904D01*
X129690857Y-130254285D01*
X129643238Y-130206666D01*
X129595619Y-130111428D01*
X129595619Y-129825714D01*
X129643238Y-129730476D01*
X129690857Y-129682857D01*
X130595619Y-130746666D02*
X129595619Y-131080000D01*
X130595619Y-131413333D01*
X129690857Y-132318095D02*
X129643238Y-132270476D01*
X129595619Y-132127619D01*
X129595619Y-132032380D01*
X129643238Y-131889523D01*
X129738476Y-131794285D01*
X129833714Y-131746666D01*
X130024190Y-131699047D01*
X130167047Y-131699047D01*
X130357523Y-131746666D01*
X130452761Y-131794285D01*
X130548000Y-131889523D01*
X130595619Y-132032380D01*
X130595619Y-132127619D01*
X130548000Y-132270476D01*
X130500380Y-132318095D01*
X129690857Y-133318095D02*
X129643238Y-133270476D01*
X129595619Y-133127619D01*
X129595619Y-133032380D01*
X129643238Y-132889523D01*
X129738476Y-132794285D01*
X129833714Y-132746666D01*
X130024190Y-132699047D01*
X130167047Y-132699047D01*
X130357523Y-132746666D01*
X130452761Y-132794285D01*
X130548000Y-132889523D01*
X130595619Y-133032380D01*
X130595619Y-133127619D01*
X130548000Y-133270476D01*
X130500380Y-133318095D01*
X129595619Y-126809523D02*
X129595619Y-126238095D01*
X129595619Y-126523809D02*
X130595619Y-126523809D01*
X130452761Y-126428571D01*
X130357523Y-126333333D01*
X130309904Y-126238095D01*
X130500380Y-127190476D02*
X130548000Y-127238095D01*
X130595619Y-127333333D01*
X130595619Y-127571428D01*
X130548000Y-127666666D01*
X130500380Y-127714285D01*
X130405142Y-127761904D01*
X130309904Y-127761904D01*
X130167047Y-127714285D01*
X129595619Y-127142857D01*
X129595619Y-127761904D01*
X130548000Y-123698095D02*
X130595619Y-123602857D01*
X130595619Y-123460000D01*
X130548000Y-123317142D01*
X130452761Y-123221904D01*
X130357523Y-123174285D01*
X130167047Y-123126666D01*
X130024190Y-123126666D01*
X129833714Y-123174285D01*
X129738476Y-123221904D01*
X129643238Y-123317142D01*
X129595619Y-123460000D01*
X129595619Y-123555238D01*
X129643238Y-123698095D01*
X129690857Y-123745714D01*
X130024190Y-123745714D01*
X130024190Y-123555238D01*
X129595619Y-124174285D02*
X130595619Y-124174285D01*
X129595619Y-124745714D01*
X130595619Y-124745714D01*
X129595619Y-125221904D02*
X130595619Y-125221904D01*
X130595619Y-125460000D01*
X130548000Y-125602857D01*
X130452761Y-125698095D01*
X130357523Y-125745714D01*
X130167047Y-125793333D01*
X130024190Y-125793333D01*
X129833714Y-125745714D01*
X129738476Y-125698095D01*
X129643238Y-125602857D01*
X129595619Y-125460000D01*
X129595619Y-125221904D01*
X130548000Y-118618095D02*
X130595619Y-118522857D01*
X130595619Y-118380000D01*
X130548000Y-118237142D01*
X130452761Y-118141904D01*
X130357523Y-118094285D01*
X130167047Y-118046666D01*
X130024190Y-118046666D01*
X129833714Y-118094285D01*
X129738476Y-118141904D01*
X129643238Y-118237142D01*
X129595619Y-118380000D01*
X129595619Y-118475238D01*
X129643238Y-118618095D01*
X129690857Y-118665714D01*
X130024190Y-118665714D01*
X130024190Y-118475238D01*
X129595619Y-119094285D02*
X130595619Y-119094285D01*
X129595619Y-119665714D01*
X130595619Y-119665714D01*
X129595619Y-120141904D02*
X130595619Y-120141904D01*
X130595619Y-120380000D01*
X130548000Y-120522857D01*
X130452761Y-120618095D01*
X130357523Y-120665714D01*
X130167047Y-120713333D01*
X130024190Y-120713333D01*
X129833714Y-120665714D01*
X129738476Y-120618095D01*
X129643238Y-120522857D01*
X129595619Y-120380000D01*
X129595619Y-120141904D01*
X129595619Y-116649523D02*
X129595619Y-116078095D01*
X129595619Y-116363809D02*
X130595619Y-116363809D01*
X130452761Y-116268571D01*
X130357523Y-116173333D01*
X130309904Y-116078095D01*
X130262285Y-117506666D02*
X129595619Y-117506666D01*
X130643238Y-117268571D02*
X129928952Y-117030476D01*
X129928952Y-117649523D01*
X130595619Y-112966666D02*
X129595619Y-113300000D01*
X130595619Y-113633333D01*
X129690857Y-114538095D02*
X129643238Y-114490476D01*
X129595619Y-114347619D01*
X129595619Y-114252380D01*
X129643238Y-114109523D01*
X129738476Y-114014285D01*
X129833714Y-113966666D01*
X130024190Y-113919047D01*
X130167047Y-113919047D01*
X130357523Y-113966666D01*
X130452761Y-114014285D01*
X130548000Y-114109523D01*
X130595619Y-114252380D01*
X130595619Y-114347619D01*
X130548000Y-114490476D01*
X130500380Y-114538095D01*
X129690857Y-115538095D02*
X129643238Y-115490476D01*
X129595619Y-115347619D01*
X129595619Y-115252380D01*
X129643238Y-115109523D01*
X129738476Y-115014285D01*
X129833714Y-114966666D01*
X130024190Y-114919047D01*
X130167047Y-114919047D01*
X130357523Y-114966666D01*
X130452761Y-115014285D01*
X130548000Y-115109523D01*
X130595619Y-115252380D01*
X130595619Y-115347619D01*
X130548000Y-115490476D01*
X130500380Y-115538095D01*
X170053523Y-130214666D02*
X170529714Y-130214666D01*
X169958285Y-130500380D02*
X170291619Y-129500380D01*
X170624952Y-130500380D01*
X170958285Y-129833714D02*
X170958285Y-130500380D01*
X170958285Y-129928952D02*
X171005904Y-129881333D01*
X171101142Y-129833714D01*
X171244000Y-129833714D01*
X171339238Y-129881333D01*
X171386857Y-129976571D01*
X171386857Y-130500380D01*
X172291619Y-130500380D02*
X172291619Y-129976571D01*
X172244000Y-129881333D01*
X172148761Y-129833714D01*
X171958285Y-129833714D01*
X171863047Y-129881333D01*
X172291619Y-130452761D02*
X172196380Y-130500380D01*
X171958285Y-130500380D01*
X171863047Y-130452761D01*
X171815428Y-130357523D01*
X171815428Y-130262285D01*
X171863047Y-130167047D01*
X171958285Y-130119428D01*
X172196380Y-130119428D01*
X172291619Y-130071809D01*
X172910666Y-130500380D02*
X172815428Y-130452761D01*
X172767809Y-130357523D01*
X172767809Y-129500380D01*
X173434476Y-130500380D02*
X173339238Y-130452761D01*
X173291619Y-130405142D01*
X173244000Y-130309904D01*
X173244000Y-130024190D01*
X173291619Y-129928952D01*
X173339238Y-129881333D01*
X173434476Y-129833714D01*
X173577333Y-129833714D01*
X173672571Y-129881333D01*
X173720190Y-129928952D01*
X173767809Y-130024190D01*
X173767809Y-130309904D01*
X173720190Y-130405142D01*
X173672571Y-130452761D01*
X173577333Y-130500380D01*
X173434476Y-130500380D01*
X174624952Y-129833714D02*
X174624952Y-130643238D01*
X174577333Y-130738476D01*
X174529714Y-130786095D01*
X174434476Y-130833714D01*
X174291619Y-130833714D01*
X174196380Y-130786095D01*
X174624952Y-130452761D02*
X174529714Y-130500380D01*
X174339238Y-130500380D01*
X174244000Y-130452761D01*
X174196380Y-130405142D01*
X174148761Y-130309904D01*
X174148761Y-130024190D01*
X174196380Y-129928952D01*
X174244000Y-129881333D01*
X174339238Y-129833714D01*
X174529714Y-129833714D01*
X174624952Y-129881333D01*
X175101142Y-130500380D02*
X175101142Y-129500380D01*
X175577333Y-129833714D02*
X175577333Y-130500380D01*
X175577333Y-129928952D02*
X175624952Y-129881333D01*
X175720190Y-129833714D01*
X175863047Y-129833714D01*
X175958285Y-129881333D01*
X176005904Y-129976571D01*
X176005904Y-130500380D01*
X176482095Y-129833714D02*
X176482095Y-130833714D01*
X176482095Y-129881333D02*
X176577333Y-129833714D01*
X176767809Y-129833714D01*
X176863047Y-129881333D01*
X176910666Y-129928952D01*
X176958285Y-130024190D01*
X176958285Y-130309904D01*
X176910666Y-130405142D01*
X176863047Y-130452761D01*
X176767809Y-130500380D01*
X176577333Y-130500380D01*
X176482095Y-130452761D01*
X177815428Y-129833714D02*
X177815428Y-130500380D01*
X177386857Y-129833714D02*
X177386857Y-130357523D01*
X177434476Y-130452761D01*
X177529714Y-130500380D01*
X177672571Y-130500380D01*
X177767809Y-130452761D01*
X177815428Y-130405142D01*
X178148761Y-129833714D02*
X178529714Y-129833714D01*
X178291619Y-129500380D02*
X178291619Y-130357523D01*
X178339238Y-130452761D01*
X178434476Y-130500380D01*
X178529714Y-130500380D01*
X176990476Y-135596380D02*
X177609523Y-135596380D01*
X177276190Y-135977333D01*
X177419047Y-135977333D01*
X177514285Y-136024952D01*
X177561904Y-136072571D01*
X177609523Y-136167809D01*
X177609523Y-136405904D01*
X177561904Y-136501142D01*
X177514285Y-136548761D01*
X177419047Y-136596380D01*
X177133333Y-136596380D01*
X177038095Y-136548761D01*
X176990476Y-136501142D01*
X178085714Y-136596380D02*
X178276190Y-136596380D01*
X178371428Y-136548761D01*
X178419047Y-136501142D01*
X178514285Y-136358285D01*
X178561904Y-136167809D01*
X178561904Y-135786857D01*
X178514285Y-135691619D01*
X178466666Y-135644000D01*
X178371428Y-135596380D01*
X178180952Y-135596380D01*
X178085714Y-135644000D01*
X178038095Y-135691619D01*
X177990476Y-135786857D01*
X177990476Y-136024952D01*
X178038095Y-136120190D01*
X178085714Y-136167809D01*
X178180952Y-136215428D01*
X178371428Y-136215428D01*
X178466666Y-136167809D01*
X178514285Y-136120190D01*
X178561904Y-136024952D01*
X174450476Y-135596380D02*
X175069523Y-135596380D01*
X174736190Y-135977333D01*
X174879047Y-135977333D01*
X174974285Y-136024952D01*
X175021904Y-136072571D01*
X175069523Y-136167809D01*
X175069523Y-136405904D01*
X175021904Y-136501142D01*
X174974285Y-136548761D01*
X174879047Y-136596380D01*
X174593333Y-136596380D01*
X174498095Y-136548761D01*
X174450476Y-136501142D01*
X175926666Y-135596380D02*
X175736190Y-135596380D01*
X175640952Y-135644000D01*
X175593333Y-135691619D01*
X175498095Y-135834476D01*
X175450476Y-136024952D01*
X175450476Y-136405904D01*
X175498095Y-136501142D01*
X175545714Y-136548761D01*
X175640952Y-136596380D01*
X175831428Y-136596380D01*
X175926666Y-136548761D01*
X175974285Y-136501142D01*
X176021904Y-136405904D01*
X176021904Y-136167809D01*
X175974285Y-136072571D01*
X175926666Y-136024952D01*
X175831428Y-135977333D01*
X175640952Y-135977333D01*
X175545714Y-136024952D01*
X175498095Y-136072571D01*
X175450476Y-136167809D01*
X171910476Y-135596380D02*
X172529523Y-135596380D01*
X172196190Y-135977333D01*
X172339047Y-135977333D01*
X172434285Y-136024952D01*
X172481904Y-136072571D01*
X172529523Y-136167809D01*
X172529523Y-136405904D01*
X172481904Y-136501142D01*
X172434285Y-136548761D01*
X172339047Y-136596380D01*
X172053333Y-136596380D01*
X171958095Y-136548761D01*
X171910476Y-136501142D01*
X173386666Y-135929714D02*
X173386666Y-136596380D01*
X173148571Y-135548761D02*
X172910476Y-136263047D01*
X173529523Y-136263047D01*
X169370476Y-135596380D02*
X169989523Y-135596380D01*
X169656190Y-135977333D01*
X169799047Y-135977333D01*
X169894285Y-136024952D01*
X169941904Y-136072571D01*
X169989523Y-136167809D01*
X169989523Y-136405904D01*
X169941904Y-136501142D01*
X169894285Y-136548761D01*
X169799047Y-136596380D01*
X169513333Y-136596380D01*
X169418095Y-136548761D01*
X169370476Y-136501142D01*
X170894285Y-135596380D02*
X170418095Y-135596380D01*
X170370476Y-136072571D01*
X170418095Y-136024952D01*
X170513333Y-135977333D01*
X170751428Y-135977333D01*
X170846666Y-136024952D01*
X170894285Y-136072571D01*
X170941904Y-136167809D01*
X170941904Y-136405904D01*
X170894285Y-136501142D01*
X170846666Y-136548761D01*
X170751428Y-136596380D01*
X170513333Y-136596380D01*
X170418095Y-136548761D01*
X170370476Y-136501142D01*
X167116190Y-135596380D02*
X167211428Y-135596380D01*
X167306666Y-135644000D01*
X167354285Y-135691619D01*
X167401904Y-135786857D01*
X167449523Y-135977333D01*
X167449523Y-136215428D01*
X167401904Y-136405904D01*
X167354285Y-136501142D01*
X167306666Y-136548761D01*
X167211428Y-136596380D01*
X167116190Y-136596380D01*
X167020952Y-136548761D01*
X166973333Y-136501142D01*
X166925714Y-136405904D01*
X166878095Y-136215428D01*
X166878095Y-135977333D01*
X166925714Y-135786857D01*
X166973333Y-135691619D01*
X167020952Y-135644000D01*
X167116190Y-135596380D01*
X168306666Y-135929714D02*
X168306666Y-136596380D01*
X168068571Y-135548761D02*
X167830476Y-136263047D01*
X168449523Y-136263047D01*
X164576190Y-135596380D02*
X164671428Y-135596380D01*
X164766666Y-135644000D01*
X164814285Y-135691619D01*
X164861904Y-135786857D01*
X164909523Y-135977333D01*
X164909523Y-136215428D01*
X164861904Y-136405904D01*
X164814285Y-136501142D01*
X164766666Y-136548761D01*
X164671428Y-136596380D01*
X164576190Y-136596380D01*
X164480952Y-136548761D01*
X164433333Y-136501142D01*
X164385714Y-136405904D01*
X164338095Y-136215428D01*
X164338095Y-135977333D01*
X164385714Y-135786857D01*
X164433333Y-135691619D01*
X164480952Y-135644000D01*
X164576190Y-135596380D01*
X165290476Y-135691619D02*
X165338095Y-135644000D01*
X165433333Y-135596380D01*
X165671428Y-135596380D01*
X165766666Y-135644000D01*
X165814285Y-135691619D01*
X165861904Y-135786857D01*
X165861904Y-135882095D01*
X165814285Y-136024952D01*
X165242857Y-136596380D01*
X165861904Y-136596380D01*
X146772380Y-136596380D02*
X146439047Y-136120190D01*
X146200952Y-136596380D02*
X146200952Y-135596380D01*
X146581904Y-135596380D01*
X146677142Y-135644000D01*
X146724761Y-135691619D01*
X146772380Y-135786857D01*
X146772380Y-135929714D01*
X146724761Y-136024952D01*
X146677142Y-136072571D01*
X146581904Y-136120190D01*
X146200952Y-136120190D01*
X147153333Y-136548761D02*
X147296190Y-136596380D01*
X147534285Y-136596380D01*
X147629523Y-136548761D01*
X147677142Y-136501142D01*
X147724761Y-136405904D01*
X147724761Y-136310666D01*
X147677142Y-136215428D01*
X147629523Y-136167809D01*
X147534285Y-136120190D01*
X147343809Y-136072571D01*
X147248571Y-136024952D01*
X147200952Y-135977333D01*
X147153333Y-135882095D01*
X147153333Y-135786857D01*
X147200952Y-135691619D01*
X147248571Y-135644000D01*
X147343809Y-135596380D01*
X147581904Y-135596380D01*
X147724761Y-135644000D01*
X148010476Y-135596380D02*
X148581904Y-135596380D01*
X148296190Y-136596380D02*
X148296190Y-135596380D01*
X149129904Y-135596380D02*
X149748952Y-135596380D01*
X149415619Y-135977333D01*
X149558476Y-135977333D01*
X149653714Y-136024952D01*
X149701333Y-136072571D01*
X149748952Y-136167809D01*
X149748952Y-136405904D01*
X149701333Y-136501142D01*
X149653714Y-136548761D01*
X149558476Y-136596380D01*
X149272761Y-136596380D01*
X149177523Y-136548761D01*
X149129904Y-136501142D01*
X150034666Y-135596380D02*
X150368000Y-136596380D01*
X150701333Y-135596380D01*
X150939428Y-135596380D02*
X151558476Y-135596380D01*
X151225142Y-135977333D01*
X151368000Y-135977333D01*
X151463238Y-136024952D01*
X151510857Y-136072571D01*
X151558476Y-136167809D01*
X151558476Y-136405904D01*
X151510857Y-136501142D01*
X151463238Y-136548761D01*
X151368000Y-136596380D01*
X151082285Y-136596380D01*
X150987047Y-136548761D01*
X150939428Y-136501142D01*
X152717523Y-135596380D02*
X152241333Y-135596380D01*
X152193714Y-136072571D01*
X152241333Y-136024952D01*
X152336571Y-135977333D01*
X152574666Y-135977333D01*
X152669904Y-136024952D01*
X152717523Y-136072571D01*
X152765142Y-136167809D01*
X152765142Y-136405904D01*
X152717523Y-136501142D01*
X152669904Y-136548761D01*
X152574666Y-136596380D01*
X152336571Y-136596380D01*
X152241333Y-136548761D01*
X152193714Y-136501142D01*
X153050857Y-135596380D02*
X153384190Y-136596380D01*
X153717523Y-135596380D01*
X158924761Y-135596380D02*
X159258095Y-136596380D01*
X159591428Y-135596380D01*
X159924761Y-136596380D02*
X159924761Y-135596380D01*
X160400952Y-136596380D02*
X160400952Y-135596380D01*
X160972380Y-136596380D01*
X160972380Y-135596380D01*
X155702095Y-135644000D02*
X155606857Y-135596380D01*
X155464000Y-135596380D01*
X155321142Y-135644000D01*
X155225904Y-135739238D01*
X155178285Y-135834476D01*
X155130666Y-136024952D01*
X155130666Y-136167809D01*
X155178285Y-136358285D01*
X155225904Y-136453523D01*
X155321142Y-136548761D01*
X155464000Y-136596380D01*
X155559238Y-136596380D01*
X155702095Y-136548761D01*
X155749714Y-136501142D01*
X155749714Y-136167809D01*
X155559238Y-136167809D01*
X156178285Y-136596380D02*
X156178285Y-135596380D01*
X156749714Y-136596380D01*
X156749714Y-135596380D01*
X157225904Y-136596380D02*
X157225904Y-135596380D01*
X157464000Y-135596380D01*
X157606857Y-135644000D01*
X157702095Y-135739238D01*
X157749714Y-135834476D01*
X157797333Y-136024952D01*
X157797333Y-136167809D01*
X157749714Y-136358285D01*
X157702095Y-136453523D01*
X157606857Y-136548761D01*
X157464000Y-136596380D01*
X157225904Y-136596380D01*
X144589523Y-135596380D02*
X144113333Y-135596380D01*
X144065714Y-136072571D01*
X144113333Y-136024952D01*
X144208571Y-135977333D01*
X144446666Y-135977333D01*
X144541904Y-136024952D01*
X144589523Y-136072571D01*
X144637142Y-136167809D01*
X144637142Y-136405904D01*
X144589523Y-136501142D01*
X144541904Y-136548761D01*
X144446666Y-136596380D01*
X144208571Y-136596380D01*
X144113333Y-136548761D01*
X144065714Y-136501142D01*
X144922857Y-135596380D02*
X145256190Y-136596380D01*
X145589523Y-135596380D01*
X130381523Y-85240761D02*
X130524380Y-85288380D01*
X130762476Y-85288380D01*
X130857714Y-85240761D01*
X130905333Y-85193142D01*
X130952952Y-85097904D01*
X130952952Y-85002666D01*
X130905333Y-84907428D01*
X130857714Y-84859809D01*
X130762476Y-84812190D01*
X130572000Y-84764571D01*
X130476761Y-84716952D01*
X130429142Y-84669333D01*
X130381523Y-84574095D01*
X130381523Y-84478857D01*
X130429142Y-84383619D01*
X130476761Y-84336000D01*
X130572000Y-84288380D01*
X130810095Y-84288380D01*
X130952952Y-84336000D01*
X131952952Y-85193142D02*
X131905333Y-85240761D01*
X131762476Y-85288380D01*
X131667238Y-85288380D01*
X131524380Y-85240761D01*
X131429142Y-85145523D01*
X131381523Y-85050285D01*
X131333904Y-84859809D01*
X131333904Y-84716952D01*
X131381523Y-84526476D01*
X131429142Y-84431238D01*
X131524380Y-84336000D01*
X131667238Y-84288380D01*
X131762476Y-84288380D01*
X131905333Y-84336000D01*
X131952952Y-84383619D01*
X132857714Y-85288380D02*
X132381523Y-85288380D01*
X132381523Y-84288380D01*
X143660761Y-93233714D02*
X143708380Y-93090857D01*
X143708380Y-92852761D01*
X143660761Y-92757523D01*
X143613142Y-92709904D01*
X143517904Y-92662285D01*
X143422666Y-92662285D01*
X143327428Y-92709904D01*
X143279809Y-92757523D01*
X143232190Y-92852761D01*
X143184571Y-93043238D01*
X143136952Y-93138476D01*
X143089333Y-93186095D01*
X142994095Y-93233714D01*
X142898857Y-93233714D01*
X142803619Y-93186095D01*
X142756000Y-93138476D01*
X142708380Y-93043238D01*
X142708380Y-92805142D01*
X142756000Y-92662285D01*
X143613142Y-91662285D02*
X143660761Y-91709904D01*
X143708380Y-91852761D01*
X143708380Y-91948000D01*
X143660761Y-92090857D01*
X143565523Y-92186095D01*
X143470285Y-92233714D01*
X143279809Y-92281333D01*
X143136952Y-92281333D01*
X142946476Y-92233714D01*
X142851238Y-92186095D01*
X142756000Y-92090857D01*
X142708380Y-91948000D01*
X142708380Y-91852761D01*
X142756000Y-91709904D01*
X142803619Y-91662285D01*
X143708380Y-91233714D02*
X142708380Y-91233714D01*
X143708380Y-90662285D02*
X143136952Y-91090857D01*
X142708380Y-90662285D02*
X143279809Y-91233714D01*
X146248380Y-94027428D02*
X145248380Y-94027428D01*
X145962666Y-93694095D01*
X145248380Y-93360761D01*
X146248380Y-93360761D01*
X146248380Y-92884571D02*
X145248380Y-92884571D01*
X146200761Y-92456000D02*
X146248380Y-92313142D01*
X146248380Y-92075047D01*
X146200761Y-91979809D01*
X146153142Y-91932190D01*
X146057904Y-91884571D01*
X145962666Y-91884571D01*
X145867428Y-91932190D01*
X145819809Y-91979809D01*
X145772190Y-92075047D01*
X145724571Y-92265523D01*
X145676952Y-92360761D01*
X145629333Y-92408380D01*
X145534095Y-92456000D01*
X145438857Y-92456000D01*
X145343619Y-92408380D01*
X145296000Y-92360761D01*
X145248380Y-92265523D01*
X145248380Y-92027428D01*
X145296000Y-91884571D01*
X145248380Y-91265523D02*
X145248380Y-91075047D01*
X145296000Y-90979809D01*
X145391238Y-90884571D01*
X145581714Y-90836952D01*
X145915047Y-90836952D01*
X146105523Y-90884571D01*
X146200761Y-90979809D01*
X146248380Y-91075047D01*
X146248380Y-91265523D01*
X146200761Y-91360761D01*
X146105523Y-91456000D01*
X145915047Y-91503619D01*
X145581714Y-91503619D01*
X145391238Y-91456000D01*
X145296000Y-91360761D01*
X145248380Y-91265523D01*
X148788380Y-94027428D02*
X147788380Y-94027428D01*
X148502666Y-93694095D01*
X147788380Y-93360761D01*
X148788380Y-93360761D01*
X147788380Y-92694095D02*
X147788380Y-92503619D01*
X147836000Y-92408380D01*
X147931238Y-92313142D01*
X148121714Y-92265523D01*
X148455047Y-92265523D01*
X148645523Y-92313142D01*
X148740761Y-92408380D01*
X148788380Y-92503619D01*
X148788380Y-92694095D01*
X148740761Y-92789333D01*
X148645523Y-92884571D01*
X148455047Y-92932190D01*
X148121714Y-92932190D01*
X147931238Y-92884571D01*
X147836000Y-92789333D01*
X147788380Y-92694095D01*
X148740761Y-91884571D02*
X148788380Y-91741714D01*
X148788380Y-91503619D01*
X148740761Y-91408380D01*
X148693142Y-91360761D01*
X148597904Y-91313142D01*
X148502666Y-91313142D01*
X148407428Y-91360761D01*
X148359809Y-91408380D01*
X148312190Y-91503619D01*
X148264571Y-91694095D01*
X148216952Y-91789333D01*
X148169333Y-91836952D01*
X148074095Y-91884571D01*
X147978857Y-91884571D01*
X147883619Y-91836952D01*
X147836000Y-91789333D01*
X147788380Y-91694095D01*
X147788380Y-91456000D01*
X147836000Y-91313142D01*
X148788380Y-90884571D02*
X147788380Y-90884571D01*
X151280761Y-92201904D02*
X151328380Y-92059047D01*
X151328380Y-91820952D01*
X151280761Y-91725714D01*
X151233142Y-91678095D01*
X151137904Y-91630476D01*
X151042666Y-91630476D01*
X150947428Y-91678095D01*
X150899809Y-91725714D01*
X150852190Y-91820952D01*
X150804571Y-92011428D01*
X150756952Y-92106666D01*
X150709333Y-92154285D01*
X150614095Y-92201904D01*
X150518857Y-92201904D01*
X150423619Y-92154285D01*
X150376000Y-92106666D01*
X150328380Y-92011428D01*
X150328380Y-91773333D01*
X150376000Y-91630476D01*
X151280761Y-91249523D02*
X151328380Y-91106666D01*
X151328380Y-90868571D01*
X151280761Y-90773333D01*
X151233142Y-90725714D01*
X151137904Y-90678095D01*
X151042666Y-90678095D01*
X150947428Y-90725714D01*
X150899809Y-90773333D01*
X150852190Y-90868571D01*
X150804571Y-91059047D01*
X150756952Y-91154285D01*
X150709333Y-91201904D01*
X150614095Y-91249523D01*
X150518857Y-91249523D01*
X150423619Y-91201904D01*
X150376000Y-91154285D01*
X150328380Y-91059047D01*
X150328380Y-90820952D01*
X150376000Y-90678095D01*
X147574095Y-84383619D02*
X147621714Y-84336000D01*
X147716952Y-84288380D01*
X147955047Y-84288380D01*
X148050285Y-84336000D01*
X148097904Y-84383619D01*
X148145523Y-84478857D01*
X148145523Y-84574095D01*
X148097904Y-84716952D01*
X147526476Y-85288380D01*
X148145523Y-85288380D01*
X148478857Y-84288380D02*
X149097904Y-84288380D01*
X148764571Y-84669333D01*
X148907428Y-84669333D01*
X149002666Y-84716952D01*
X149050285Y-84764571D01*
X149097904Y-84859809D01*
X149097904Y-85097904D01*
X149050285Y-85193142D01*
X149002666Y-85240761D01*
X148907428Y-85288380D01*
X148621714Y-85288380D01*
X148526476Y-85240761D01*
X148478857Y-85193142D01*
X150352190Y-84288380D02*
X150447428Y-84288380D01*
X150542666Y-84336000D01*
X150590285Y-84383619D01*
X150637904Y-84478857D01*
X150685523Y-84669333D01*
X150685523Y-84907428D01*
X150637904Y-85097904D01*
X150590285Y-85193142D01*
X150542666Y-85240761D01*
X150447428Y-85288380D01*
X150352190Y-85288380D01*
X150256952Y-85240761D01*
X150209333Y-85193142D01*
X150161714Y-85097904D01*
X150114095Y-84907428D01*
X150114095Y-84669333D01*
X150161714Y-84478857D01*
X150209333Y-84383619D01*
X150256952Y-84336000D01*
X150352190Y-84288380D01*
X151590285Y-84288380D02*
X151114095Y-84288380D01*
X151066476Y-84764571D01*
X151114095Y-84716952D01*
X151209333Y-84669333D01*
X151447428Y-84669333D01*
X151542666Y-84716952D01*
X151590285Y-84764571D01*
X151637904Y-84859809D01*
X151637904Y-85097904D01*
X151590285Y-85193142D01*
X151542666Y-85240761D01*
X151447428Y-85288380D01*
X151209333Y-85288380D01*
X151114095Y-85240761D01*
X151066476Y-85193142D01*
X143065523Y-85288380D02*
X142494095Y-85288380D01*
X142779809Y-85288380D02*
X142779809Y-84288380D01*
X142684571Y-84431238D01*
X142589333Y-84526476D01*
X142494095Y-84574095D01*
X143636952Y-84716952D02*
X143541714Y-84669333D01*
X143494095Y-84621714D01*
X143446476Y-84526476D01*
X143446476Y-84478857D01*
X143494095Y-84383619D01*
X143541714Y-84336000D01*
X143636952Y-84288380D01*
X143827428Y-84288380D01*
X143922666Y-84336000D01*
X143970285Y-84383619D01*
X144017904Y-84478857D01*
X144017904Y-84526476D01*
X143970285Y-84621714D01*
X143922666Y-84669333D01*
X143827428Y-84716952D01*
X143636952Y-84716952D01*
X143541714Y-84764571D01*
X143494095Y-84812190D01*
X143446476Y-84907428D01*
X143446476Y-85097904D01*
X143494095Y-85193142D01*
X143541714Y-85240761D01*
X143636952Y-85288380D01*
X143827428Y-85288380D01*
X143922666Y-85240761D01*
X143970285Y-85193142D01*
X144017904Y-85097904D01*
X144017904Y-84907428D01*
X143970285Y-84812190D01*
X143922666Y-84764571D01*
X143827428Y-84716952D01*
X145605523Y-85288380D02*
X145034095Y-85288380D01*
X145319809Y-85288380D02*
X145319809Y-84288380D01*
X145224571Y-84431238D01*
X145129333Y-84526476D01*
X145034095Y-84574095D01*
X146081714Y-85288380D02*
X146272190Y-85288380D01*
X146367428Y-85240761D01*
X146415047Y-85193142D01*
X146510285Y-85050285D01*
X146557904Y-84859809D01*
X146557904Y-84478857D01*
X146510285Y-84383619D01*
X146462666Y-84336000D01*
X146367428Y-84288380D01*
X146176952Y-84288380D01*
X146081714Y-84336000D01*
X146034095Y-84383619D01*
X145986476Y-84478857D01*
X145986476Y-84716952D01*
X146034095Y-84812190D01*
X146081714Y-84859809D01*
X146176952Y-84907428D01*
X146367428Y-84907428D01*
X146462666Y-84859809D01*
X146510285Y-84812190D01*
X146557904Y-84716952D01*
X139954095Y-84336000D02*
X139858857Y-84288380D01*
X139716000Y-84288380D01*
X139573142Y-84336000D01*
X139477904Y-84431238D01*
X139430285Y-84526476D01*
X139382666Y-84716952D01*
X139382666Y-84859809D01*
X139430285Y-85050285D01*
X139477904Y-85145523D01*
X139573142Y-85240761D01*
X139716000Y-85288380D01*
X139811238Y-85288380D01*
X139954095Y-85240761D01*
X140001714Y-85193142D01*
X140001714Y-84859809D01*
X139811238Y-84859809D01*
X140430285Y-85288380D02*
X140430285Y-84288380D01*
X141001714Y-85288380D01*
X141001714Y-84288380D01*
X141477904Y-85288380D02*
X141477904Y-84288380D01*
X141716000Y-84288380D01*
X141858857Y-84336000D01*
X141954095Y-84431238D01*
X142001714Y-84526476D01*
X142049333Y-84716952D01*
X142049333Y-84859809D01*
X142001714Y-85050285D01*
X141954095Y-85145523D01*
X141858857Y-85240761D01*
X141716000Y-85288380D01*
X141477904Y-85288380D01*
X169418095Y-84383619D02*
X169465714Y-84336000D01*
X169560952Y-84288380D01*
X169799047Y-84288380D01*
X169894285Y-84336000D01*
X169941904Y-84383619D01*
X169989523Y-84478857D01*
X169989523Y-84574095D01*
X169941904Y-84716952D01*
X169370476Y-85288380D01*
X169989523Y-85288380D01*
X170894285Y-84288380D02*
X170418095Y-84288380D01*
X170370476Y-84764571D01*
X170418095Y-84716952D01*
X170513333Y-84669333D01*
X170751428Y-84669333D01*
X170846666Y-84716952D01*
X170894285Y-84764571D01*
X170941904Y-84859809D01*
X170941904Y-85097904D01*
X170894285Y-85193142D01*
X170846666Y-85240761D01*
X170751428Y-85288380D01*
X170513333Y-85288380D01*
X170418095Y-85240761D01*
X170370476Y-85193142D01*
X164909523Y-85288380D02*
X164338095Y-85288380D01*
X164623809Y-85288380D02*
X164623809Y-84288380D01*
X164528571Y-84431238D01*
X164433333Y-84526476D01*
X164338095Y-84574095D01*
X165766666Y-84288380D02*
X165576190Y-84288380D01*
X165480952Y-84336000D01*
X165433333Y-84383619D01*
X165338095Y-84526476D01*
X165290476Y-84716952D01*
X165290476Y-85097904D01*
X165338095Y-85193142D01*
X165385714Y-85240761D01*
X165480952Y-85288380D01*
X165671428Y-85288380D01*
X165766666Y-85240761D01*
X165814285Y-85193142D01*
X165861904Y-85097904D01*
X165861904Y-84859809D01*
X165814285Y-84764571D01*
X165766666Y-84716952D01*
X165671428Y-84669333D01*
X165480952Y-84669333D01*
X165385714Y-84716952D01*
X165338095Y-84764571D01*
X165290476Y-84859809D01*
X161798095Y-84383619D02*
X161845714Y-84336000D01*
X161940952Y-84288380D01*
X162179047Y-84288380D01*
X162274285Y-84336000D01*
X162321904Y-84383619D01*
X162369523Y-84478857D01*
X162369523Y-84574095D01*
X162321904Y-84716952D01*
X161750476Y-85288380D01*
X162369523Y-85288380D01*
X162702857Y-84288380D02*
X163369523Y-84288380D01*
X162940952Y-85288380D01*
X167449523Y-85288380D02*
X166878095Y-85288380D01*
X167163809Y-85288380D02*
X167163809Y-84288380D01*
X167068571Y-84431238D01*
X166973333Y-84526476D01*
X166878095Y-84574095D01*
X167782857Y-84288380D02*
X168449523Y-84288380D01*
X168020952Y-85288380D01*
X171958095Y-84383619D02*
X172005714Y-84336000D01*
X172100952Y-84288380D01*
X172339047Y-84288380D01*
X172434285Y-84336000D01*
X172481904Y-84383619D01*
X172529523Y-84478857D01*
X172529523Y-84574095D01*
X172481904Y-84716952D01*
X171910476Y-85288380D01*
X172529523Y-85288380D01*
X173386666Y-84288380D02*
X173196190Y-84288380D01*
X173100952Y-84336000D01*
X173053333Y-84383619D01*
X172958095Y-84526476D01*
X172910476Y-84716952D01*
X172910476Y-85097904D01*
X172958095Y-85193142D01*
X173005714Y-85240761D01*
X173100952Y-85288380D01*
X173291428Y-85288380D01*
X173386666Y-85240761D01*
X173434285Y-85193142D01*
X173481904Y-85097904D01*
X173481904Y-84859809D01*
X173434285Y-84764571D01*
X173386666Y-84716952D01*
X173291428Y-84669333D01*
X173100952Y-84669333D01*
X173005714Y-84716952D01*
X172958095Y-84764571D01*
X172910476Y-84859809D01*
X159829523Y-85288380D02*
X159258095Y-85288380D01*
X159543809Y-85288380D02*
X159543809Y-84288380D01*
X159448571Y-84431238D01*
X159353333Y-84526476D01*
X159258095Y-84574095D01*
X160686666Y-84621714D02*
X160686666Y-85288380D01*
X160448571Y-84240761D02*
X160210476Y-84955047D01*
X160829523Y-84955047D01*
X153225523Y-85288380D02*
X152654095Y-85288380D01*
X152939809Y-85288380D02*
X152939809Y-84288380D01*
X152844571Y-84431238D01*
X152749333Y-84526476D01*
X152654095Y-84574095D01*
X153558857Y-84288380D02*
X154177904Y-84288380D01*
X153844571Y-84669333D01*
X153987428Y-84669333D01*
X154082666Y-84716952D01*
X154130285Y-84764571D01*
X154177904Y-84859809D01*
X154177904Y-85097904D01*
X154130285Y-85193142D01*
X154082666Y-85240761D01*
X153987428Y-85288380D01*
X153701714Y-85288380D01*
X153606476Y-85240761D01*
X153558857Y-85193142D01*
X155765523Y-85288380D02*
X155194095Y-85288380D01*
X155479809Y-85288380D02*
X155479809Y-84288380D01*
X155384571Y-84431238D01*
X155289333Y-84526476D01*
X155194095Y-84574095D01*
X156146476Y-84383619D02*
X156194095Y-84336000D01*
X156289333Y-84288380D01*
X156527428Y-84288380D01*
X156622666Y-84336000D01*
X156670285Y-84383619D01*
X156717904Y-84478857D01*
X156717904Y-84574095D01*
X156670285Y-84716952D01*
X156098857Y-85288380D01*
X156717904Y-85288380D01*
X174021904Y-84288380D02*
X174593333Y-84288380D01*
X174307619Y-85288380D02*
X174307619Y-84288380D01*
X174831428Y-84288380D02*
X175498095Y-85288380D01*
X175498095Y-84288380D02*
X174831428Y-85288380D01*
X176069523Y-84288380D02*
X176164761Y-84288380D01*
X176260000Y-84336000D01*
X176307619Y-84383619D01*
X176355238Y-84478857D01*
X176402857Y-84669333D01*
X176402857Y-84907428D01*
X176355238Y-85097904D01*
X176307619Y-85193142D01*
X176260000Y-85240761D01*
X176164761Y-85288380D01*
X176069523Y-85288380D01*
X175974285Y-85240761D01*
X175926666Y-85193142D01*
X175879047Y-85097904D01*
X175831428Y-84907428D01*
X175831428Y-84669333D01*
X175879047Y-84478857D01*
X175926666Y-84383619D01*
X175974285Y-84336000D01*
X176069523Y-84288380D01*
X177157142Y-85288380D02*
X176823809Y-84812190D01*
X176585714Y-85288380D02*
X176585714Y-84288380D01*
X176966666Y-84288380D01*
X177061904Y-84336000D01*
X177109523Y-84383619D01*
X177157142Y-84478857D01*
X177157142Y-84621714D01*
X177109523Y-84716952D01*
X177061904Y-84764571D01*
X176966666Y-84812190D01*
X176585714Y-84812190D01*
X177490476Y-84288380D02*
X178157142Y-85288380D01*
X178157142Y-84288380D02*
X177490476Y-85288380D01*
X178728571Y-84288380D02*
X178823809Y-84288380D01*
X178919047Y-84336000D01*
X178966666Y-84383619D01*
X179014285Y-84478857D01*
X179061904Y-84669333D01*
X179061904Y-84907428D01*
X179014285Y-85097904D01*
X178966666Y-85193142D01*
X178919047Y-85240761D01*
X178823809Y-85288380D01*
X178728571Y-85288380D01*
X178633333Y-85240761D01*
X178585714Y-85193142D01*
X178538095Y-85097904D01*
X178490476Y-84907428D01*
X178490476Y-84669333D01*
X178538095Y-84478857D01*
X178585714Y-84383619D01*
X178633333Y-84336000D01*
X178728571Y-84288380D01*
X137120380Y-85288380D02*
X136787047Y-84812190D01*
X136548952Y-85288380D02*
X136548952Y-84288380D01*
X136929904Y-84288380D01*
X137025142Y-84336000D01*
X137072761Y-84383619D01*
X137120380Y-84478857D01*
X137120380Y-84621714D01*
X137072761Y-84716952D01*
X137025142Y-84764571D01*
X136929904Y-84812190D01*
X136548952Y-84812190D01*
X137501333Y-85240761D02*
X137644190Y-85288380D01*
X137882285Y-85288380D01*
X137977523Y-85240761D01*
X138025142Y-85193142D01*
X138072761Y-85097904D01*
X138072761Y-85002666D01*
X138025142Y-84907428D01*
X137977523Y-84859809D01*
X137882285Y-84812190D01*
X137691809Y-84764571D01*
X137596571Y-84716952D01*
X137548952Y-84669333D01*
X137501333Y-84574095D01*
X137501333Y-84478857D01*
X137548952Y-84383619D01*
X137596571Y-84336000D01*
X137691809Y-84288380D01*
X137929904Y-84288380D01*
X138072761Y-84336000D01*
X138358476Y-84288380D02*
X138929904Y-84288380D01*
X138644190Y-85288380D02*
X138644190Y-84288380D01*
X133405714Y-85240761D02*
X133548571Y-85288380D01*
X133786666Y-85288380D01*
X133881904Y-85240761D01*
X133929523Y-85193142D01*
X133977142Y-85097904D01*
X133977142Y-85002666D01*
X133929523Y-84907428D01*
X133881904Y-84859809D01*
X133786666Y-84812190D01*
X133596190Y-84764571D01*
X133500952Y-84716952D01*
X133453333Y-84669333D01*
X133405714Y-84574095D01*
X133405714Y-84478857D01*
X133453333Y-84383619D01*
X133500952Y-84336000D01*
X133596190Y-84288380D01*
X133834285Y-84288380D01*
X133977142Y-84336000D01*
X134405714Y-85288380D02*
X134405714Y-84288380D01*
X134643809Y-84288380D01*
X134786666Y-84336000D01*
X134881904Y-84431238D01*
X134929523Y-84526476D01*
X134977142Y-84716952D01*
X134977142Y-84859809D01*
X134929523Y-85050285D01*
X134881904Y-85145523D01*
X134786666Y-85240761D01*
X134643809Y-85288380D01*
X134405714Y-85288380D01*
X135358095Y-85002666D02*
X135834285Y-85002666D01*
X135262857Y-85288380D02*
X135596190Y-84288380D01*
X135929523Y-85288380D01*
X153225523Y-91384380D02*
X152654095Y-91384380D01*
X152939809Y-91384380D02*
X152939809Y-90384380D01*
X152844571Y-90527238D01*
X152749333Y-90622476D01*
X152654095Y-90670095D01*
X153558857Y-90384380D02*
X154177904Y-90384380D01*
X153844571Y-90765333D01*
X153987428Y-90765333D01*
X154082666Y-90812952D01*
X154130285Y-90860571D01*
X154177904Y-90955809D01*
X154177904Y-91193904D01*
X154130285Y-91289142D01*
X154082666Y-91336761D01*
X153987428Y-91384380D01*
X153701714Y-91384380D01*
X153606476Y-91336761D01*
X153558857Y-91289142D01*
X171958095Y-90479619D02*
X172005714Y-90432000D01*
X172100952Y-90384380D01*
X172339047Y-90384380D01*
X172434285Y-90432000D01*
X172481904Y-90479619D01*
X172529523Y-90574857D01*
X172529523Y-90670095D01*
X172481904Y-90812952D01*
X171910476Y-91384380D01*
X172529523Y-91384380D01*
X173386666Y-90384380D02*
X173196190Y-90384380D01*
X173100952Y-90432000D01*
X173053333Y-90479619D01*
X172958095Y-90622476D01*
X172910476Y-90812952D01*
X172910476Y-91193904D01*
X172958095Y-91289142D01*
X173005714Y-91336761D01*
X173100952Y-91384380D01*
X173291428Y-91384380D01*
X173386666Y-91336761D01*
X173434285Y-91289142D01*
X173481904Y-91193904D01*
X173481904Y-90955809D01*
X173434285Y-90860571D01*
X173386666Y-90812952D01*
X173291428Y-90765333D01*
X173100952Y-90765333D01*
X173005714Y-90812952D01*
X172958095Y-90860571D01*
X172910476Y-90955809D01*
X169418095Y-90479619D02*
X169465714Y-90432000D01*
X169560952Y-90384380D01*
X169799047Y-90384380D01*
X169894285Y-90432000D01*
X169941904Y-90479619D01*
X169989523Y-90574857D01*
X169989523Y-90670095D01*
X169941904Y-90812952D01*
X169370476Y-91384380D01*
X169989523Y-91384380D01*
X170894285Y-90384380D02*
X170418095Y-90384380D01*
X170370476Y-90860571D01*
X170418095Y-90812952D01*
X170513333Y-90765333D01*
X170751428Y-90765333D01*
X170846666Y-90812952D01*
X170894285Y-90860571D01*
X170941904Y-90955809D01*
X170941904Y-91193904D01*
X170894285Y-91289142D01*
X170846666Y-91336761D01*
X170751428Y-91384380D01*
X170513333Y-91384380D01*
X170418095Y-91336761D01*
X170370476Y-91289142D01*
X167449523Y-91384380D02*
X166878095Y-91384380D01*
X167163809Y-91384380D02*
X167163809Y-90384380D01*
X167068571Y-90527238D01*
X166973333Y-90622476D01*
X166878095Y-90670095D01*
X167782857Y-90384380D02*
X168449523Y-90384380D01*
X168020952Y-91384380D01*
X164909523Y-91384380D02*
X164338095Y-91384380D01*
X164623809Y-91384380D02*
X164623809Y-90384380D01*
X164528571Y-90527238D01*
X164433333Y-90622476D01*
X164338095Y-90670095D01*
X165766666Y-90384380D02*
X165576190Y-90384380D01*
X165480952Y-90432000D01*
X165433333Y-90479619D01*
X165338095Y-90622476D01*
X165290476Y-90812952D01*
X165290476Y-91193904D01*
X165338095Y-91289142D01*
X165385714Y-91336761D01*
X165480952Y-91384380D01*
X165671428Y-91384380D01*
X165766666Y-91336761D01*
X165814285Y-91289142D01*
X165861904Y-91193904D01*
X165861904Y-90955809D01*
X165814285Y-90860571D01*
X165766666Y-90812952D01*
X165671428Y-90765333D01*
X165480952Y-90765333D01*
X165385714Y-90812952D01*
X165338095Y-90860571D01*
X165290476Y-90955809D01*
X161798095Y-90479619D02*
X161845714Y-90432000D01*
X161940952Y-90384380D01*
X162179047Y-90384380D01*
X162274285Y-90432000D01*
X162321904Y-90479619D01*
X162369523Y-90574857D01*
X162369523Y-90670095D01*
X162321904Y-90812952D01*
X161750476Y-91384380D01*
X162369523Y-91384380D01*
X162702857Y-90384380D02*
X163369523Y-90384380D01*
X162940952Y-91384380D01*
X159829523Y-91384380D02*
X159258095Y-91384380D01*
X159543809Y-91384380D02*
X159543809Y-90384380D01*
X159448571Y-90527238D01*
X159353333Y-90622476D01*
X159258095Y-90670095D01*
X160686666Y-90717714D02*
X160686666Y-91384380D01*
X160448571Y-90336761D02*
X160210476Y-91051047D01*
X160829523Y-91051047D01*
X155765523Y-91384380D02*
X155194095Y-91384380D01*
X155479809Y-91384380D02*
X155479809Y-90384380D01*
X155384571Y-90527238D01*
X155289333Y-90622476D01*
X155194095Y-90670095D01*
X156146476Y-90479619D02*
X156194095Y-90432000D01*
X156289333Y-90384380D01*
X156527428Y-90384380D01*
X156622666Y-90432000D01*
X156670285Y-90479619D01*
X156717904Y-90574857D01*
X156717904Y-90670095D01*
X156670285Y-90812952D01*
X156098857Y-91384380D01*
X156717904Y-91384380D01*
X139954095Y-90432000D02*
X139858857Y-90384380D01*
X139716000Y-90384380D01*
X139573142Y-90432000D01*
X139477904Y-90527238D01*
X139430285Y-90622476D01*
X139382666Y-90812952D01*
X139382666Y-90955809D01*
X139430285Y-91146285D01*
X139477904Y-91241523D01*
X139573142Y-91336761D01*
X139716000Y-91384380D01*
X139811238Y-91384380D01*
X139954095Y-91336761D01*
X140001714Y-91289142D01*
X140001714Y-90955809D01*
X139811238Y-90955809D01*
X140430285Y-91384380D02*
X140430285Y-90384380D01*
X141001714Y-91384380D01*
X141001714Y-90384380D01*
X141477904Y-91384380D02*
X141477904Y-90384380D01*
X141716000Y-90384380D01*
X141858857Y-90432000D01*
X141954095Y-90527238D01*
X142001714Y-90622476D01*
X142049333Y-90812952D01*
X142049333Y-90955809D01*
X142001714Y-91146285D01*
X141954095Y-91241523D01*
X141858857Y-91336761D01*
X141716000Y-91384380D01*
X141477904Y-91384380D01*
X155194095Y-129548000D02*
X155098857Y-129500380D01*
X154956000Y-129500380D01*
X154813142Y-129548000D01*
X154717904Y-129643238D01*
X154670285Y-129738476D01*
X154622666Y-129928952D01*
X154622666Y-130071809D01*
X154670285Y-130262285D01*
X154717904Y-130357523D01*
X154813142Y-130452761D01*
X154956000Y-130500380D01*
X155051238Y-130500380D01*
X155194095Y-130452761D01*
X155241714Y-130405142D01*
X155241714Y-130071809D01*
X155051238Y-130071809D01*
X155670285Y-130500380D02*
X155670285Y-129500380D01*
X156241714Y-130500380D01*
X156241714Y-129500380D01*
X156717904Y-130500380D02*
X156717904Y-129500380D01*
X156956000Y-129500380D01*
X157098857Y-129548000D01*
X157194095Y-129643238D01*
X157241714Y-129738476D01*
X157289333Y-129928952D01*
X157289333Y-130071809D01*
X157241714Y-130262285D01*
X157194095Y-130357523D01*
X157098857Y-130452761D01*
X156956000Y-130500380D01*
X156717904Y-130500380D01*
X152209523Y-129500380D02*
X151733333Y-129500380D01*
X151685714Y-129976571D01*
X151733333Y-129928952D01*
X151828571Y-129881333D01*
X152066666Y-129881333D01*
X152161904Y-129928952D01*
X152209523Y-129976571D01*
X152257142Y-130071809D01*
X152257142Y-130309904D01*
X152209523Y-130405142D01*
X152161904Y-130452761D01*
X152066666Y-130500380D01*
X151828571Y-130500380D01*
X151733333Y-130452761D01*
X151685714Y-130405142D01*
X152542857Y-129500380D02*
X152876190Y-130500380D01*
X153209523Y-129500380D01*
D11*
%TO.C,4.7k*%
X140620000Y-99060000D02*
G75*
G03*
X140620000Y-99060000I-920000J0D01*
G01*
X139700000Y-99980000D02*
X139700000Y-103140000D01*
%TO.C,10M*%
X136240000Y-102250000D02*
X138080000Y-102250000D01*
X138080000Y-102250000D02*
X138080000Y-98410000D01*
X138080000Y-98410000D02*
X136240000Y-98410000D01*
X136240000Y-98410000D02*
X136240000Y-102250000D01*
X137160000Y-103200000D02*
X137160000Y-102250000D01*
X137160000Y-97460000D02*
X137160000Y-98410000D01*
%TO.C,0.1uF*%
X143860000Y-103519000D02*
X143860000Y-102261000D01*
X145700000Y-103519000D02*
X145700000Y-102261000D01*
%TO.C,2N7000*%
X121627816Y-102509205D02*
G75*
G02*
X122152000Y-101782000I2324184J-1122795D01*
G01*
X121595600Y-104730807D02*
G75*
G03*
X123952000Y-106232000I2356400J1098807D01*
G01*
X126308400Y-104730807D02*
G75*
G02*
X123952000Y-106232000I-2356400J1098807D01*
G01*
X126276184Y-102509205D02*
G75*
G03*
X125752000Y-101782000I-2324184J-1122795D01*
G01*
X125752000Y-101782000D02*
X122152000Y-101782000D01*
%TO.C,DHT22*%
X130750000Y-120710000D02*
X133410000Y-120710000D01*
X130750000Y-115570000D02*
X130750000Y-120710000D01*
X133410000Y-115570000D02*
X133410000Y-120710000D01*
X130750000Y-115570000D02*
X133410000Y-115570000D01*
X130750000Y-114300000D02*
X130750000Y-112970000D01*
X130750000Y-112970000D02*
X132080000Y-112970000D01*
%TO.C,VCC*%
X158690000Y-123130000D02*
X158690000Y-125790000D01*
X166370000Y-123130000D02*
X158690000Y-123130000D01*
X166370000Y-125790000D02*
X158690000Y-125790000D01*
X166370000Y-123130000D02*
X166370000Y-125790000D01*
X167640000Y-123130000D02*
X168970000Y-123130000D01*
X168970000Y-123130000D02*
X168970000Y-124460000D01*
%TO.C,Rx*%
X156150000Y-93920000D02*
X156150000Y-96580000D01*
X166370000Y-93920000D02*
X156150000Y-93920000D01*
X166370000Y-96580000D02*
X156150000Y-96580000D01*
X166370000Y-93920000D02*
X166370000Y-96580000D01*
X167640000Y-93920000D02*
X168970000Y-93920000D01*
X168970000Y-93920000D02*
X168970000Y-95250000D01*
%TO.C,NE555*%
X135830000Y-109490000D02*
G75*
G02*
X135830000Y-111490000I0J-1000000D01*
G01*
X135830000Y-111490000D02*
X135830000Y-113140000D01*
X135830000Y-113140000D02*
X146110000Y-113140000D01*
X146110000Y-113140000D02*
X146110000Y-107840000D01*
X146110000Y-107840000D02*
X135830000Y-107840000D01*
X135830000Y-107840000D02*
X135830000Y-109490000D01*
%TO.C,330*%
X176180000Y-109220000D02*
G75*
G03*
X176180000Y-109220000I-920000J0D01*
G01*
X175260000Y-110140000D02*
X175260000Y-113300000D01*
X143160000Y-104140000D02*
G75*
G03*
X143160000Y-104140000I-920000J0D01*
G01*
X142240000Y-103220000D02*
X142240000Y-100060000D01*
%TO.C,100*%
X127412000Y-100584000D02*
G75*
G03*
X127412000Y-100584000I-920000J0D01*
G01*
X125572000Y-100584000D02*
X122412000Y-100584000D01*
%TO.C,AudioJack*%
X121240000Y-98570000D02*
X120740000Y-98020000D01*
X120240000Y-98570000D02*
X121240000Y-98570000D01*
X120740000Y-98020000D02*
X120240000Y-98570000D01*
D10*
X114940000Y-85720000D02*
X122690000Y-85720000D01*
X127040000Y-85720000D02*
X129440000Y-85720000D01*
X129440000Y-85720000D02*
X129440000Y-97520000D01*
X129440000Y-97520000D02*
X129340000Y-97520000D01*
X126740000Y-97520000D02*
X122990000Y-97520000D01*
X118490000Y-97520000D02*
X114940000Y-97520000D01*
X114940000Y-97520000D02*
X114940000Y-85720000D01*
X114940000Y-88820000D02*
X111340000Y-88820000D01*
X111340000Y-88820000D02*
X111340000Y-95020000D01*
X111340000Y-95020000D02*
X114940000Y-95020000D01*
D11*
%TO.C,Relay*%
X130750000Y-133410000D02*
X133410000Y-133410000D01*
X130750000Y-125730000D02*
X130750000Y-133410000D01*
X133410000Y-125730000D02*
X133410000Y-133410000D01*
X130750000Y-125730000D02*
X133410000Y-125730000D01*
X130750000Y-124460000D02*
X130750000Y-123130000D01*
X130750000Y-123130000D02*
X132080000Y-123130000D01*
%TO.C,J4*%
X131766000Y-87570000D02*
X131766000Y-90230000D01*
X154686000Y-87570000D02*
X131766000Y-87570000D01*
X154686000Y-90230000D02*
X131766000Y-90230000D01*
X154686000Y-87570000D02*
X154686000Y-90230000D01*
X155956000Y-87570000D02*
X157286000Y-87570000D01*
X157286000Y-87570000D02*
X157286000Y-88900000D01*
%TO.C,J3*%
X158690000Y-87570000D02*
X158690000Y-90230000D01*
X176530000Y-87570000D02*
X158690000Y-87570000D01*
X176530000Y-90230000D02*
X158690000Y-90230000D01*
X176530000Y-87570000D02*
X176530000Y-90230000D01*
X177800000Y-87570000D02*
X179130000Y-87570000D01*
X179130000Y-87570000D02*
X179130000Y-88900000D01*
%TO.C,04*%
X179130000Y-133410000D02*
X179130000Y-130750000D01*
X166370000Y-133410000D02*
X179130000Y-133410000D01*
X166370000Y-130750000D02*
X179130000Y-130750000D01*
X166370000Y-133410000D02*
X166370000Y-130750000D01*
X165100000Y-133410000D02*
X163770000Y-133410000D01*
X163770000Y-133410000D02*
X163770000Y-132080000D01*
%TO.C,RST*%
X161350000Y-133410000D02*
X161350000Y-130750000D01*
X143510000Y-133410000D02*
X161350000Y-133410000D01*
X143510000Y-130750000D02*
X161350000Y-130750000D01*
X143510000Y-133410000D02*
X143510000Y-130750000D01*
X142240000Y-133410000D02*
X140910000Y-133410000D01*
X140910000Y-133410000D02*
X140910000Y-132080000D01*
%TO.C,IR LED*%
X115760163Y-101371130D02*
G75*
G02*
X115760000Y-99289039I1079837J1041130D01*
G01*
X117919837Y-101371130D02*
G75*
G03*
X117920000Y-99289039I-1079837J1041130D01*
G01*
X115761392Y-102002335D02*
G75*
G02*
X115604484Y-98770000I1078608J1672335D01*
G01*
X117918608Y-102002335D02*
G75*
G03*
X118075516Y-98770000I-1078608J1672335D01*
G01*
X118076000Y-98770000D02*
X117920000Y-98770000D01*
X115760000Y-98770000D02*
X115604000Y-98770000D01*
%TO.C,1N4001*%
X139330000Y-115920000D02*
X139330000Y-117760000D01*
X139330000Y-117760000D02*
X142610000Y-117760000D01*
X142610000Y-117760000D02*
X142610000Y-115920000D01*
X142610000Y-115920000D02*
X139330000Y-115920000D01*
X138150000Y-116840000D02*
X139330000Y-116840000D01*
X143790000Y-116840000D02*
X142610000Y-116840000D01*
X139906000Y-115920000D02*
X139906000Y-117760000D01*
X140026000Y-115920000D02*
X140026000Y-117760000D01*
X139786000Y-115920000D02*
X139786000Y-117760000D01*
%TO.C,LED2*%
X180111130Y-110299837D02*
G75*
G02*
X178029039Y-110300000I-1041130J1079837D01*
G01*
X180111130Y-108140163D02*
G75*
G03*
X178029039Y-108140000I-1041130J-1079837D01*
G01*
X180742335Y-110298608D02*
G75*
G02*
X177510000Y-110455516I-1672335J1078608D01*
G01*
X180742335Y-108141392D02*
G75*
G03*
X177510000Y-107984484I-1672335J-1078608D01*
G01*
X177510000Y-107984000D02*
X177510000Y-108140000D01*
X177510000Y-110300000D02*
X177510000Y-110456000D01*
%TO.C,LED1*%
X180111130Y-115379837D02*
G75*
G02*
X178029039Y-115380000I-1041130J1079837D01*
G01*
X180111130Y-113220163D02*
G75*
G03*
X178029039Y-113220000I-1041130J-1079837D01*
G01*
X180742335Y-115378608D02*
G75*
G02*
X177510000Y-115535516I-1672335J1078608D01*
G01*
X180742335Y-113221392D02*
G75*
G03*
X177510000Y-113064484I-1672335J-1078608D01*
G01*
X177510000Y-113064000D02*
X177510000Y-113220000D01*
X177510000Y-115380000D02*
X177510000Y-115536000D01*
%TO.C,22uF*%
X140820000Y-120396000D02*
G75*
G03*
X140820000Y-120396000I-2120000J0D01*
G01*
X138700000Y-122476000D02*
X138700000Y-118316000D01*
X138660000Y-122476000D02*
X138660000Y-118316000D01*
X138620000Y-122475000D02*
X138620000Y-118317000D01*
X138580000Y-122473000D02*
X138580000Y-118319000D01*
X138540000Y-122470000D02*
X138540000Y-118322000D01*
X138500000Y-122467000D02*
X138500000Y-121236000D01*
X138500000Y-119556000D02*
X138500000Y-118325000D01*
X138460000Y-122463000D02*
X138460000Y-121236000D01*
X138460000Y-119556000D02*
X138460000Y-118329000D01*
X138420000Y-122458000D02*
X138420000Y-121236000D01*
X138420000Y-119556000D02*
X138420000Y-118334000D01*
X138380000Y-122452000D02*
X138380000Y-121236000D01*
X138380000Y-119556000D02*
X138380000Y-118340000D01*
X138340000Y-122446000D02*
X138340000Y-121236000D01*
X138340000Y-119556000D02*
X138340000Y-118346000D01*
X138300000Y-122438000D02*
X138300000Y-121236000D01*
X138300000Y-119556000D02*
X138300000Y-118354000D01*
X138260000Y-122430000D02*
X138260000Y-121236000D01*
X138260000Y-119556000D02*
X138260000Y-118362000D01*
X138220000Y-122421000D02*
X138220000Y-121236000D01*
X138220000Y-119556000D02*
X138220000Y-118371000D01*
X138180000Y-122412000D02*
X138180000Y-121236000D01*
X138180000Y-119556000D02*
X138180000Y-118380000D01*
X138140000Y-122401000D02*
X138140000Y-121236000D01*
X138140000Y-119556000D02*
X138140000Y-118391000D01*
X138100000Y-122390000D02*
X138100000Y-121236000D01*
X138100000Y-119556000D02*
X138100000Y-118402000D01*
X138060000Y-122378000D02*
X138060000Y-121236000D01*
X138060000Y-119556000D02*
X138060000Y-118414000D01*
X138020000Y-122364000D02*
X138020000Y-121236000D01*
X138020000Y-119556000D02*
X138020000Y-118428000D01*
X137979000Y-122350000D02*
X137979000Y-121236000D01*
X137979000Y-119556000D02*
X137979000Y-118442000D01*
X137939000Y-122336000D02*
X137939000Y-121236000D01*
X137939000Y-119556000D02*
X137939000Y-118456000D01*
X137899000Y-122320000D02*
X137899000Y-121236000D01*
X137899000Y-119556000D02*
X137899000Y-118472000D01*
X137859000Y-122303000D02*
X137859000Y-121236000D01*
X137859000Y-119556000D02*
X137859000Y-118489000D01*
X137819000Y-122285000D02*
X137819000Y-121236000D01*
X137819000Y-119556000D02*
X137819000Y-118507000D01*
X137779000Y-122266000D02*
X137779000Y-121236000D01*
X137779000Y-119556000D02*
X137779000Y-118526000D01*
X137739000Y-122247000D02*
X137739000Y-121236000D01*
X137739000Y-119556000D02*
X137739000Y-118545000D01*
X137699000Y-122226000D02*
X137699000Y-121236000D01*
X137699000Y-119556000D02*
X137699000Y-118566000D01*
X137659000Y-122204000D02*
X137659000Y-121236000D01*
X137659000Y-119556000D02*
X137659000Y-118588000D01*
X137619000Y-122181000D02*
X137619000Y-121236000D01*
X137619000Y-119556000D02*
X137619000Y-118611000D01*
X137579000Y-122156000D02*
X137579000Y-121236000D01*
X137579000Y-119556000D02*
X137579000Y-118636000D01*
X137539000Y-122131000D02*
X137539000Y-121236000D01*
X137539000Y-119556000D02*
X137539000Y-118661000D01*
X137499000Y-122104000D02*
X137499000Y-121236000D01*
X137499000Y-119556000D02*
X137499000Y-118688000D01*
X137459000Y-122076000D02*
X137459000Y-121236000D01*
X137459000Y-119556000D02*
X137459000Y-118716000D01*
X137419000Y-122046000D02*
X137419000Y-121236000D01*
X137419000Y-119556000D02*
X137419000Y-118746000D01*
X137379000Y-122015000D02*
X137379000Y-121236000D01*
X137379000Y-119556000D02*
X137379000Y-118777000D01*
X137339000Y-121983000D02*
X137339000Y-121236000D01*
X137339000Y-119556000D02*
X137339000Y-118809000D01*
X137299000Y-121948000D02*
X137299000Y-121236000D01*
X137299000Y-119556000D02*
X137299000Y-118844000D01*
X137259000Y-121912000D02*
X137259000Y-121236000D01*
X137259000Y-119556000D02*
X137259000Y-118880000D01*
X137219000Y-121874000D02*
X137219000Y-121236000D01*
X137219000Y-119556000D02*
X137219000Y-118918000D01*
X137179000Y-121834000D02*
X137179000Y-121236000D01*
X137179000Y-119556000D02*
X137179000Y-118958000D01*
X137139000Y-121792000D02*
X137139000Y-121236000D01*
X137139000Y-119556000D02*
X137139000Y-119000000D01*
X137099000Y-121747000D02*
X137099000Y-121236000D01*
X137099000Y-119556000D02*
X137099000Y-119045000D01*
X137059000Y-121700000D02*
X137059000Y-121236000D01*
X137059000Y-119556000D02*
X137059000Y-119092000D01*
X137019000Y-121650000D02*
X137019000Y-121236000D01*
X137019000Y-119556000D02*
X137019000Y-119142000D01*
X136979000Y-121596000D02*
X136979000Y-121236000D01*
X136979000Y-119556000D02*
X136979000Y-119196000D01*
X136939000Y-121538000D02*
X136939000Y-121236000D01*
X136939000Y-119556000D02*
X136939000Y-119254000D01*
X136899000Y-121476000D02*
X136899000Y-121236000D01*
X136899000Y-119556000D02*
X136899000Y-119316000D01*
X136859000Y-121409000D02*
X136859000Y-119383000D01*
X136819000Y-121336000D02*
X136819000Y-119456000D01*
X136779000Y-121255000D02*
X136779000Y-119537000D01*
X136739000Y-121164000D02*
X136739000Y-119628000D01*
X136699000Y-121060000D02*
X136699000Y-119732000D01*
X136659000Y-120933000D02*
X136659000Y-119859000D01*
X136619000Y-120766000D02*
X136619000Y-120026000D01*
X140969801Y-121591000D02*
X140569801Y-121591000D01*
X140769801Y-121791000D02*
X140769801Y-121391000D01*
%TO.C,4.7k*%
D10*
X139485714Y-102528571D02*
X140152380Y-102528571D01*
X139104761Y-102766666D02*
X139819047Y-103004761D01*
X139819047Y-102385714D01*
X140057142Y-102004761D02*
X140104761Y-101957142D01*
X140152380Y-102004761D01*
X140104761Y-102052380D01*
X140057142Y-102004761D01*
X140152380Y-102004761D01*
X139152380Y-101623809D02*
X139152380Y-100957142D01*
X140152380Y-101385714D01*
X140152380Y-100576190D02*
X139152380Y-100576190D01*
X139771428Y-100480952D02*
X140152380Y-100195238D01*
X139485714Y-100195238D02*
X139866666Y-100576190D01*
X139485714Y-97448571D02*
X140152380Y-97448571D01*
X139104761Y-97686666D02*
X139819047Y-97924761D01*
X139819047Y-97305714D01*
X140057142Y-96924761D02*
X140104761Y-96877142D01*
X140152380Y-96924761D01*
X140104761Y-96972380D01*
X140057142Y-96924761D01*
X140152380Y-96924761D01*
X139152380Y-96543809D02*
X139152380Y-95877142D01*
X140152380Y-96305714D01*
X140152380Y-95496190D02*
X139152380Y-95496190D01*
X139771428Y-95400952D02*
X140152380Y-95115238D01*
X139485714Y-95115238D02*
X139866666Y-95496190D01*
%TO.C,10M*%
X137612380Y-101091904D02*
X137612380Y-101663333D01*
X137612380Y-101377619D02*
X136612380Y-101377619D01*
X136755238Y-101472857D01*
X136850476Y-101568095D01*
X136898095Y-101663333D01*
X136612380Y-100472857D02*
X136612380Y-100377619D01*
X136660000Y-100282380D01*
X136707619Y-100234761D01*
X136802857Y-100187142D01*
X136993333Y-100139523D01*
X137231428Y-100139523D01*
X137421904Y-100187142D01*
X137517142Y-100234761D01*
X137564761Y-100282380D01*
X137612380Y-100377619D01*
X137612380Y-100472857D01*
X137564761Y-100568095D01*
X137517142Y-100615714D01*
X137421904Y-100663333D01*
X137231428Y-100710952D01*
X136993333Y-100710952D01*
X136802857Y-100663333D01*
X136707619Y-100615714D01*
X136660000Y-100568095D01*
X136612380Y-100472857D01*
X137612380Y-99710952D02*
X136612380Y-99710952D01*
X137326666Y-99377619D01*
X136612380Y-99044285D01*
X137612380Y-99044285D01*
X137612380Y-94741904D02*
X137612380Y-95313333D01*
X137612380Y-95027619D02*
X136612380Y-95027619D01*
X136755238Y-95122857D01*
X136850476Y-95218095D01*
X136898095Y-95313333D01*
X136612380Y-94122857D02*
X136612380Y-94027619D01*
X136660000Y-93932380D01*
X136707619Y-93884761D01*
X136802857Y-93837142D01*
X136993333Y-93789523D01*
X137231428Y-93789523D01*
X137421904Y-93837142D01*
X137517142Y-93884761D01*
X137564761Y-93932380D01*
X137612380Y-94027619D01*
X137612380Y-94122857D01*
X137564761Y-94218095D01*
X137517142Y-94265714D01*
X137421904Y-94313333D01*
X137231428Y-94360952D01*
X136993333Y-94360952D01*
X136802857Y-94313333D01*
X136707619Y-94265714D01*
X136660000Y-94218095D01*
X136612380Y-94122857D01*
X137612380Y-93360952D02*
X136612380Y-93360952D01*
X137326666Y-93027619D01*
X136612380Y-92694285D01*
X137612380Y-92694285D01*
%TO.C,0.1uF*%
X144232380Y-100194857D02*
X144232380Y-100099619D01*
X144280000Y-100004380D01*
X144327619Y-99956761D01*
X144422857Y-99909142D01*
X144613333Y-99861523D01*
X144851428Y-99861523D01*
X145041904Y-99909142D01*
X145137142Y-99956761D01*
X145184761Y-100004380D01*
X145232380Y-100099619D01*
X145232380Y-100194857D01*
X145184761Y-100290095D01*
X145137142Y-100337714D01*
X145041904Y-100385333D01*
X144851428Y-100432952D01*
X144613333Y-100432952D01*
X144422857Y-100385333D01*
X144327619Y-100337714D01*
X144280000Y-100290095D01*
X144232380Y-100194857D01*
X145137142Y-99432952D02*
X145184761Y-99385333D01*
X145232380Y-99432952D01*
X145184761Y-99480571D01*
X145137142Y-99432952D01*
X145232380Y-99432952D01*
X145232380Y-98432952D02*
X145232380Y-99004380D01*
X145232380Y-98718666D02*
X144232380Y-98718666D01*
X144375238Y-98813904D01*
X144470476Y-98909142D01*
X144518095Y-99004380D01*
X144565714Y-97575809D02*
X145232380Y-97575809D01*
X144565714Y-98004380D02*
X145089523Y-98004380D01*
X145184761Y-97956761D01*
X145232380Y-97861523D01*
X145232380Y-97718666D01*
X145184761Y-97623428D01*
X145137142Y-97575809D01*
X144708571Y-96766285D02*
X144708571Y-97099619D01*
X145232380Y-97099619D02*
X144232380Y-97099619D01*
X144232380Y-96623428D01*
%TO.C,2N7000*%
X121237714Y-105719619D02*
X121285333Y-105672000D01*
X121380571Y-105624380D01*
X121618666Y-105624380D01*
X121713904Y-105672000D01*
X121761523Y-105719619D01*
X121809142Y-105814857D01*
X121809142Y-105910095D01*
X121761523Y-106052952D01*
X121190095Y-106624380D01*
X121809142Y-106624380D01*
X122237714Y-106624380D02*
X122237714Y-105624380D01*
X122809142Y-106624380D01*
X122809142Y-105624380D01*
X123190095Y-105624380D02*
X123856761Y-105624380D01*
X123428190Y-106624380D01*
X124428190Y-105624380D02*
X124523428Y-105624380D01*
X124618666Y-105672000D01*
X124666285Y-105719619D01*
X124713904Y-105814857D01*
X124761523Y-106005333D01*
X124761523Y-106243428D01*
X124713904Y-106433904D01*
X124666285Y-106529142D01*
X124618666Y-106576761D01*
X124523428Y-106624380D01*
X124428190Y-106624380D01*
X124332952Y-106576761D01*
X124285333Y-106529142D01*
X124237714Y-106433904D01*
X124190095Y-106243428D01*
X124190095Y-106005333D01*
X124237714Y-105814857D01*
X124285333Y-105719619D01*
X124332952Y-105672000D01*
X124428190Y-105624380D01*
X125380571Y-105624380D02*
X125475809Y-105624380D01*
X125571047Y-105672000D01*
X125618666Y-105719619D01*
X125666285Y-105814857D01*
X125713904Y-106005333D01*
X125713904Y-106243428D01*
X125666285Y-106433904D01*
X125618666Y-106529142D01*
X125571047Y-106576761D01*
X125475809Y-106624380D01*
X125380571Y-106624380D01*
X125285333Y-106576761D01*
X125237714Y-106529142D01*
X125190095Y-106433904D01*
X125142476Y-106243428D01*
X125142476Y-106005333D01*
X125190095Y-105814857D01*
X125237714Y-105719619D01*
X125285333Y-105672000D01*
X125380571Y-105624380D01*
X126332952Y-105624380D02*
X126428190Y-105624380D01*
X126523428Y-105672000D01*
X126571047Y-105719619D01*
X126618666Y-105814857D01*
X126666285Y-106005333D01*
X126666285Y-106243428D01*
X126618666Y-106433904D01*
X126571047Y-106529142D01*
X126523428Y-106576761D01*
X126428190Y-106624380D01*
X126332952Y-106624380D01*
X126237714Y-106576761D01*
X126190095Y-106529142D01*
X126142476Y-106433904D01*
X126094857Y-106243428D01*
X126094857Y-106005333D01*
X126142476Y-105814857D01*
X126190095Y-105719619D01*
X126237714Y-105672000D01*
X126332952Y-105624380D01*
%TO.C,DHT22*%
X127563619Y-114720952D02*
X128563619Y-114720952D01*
X128563619Y-114959047D01*
X128516000Y-115101904D01*
X128420761Y-115197142D01*
X128325523Y-115244761D01*
X128135047Y-115292380D01*
X127992190Y-115292380D01*
X127801714Y-115244761D01*
X127706476Y-115197142D01*
X127611238Y-115101904D01*
X127563619Y-114959047D01*
X127563619Y-114720952D01*
X127563619Y-115720952D02*
X128563619Y-115720952D01*
X128087428Y-115720952D02*
X128087428Y-116292380D01*
X127563619Y-116292380D02*
X128563619Y-116292380D01*
X128563619Y-116625714D02*
X128563619Y-117197142D01*
X127563619Y-116911428D02*
X128563619Y-116911428D01*
X128468380Y-117482857D02*
X128516000Y-117530476D01*
X128563619Y-117625714D01*
X128563619Y-117863809D01*
X128516000Y-117959047D01*
X128468380Y-118006666D01*
X128373142Y-118054285D01*
X128277904Y-118054285D01*
X128135047Y-118006666D01*
X127563619Y-117435238D01*
X127563619Y-118054285D01*
X128468380Y-118435238D02*
X128516000Y-118482857D01*
X128563619Y-118578095D01*
X128563619Y-118816190D01*
X128516000Y-118911428D01*
X128468380Y-118959047D01*
X128373142Y-119006666D01*
X128277904Y-119006666D01*
X128135047Y-118959047D01*
X127563619Y-118387619D01*
X127563619Y-119006666D01*
%TO.C,VCC*%
X166814666Y-125944380D02*
X167148000Y-126944380D01*
X167481333Y-125944380D01*
X168386095Y-126849142D02*
X168338476Y-126896761D01*
X168195619Y-126944380D01*
X168100380Y-126944380D01*
X167957523Y-126896761D01*
X167862285Y-126801523D01*
X167814666Y-126706285D01*
X167767047Y-126515809D01*
X167767047Y-126372952D01*
X167814666Y-126182476D01*
X167862285Y-126087238D01*
X167957523Y-125992000D01*
X168100380Y-125944380D01*
X168195619Y-125944380D01*
X168338476Y-125992000D01*
X168386095Y-126039619D01*
X169386095Y-126849142D02*
X169338476Y-126896761D01*
X169195619Y-126944380D01*
X169100380Y-126944380D01*
X168957523Y-126896761D01*
X168862285Y-126801523D01*
X168814666Y-126706285D01*
X168767047Y-126515809D01*
X168767047Y-126372952D01*
X168814666Y-126182476D01*
X168862285Y-126087238D01*
X168957523Y-125992000D01*
X169100380Y-125944380D01*
X169195619Y-125944380D01*
X169338476Y-125992000D01*
X169386095Y-126039619D01*
X163012380Y-112624761D02*
X162012380Y-112624761D01*
X162726666Y-112291428D01*
X162012380Y-111958095D01*
X163012380Y-111958095D01*
X163012380Y-111481904D02*
X162012380Y-111481904D01*
X162488571Y-111481904D02*
X162488571Y-110910476D01*
X163012380Y-110910476D02*
X162012380Y-110910476D01*
X162631428Y-110434285D02*
X162631428Y-109672380D01*
X162012380Y-109291428D02*
X162012380Y-108624761D01*
X163012380Y-109291428D01*
X163012380Y-108624761D01*
X163012380Y-107720000D02*
X163012380Y-108291428D01*
X163012380Y-108005714D02*
X162012380Y-108005714D01*
X162155238Y-108100952D01*
X162250476Y-108196190D01*
X162298095Y-108291428D01*
X163012380Y-107243809D02*
X163012380Y-107053333D01*
X162964761Y-106958095D01*
X162917142Y-106910476D01*
X162774285Y-106815238D01*
X162583809Y-106767619D01*
X162202857Y-106767619D01*
X162107619Y-106815238D01*
X162060000Y-106862857D01*
X162012380Y-106958095D01*
X162012380Y-107148571D01*
X162060000Y-107243809D01*
X162107619Y-107291428D01*
X162202857Y-107339047D01*
X162440952Y-107339047D01*
X162536190Y-107291428D01*
X162583809Y-107243809D01*
X162631428Y-107148571D01*
X162631428Y-106958095D01*
X162583809Y-106862857D01*
X162536190Y-106815238D01*
X162440952Y-106767619D01*
X162917142Y-105767619D02*
X162964761Y-105815238D01*
X163012380Y-105958095D01*
X163012380Y-106053333D01*
X162964761Y-106196190D01*
X162869523Y-106291428D01*
X162774285Y-106339047D01*
X162583809Y-106386666D01*
X162440952Y-106386666D01*
X162250476Y-106339047D01*
X162155238Y-106291428D01*
X162060000Y-106196190D01*
X162012380Y-106053333D01*
X162012380Y-105958095D01*
X162060000Y-105815238D01*
X162107619Y-105767619D01*
X164338095Y-125992000D02*
X164242857Y-125944380D01*
X164100000Y-125944380D01*
X163957142Y-125992000D01*
X163861904Y-126087238D01*
X163814285Y-126182476D01*
X163766666Y-126372952D01*
X163766666Y-126515809D01*
X163814285Y-126706285D01*
X163861904Y-126801523D01*
X163957142Y-126896761D01*
X164100000Y-126944380D01*
X164195238Y-126944380D01*
X164338095Y-126896761D01*
X164385714Y-126849142D01*
X164385714Y-126515809D01*
X164195238Y-126515809D01*
X164814285Y-126944380D02*
X164814285Y-125944380D01*
X165385714Y-126944380D01*
X165385714Y-125944380D01*
X165861904Y-126944380D02*
X165861904Y-125944380D01*
X166100000Y-125944380D01*
X166242857Y-125992000D01*
X166338095Y-126087238D01*
X166385714Y-126182476D01*
X166433333Y-126372952D01*
X166433333Y-126515809D01*
X166385714Y-126706285D01*
X166338095Y-126801523D01*
X166242857Y-126896761D01*
X166100000Y-126944380D01*
X165861904Y-126944380D01*
%TO.C,Rx*%
X165004761Y-93924380D02*
X164671428Y-93448190D01*
X164433333Y-93924380D02*
X164433333Y-92924380D01*
X164814285Y-92924380D01*
X164909523Y-92972000D01*
X164957142Y-93019619D01*
X165004761Y-93114857D01*
X165004761Y-93257714D01*
X164957142Y-93352952D01*
X164909523Y-93400571D01*
X164814285Y-93448190D01*
X164433333Y-93448190D01*
X165338095Y-93924380D02*
X165861904Y-93257714D01*
X165338095Y-93257714D02*
X165861904Y-93924380D01*
X161869523Y-92924380D02*
X162440952Y-92924380D01*
X162155238Y-93924380D02*
X162155238Y-92924380D01*
X162679047Y-93924380D02*
X163202857Y-93257714D01*
X162679047Y-93257714D02*
X163202857Y-93924380D01*
%TO.C,NE555*%
X138803333Y-110942380D02*
X138803333Y-109942380D01*
X139374761Y-110942380D01*
X139374761Y-109942380D01*
X139850952Y-110418571D02*
X140184285Y-110418571D01*
X140327142Y-110942380D02*
X139850952Y-110942380D01*
X139850952Y-109942380D01*
X140327142Y-109942380D01*
X141231904Y-109942380D02*
X140755714Y-109942380D01*
X140708095Y-110418571D01*
X140755714Y-110370952D01*
X140850952Y-110323333D01*
X141089047Y-110323333D01*
X141184285Y-110370952D01*
X141231904Y-110418571D01*
X141279523Y-110513809D01*
X141279523Y-110751904D01*
X141231904Y-110847142D01*
X141184285Y-110894761D01*
X141089047Y-110942380D01*
X140850952Y-110942380D01*
X140755714Y-110894761D01*
X140708095Y-110847142D01*
X142184285Y-109942380D02*
X141708095Y-109942380D01*
X141660476Y-110418571D01*
X141708095Y-110370952D01*
X141803333Y-110323333D01*
X142041428Y-110323333D01*
X142136666Y-110370952D01*
X142184285Y-110418571D01*
X142231904Y-110513809D01*
X142231904Y-110751904D01*
X142184285Y-110847142D01*
X142136666Y-110894761D01*
X142041428Y-110942380D01*
X141803333Y-110942380D01*
X141708095Y-110894761D01*
X141660476Y-110847142D01*
X143136666Y-109942380D02*
X142660476Y-109942380D01*
X142612857Y-110418571D01*
X142660476Y-110370952D01*
X142755714Y-110323333D01*
X142993809Y-110323333D01*
X143089047Y-110370952D01*
X143136666Y-110418571D01*
X143184285Y-110513809D01*
X143184285Y-110751904D01*
X143136666Y-110847142D01*
X143089047Y-110894761D01*
X142993809Y-110942380D01*
X142755714Y-110942380D01*
X142660476Y-110894761D01*
X142612857Y-110847142D01*
%TO.C,330*%
X174712380Y-113045714D02*
X174712380Y-112426666D01*
X175093333Y-112760000D01*
X175093333Y-112617142D01*
X175140952Y-112521904D01*
X175188571Y-112474285D01*
X175283809Y-112426666D01*
X175521904Y-112426666D01*
X175617142Y-112474285D01*
X175664761Y-112521904D01*
X175712380Y-112617142D01*
X175712380Y-112902857D01*
X175664761Y-112998095D01*
X175617142Y-113045714D01*
X174712380Y-112093333D02*
X174712380Y-111474285D01*
X175093333Y-111807619D01*
X175093333Y-111664761D01*
X175140952Y-111569523D01*
X175188571Y-111521904D01*
X175283809Y-111474285D01*
X175521904Y-111474285D01*
X175617142Y-111521904D01*
X175664761Y-111569523D01*
X175712380Y-111664761D01*
X175712380Y-111950476D01*
X175664761Y-112045714D01*
X175617142Y-112093333D01*
X174712380Y-110855238D02*
X174712380Y-110760000D01*
X174760000Y-110664761D01*
X174807619Y-110617142D01*
X174902857Y-110569523D01*
X175093333Y-110521904D01*
X175331428Y-110521904D01*
X175521904Y-110569523D01*
X175617142Y-110617142D01*
X175664761Y-110664761D01*
X175712380Y-110760000D01*
X175712380Y-110855238D01*
X175664761Y-110950476D01*
X175617142Y-110998095D01*
X175521904Y-111045714D01*
X175331428Y-111093333D01*
X175093333Y-111093333D01*
X174902857Y-111045714D01*
X174807619Y-110998095D01*
X174760000Y-110950476D01*
X174712380Y-110855238D01*
X173188380Y-113045714D02*
X173188380Y-112426666D01*
X173569333Y-112760000D01*
X173569333Y-112617142D01*
X173616952Y-112521904D01*
X173664571Y-112474285D01*
X173759809Y-112426666D01*
X173997904Y-112426666D01*
X174093142Y-112474285D01*
X174140761Y-112521904D01*
X174188380Y-112617142D01*
X174188380Y-112902857D01*
X174140761Y-112998095D01*
X174093142Y-113045714D01*
X173188380Y-112093333D02*
X173188380Y-111474285D01*
X173569333Y-111807619D01*
X173569333Y-111664761D01*
X173616952Y-111569523D01*
X173664571Y-111521904D01*
X173759809Y-111474285D01*
X173997904Y-111474285D01*
X174093142Y-111521904D01*
X174140761Y-111569523D01*
X174188380Y-111664761D01*
X174188380Y-111950476D01*
X174140761Y-112045714D01*
X174093142Y-112093333D01*
X173188380Y-110855238D02*
X173188380Y-110760000D01*
X173236000Y-110664761D01*
X173283619Y-110617142D01*
X173378857Y-110569523D01*
X173569333Y-110521904D01*
X173807428Y-110521904D01*
X173997904Y-110569523D01*
X174093142Y-110617142D01*
X174140761Y-110664761D01*
X174188380Y-110760000D01*
X174188380Y-110855238D01*
X174140761Y-110950476D01*
X174093142Y-110998095D01*
X173997904Y-111045714D01*
X173807428Y-111093333D01*
X173569333Y-111093333D01*
X173378857Y-111045714D01*
X173283619Y-110998095D01*
X173236000Y-110950476D01*
X173188380Y-110855238D01*
X141692380Y-102885714D02*
X141692380Y-102266666D01*
X142073333Y-102600000D01*
X142073333Y-102457142D01*
X142120952Y-102361904D01*
X142168571Y-102314285D01*
X142263809Y-102266666D01*
X142501904Y-102266666D01*
X142597142Y-102314285D01*
X142644761Y-102361904D01*
X142692380Y-102457142D01*
X142692380Y-102742857D01*
X142644761Y-102838095D01*
X142597142Y-102885714D01*
X141692380Y-101933333D02*
X141692380Y-101314285D01*
X142073333Y-101647619D01*
X142073333Y-101504761D01*
X142120952Y-101409523D01*
X142168571Y-101361904D01*
X142263809Y-101314285D01*
X142501904Y-101314285D01*
X142597142Y-101361904D01*
X142644761Y-101409523D01*
X142692380Y-101504761D01*
X142692380Y-101790476D01*
X142644761Y-101885714D01*
X142597142Y-101933333D01*
X141692380Y-100695238D02*
X141692380Y-100600000D01*
X141740000Y-100504761D01*
X141787619Y-100457142D01*
X141882857Y-100409523D01*
X142073333Y-100361904D01*
X142311428Y-100361904D01*
X142501904Y-100409523D01*
X142597142Y-100457142D01*
X142644761Y-100504761D01*
X142692380Y-100600000D01*
X142692380Y-100695238D01*
X142644761Y-100790476D01*
X142597142Y-100838095D01*
X142501904Y-100885714D01*
X142311428Y-100933333D01*
X142073333Y-100933333D01*
X141882857Y-100885714D01*
X141787619Y-100838095D01*
X141740000Y-100790476D01*
X141692380Y-100695238D01*
X141692380Y-97805714D02*
X141692380Y-97186666D01*
X142073333Y-97520000D01*
X142073333Y-97377142D01*
X142120952Y-97281904D01*
X142168571Y-97234285D01*
X142263809Y-97186666D01*
X142501904Y-97186666D01*
X142597142Y-97234285D01*
X142644761Y-97281904D01*
X142692380Y-97377142D01*
X142692380Y-97662857D01*
X142644761Y-97758095D01*
X142597142Y-97805714D01*
X141692380Y-96853333D02*
X141692380Y-96234285D01*
X142073333Y-96567619D01*
X142073333Y-96424761D01*
X142120952Y-96329523D01*
X142168571Y-96281904D01*
X142263809Y-96234285D01*
X142501904Y-96234285D01*
X142597142Y-96281904D01*
X142644761Y-96329523D01*
X142692380Y-96424761D01*
X142692380Y-96710476D01*
X142644761Y-96805714D01*
X142597142Y-96853333D01*
X141692380Y-95615238D02*
X141692380Y-95520000D01*
X141740000Y-95424761D01*
X141787619Y-95377142D01*
X141882857Y-95329523D01*
X142073333Y-95281904D01*
X142311428Y-95281904D01*
X142501904Y-95329523D01*
X142597142Y-95377142D01*
X142644761Y-95424761D01*
X142692380Y-95520000D01*
X142692380Y-95615238D01*
X142644761Y-95710476D01*
X142597142Y-95758095D01*
X142501904Y-95805714D01*
X142311428Y-95853333D01*
X142073333Y-95853333D01*
X141882857Y-95805714D01*
X141787619Y-95758095D01*
X141740000Y-95710476D01*
X141692380Y-95615238D01*
%TO.C,100*%
X123285333Y-101036380D02*
X122713904Y-101036380D01*
X122999619Y-101036380D02*
X122999619Y-100036380D01*
X122904380Y-100179238D01*
X122809142Y-100274476D01*
X122713904Y-100322095D01*
X123904380Y-100036380D02*
X123999619Y-100036380D01*
X124094857Y-100084000D01*
X124142476Y-100131619D01*
X124190095Y-100226857D01*
X124237714Y-100417333D01*
X124237714Y-100655428D01*
X124190095Y-100845904D01*
X124142476Y-100941142D01*
X124094857Y-100988761D01*
X123999619Y-101036380D01*
X123904380Y-101036380D01*
X123809142Y-100988761D01*
X123761523Y-100941142D01*
X123713904Y-100845904D01*
X123666285Y-100655428D01*
X123666285Y-100417333D01*
X123713904Y-100226857D01*
X123761523Y-100131619D01*
X123809142Y-100084000D01*
X123904380Y-100036380D01*
X124856761Y-100036380D02*
X124952000Y-100036380D01*
X125047238Y-100084000D01*
X125094857Y-100131619D01*
X125142476Y-100226857D01*
X125190095Y-100417333D01*
X125190095Y-100655428D01*
X125142476Y-100845904D01*
X125094857Y-100941142D01*
X125047238Y-100988761D01*
X124952000Y-101036380D01*
X124856761Y-101036380D01*
X124761523Y-100988761D01*
X124713904Y-100941142D01*
X124666285Y-100845904D01*
X124618666Y-100655428D01*
X124618666Y-100417333D01*
X124666285Y-100226857D01*
X124713904Y-100131619D01*
X124761523Y-100084000D01*
X124856761Y-100036380D01*
%TO.C,AudioJack*%
X119436000Y-92622666D02*
X119912190Y-92622666D01*
X119340761Y-92908380D02*
X119674095Y-91908380D01*
X120007428Y-92908380D01*
X120769333Y-92241714D02*
X120769333Y-92908380D01*
X120340761Y-92241714D02*
X120340761Y-92765523D01*
X120388380Y-92860761D01*
X120483619Y-92908380D01*
X120626476Y-92908380D01*
X120721714Y-92860761D01*
X120769333Y-92813142D01*
X121674095Y-92908380D02*
X121674095Y-91908380D01*
X121674095Y-92860761D02*
X121578857Y-92908380D01*
X121388380Y-92908380D01*
X121293142Y-92860761D01*
X121245523Y-92813142D01*
X121197904Y-92717904D01*
X121197904Y-92432190D01*
X121245523Y-92336952D01*
X121293142Y-92289333D01*
X121388380Y-92241714D01*
X121578857Y-92241714D01*
X121674095Y-92289333D01*
X122150285Y-92908380D02*
X122150285Y-92241714D01*
X122150285Y-91908380D02*
X122102666Y-91956000D01*
X122150285Y-92003619D01*
X122197904Y-91956000D01*
X122150285Y-91908380D01*
X122150285Y-92003619D01*
X122769333Y-92908380D02*
X122674095Y-92860761D01*
X122626476Y-92813142D01*
X122578857Y-92717904D01*
X122578857Y-92432190D01*
X122626476Y-92336952D01*
X122674095Y-92289333D01*
X122769333Y-92241714D01*
X122912190Y-92241714D01*
X123007428Y-92289333D01*
X123055047Y-92336952D01*
X123102666Y-92432190D01*
X123102666Y-92717904D01*
X123055047Y-92813142D01*
X123007428Y-92860761D01*
X122912190Y-92908380D01*
X122769333Y-92908380D01*
X123816952Y-91908380D02*
X123816952Y-92622666D01*
X123769333Y-92765523D01*
X123674095Y-92860761D01*
X123531238Y-92908380D01*
X123436000Y-92908380D01*
X124721714Y-92908380D02*
X124721714Y-92384571D01*
X124674095Y-92289333D01*
X124578857Y-92241714D01*
X124388380Y-92241714D01*
X124293142Y-92289333D01*
X124721714Y-92860761D02*
X124626476Y-92908380D01*
X124388380Y-92908380D01*
X124293142Y-92860761D01*
X124245523Y-92765523D01*
X124245523Y-92670285D01*
X124293142Y-92575047D01*
X124388380Y-92527428D01*
X124626476Y-92527428D01*
X124721714Y-92479809D01*
X125626476Y-92860761D02*
X125531238Y-92908380D01*
X125340761Y-92908380D01*
X125245523Y-92860761D01*
X125197904Y-92813142D01*
X125150285Y-92717904D01*
X125150285Y-92432190D01*
X125197904Y-92336952D01*
X125245523Y-92289333D01*
X125340761Y-92241714D01*
X125531238Y-92241714D01*
X125626476Y-92289333D01*
X126055047Y-92908380D02*
X126055047Y-91908380D01*
X126150285Y-92527428D02*
X126436000Y-92908380D01*
X126436000Y-92241714D02*
X126055047Y-92622666D01*
%TO.C,Relay*%
X127563619Y-127055714D02*
X128039809Y-126722380D01*
X127563619Y-126484285D02*
X128563619Y-126484285D01*
X128563619Y-126865238D01*
X128516000Y-126960476D01*
X128468380Y-127008095D01*
X128373142Y-127055714D01*
X128230285Y-127055714D01*
X128135047Y-127008095D01*
X128087428Y-126960476D01*
X128039809Y-126865238D01*
X128039809Y-126484285D01*
X127611238Y-127865238D02*
X127563619Y-127770000D01*
X127563619Y-127579523D01*
X127611238Y-127484285D01*
X127706476Y-127436666D01*
X128087428Y-127436666D01*
X128182666Y-127484285D01*
X128230285Y-127579523D01*
X128230285Y-127770000D01*
X128182666Y-127865238D01*
X128087428Y-127912857D01*
X127992190Y-127912857D01*
X127896952Y-127436666D01*
X127563619Y-128484285D02*
X127611238Y-128389047D01*
X127706476Y-128341428D01*
X128563619Y-128341428D01*
X127563619Y-129293809D02*
X128087428Y-129293809D01*
X128182666Y-129246190D01*
X128230285Y-129150952D01*
X128230285Y-128960476D01*
X128182666Y-128865238D01*
X127611238Y-129293809D02*
X127563619Y-129198571D01*
X127563619Y-128960476D01*
X127611238Y-128865238D01*
X127706476Y-128817619D01*
X127801714Y-128817619D01*
X127896952Y-128865238D01*
X127944571Y-128960476D01*
X127944571Y-129198571D01*
X127992190Y-129293809D01*
X128230285Y-129674761D02*
X127563619Y-129912857D01*
X128230285Y-130150952D02*
X127563619Y-129912857D01*
X127325523Y-129817619D01*
X127277904Y-129770000D01*
X127230285Y-129674761D01*
%TO.C,J4*%
X154900380Y-76533333D02*
X155614666Y-76533333D01*
X155757523Y-76580952D01*
X155852761Y-76676190D01*
X155900380Y-76819047D01*
X155900380Y-76914285D01*
X155233714Y-75628571D02*
X155900380Y-75628571D01*
X154852761Y-75866666D02*
X155567047Y-76104761D01*
X155567047Y-75485714D01*
%TO.C,J3*%
X183602380Y-89233333D02*
X184316666Y-89233333D01*
X184459523Y-89280952D01*
X184554761Y-89376190D01*
X184602380Y-89519047D01*
X184602380Y-89614285D01*
X183602380Y-88852380D02*
X183602380Y-88233333D01*
X183983333Y-88566666D01*
X183983333Y-88423809D01*
X184030952Y-88328571D01*
X184078571Y-88280952D01*
X184173809Y-88233333D01*
X184411904Y-88233333D01*
X184507142Y-88280952D01*
X184554761Y-88328571D01*
X184602380Y-88423809D01*
X184602380Y-88709523D01*
X184554761Y-88804761D01*
X184507142Y-88852380D01*
%TO.C,04*%
X167116190Y-129500380D02*
X167211428Y-129500380D01*
X167306666Y-129548000D01*
X167354285Y-129595619D01*
X167401904Y-129690857D01*
X167449523Y-129881333D01*
X167449523Y-130119428D01*
X167401904Y-130309904D01*
X167354285Y-130405142D01*
X167306666Y-130452761D01*
X167211428Y-130500380D01*
X167116190Y-130500380D01*
X167020952Y-130452761D01*
X166973333Y-130405142D01*
X166925714Y-130309904D01*
X166878095Y-130119428D01*
X166878095Y-129881333D01*
X166925714Y-129690857D01*
X166973333Y-129595619D01*
X167020952Y-129548000D01*
X167116190Y-129500380D01*
X168306666Y-129833714D02*
X168306666Y-130500380D01*
X168068571Y-129452761D02*
X167830476Y-130167047D01*
X168449523Y-130167047D01*
%TO.C,RST*%
X146772380Y-130500380D02*
X146439047Y-130024190D01*
X146200952Y-130500380D02*
X146200952Y-129500380D01*
X146581904Y-129500380D01*
X146677142Y-129548000D01*
X146724761Y-129595619D01*
X146772380Y-129690857D01*
X146772380Y-129833714D01*
X146724761Y-129928952D01*
X146677142Y-129976571D01*
X146581904Y-130024190D01*
X146200952Y-130024190D01*
X147153333Y-130452761D02*
X147296190Y-130500380D01*
X147534285Y-130500380D01*
X147629523Y-130452761D01*
X147677142Y-130405142D01*
X147724761Y-130309904D01*
X147724761Y-130214666D01*
X147677142Y-130119428D01*
X147629523Y-130071809D01*
X147534285Y-130024190D01*
X147343809Y-129976571D01*
X147248571Y-129928952D01*
X147200952Y-129881333D01*
X147153333Y-129786095D01*
X147153333Y-129690857D01*
X147200952Y-129595619D01*
X147248571Y-129548000D01*
X147343809Y-129500380D01*
X147581904Y-129500380D01*
X147724761Y-129548000D01*
X148010476Y-129500380D02*
X148581904Y-129500380D01*
X148296190Y-130500380D02*
X148296190Y-129500380D01*
%TO.C,IR LED*%
X119832380Y-102568095D02*
X118832380Y-102568095D01*
X119832380Y-101520476D02*
X119356190Y-101853809D01*
X119832380Y-102091904D02*
X118832380Y-102091904D01*
X118832380Y-101710952D01*
X118880000Y-101615714D01*
X118927619Y-101568095D01*
X119022857Y-101520476D01*
X119165714Y-101520476D01*
X119260952Y-101568095D01*
X119308571Y-101615714D01*
X119356190Y-101710952D01*
X119356190Y-102091904D01*
X119832380Y-99853809D02*
X119832380Y-100330000D01*
X118832380Y-100330000D01*
X119308571Y-99520476D02*
X119308571Y-99187142D01*
X119832380Y-99044285D02*
X119832380Y-99520476D01*
X118832380Y-99520476D01*
X118832380Y-99044285D01*
X119832380Y-98615714D02*
X118832380Y-98615714D01*
X118832380Y-98377619D01*
X118880000Y-98234761D01*
X118975238Y-98139523D01*
X119070476Y-98091904D01*
X119260952Y-98044285D01*
X119403809Y-98044285D01*
X119594285Y-98091904D01*
X119689523Y-98139523D01*
X119784761Y-98234761D01*
X119832380Y-98377619D01*
X119832380Y-98615714D01*
%TO.C,1N4001*%
X138827142Y-117292380D02*
X138255714Y-117292380D01*
X138541428Y-117292380D02*
X138541428Y-116292380D01*
X138446190Y-116435238D01*
X138350952Y-116530476D01*
X138255714Y-116578095D01*
X139255714Y-117292380D02*
X139255714Y-116292380D01*
X139827142Y-117292380D01*
X139827142Y-116292380D01*
X140731904Y-116625714D02*
X140731904Y-117292380D01*
X140493809Y-116244761D02*
X140255714Y-116959047D01*
X140874761Y-116959047D01*
X141446190Y-116292380D02*
X141541428Y-116292380D01*
X141636666Y-116340000D01*
X141684285Y-116387619D01*
X141731904Y-116482857D01*
X141779523Y-116673333D01*
X141779523Y-116911428D01*
X141731904Y-117101904D01*
X141684285Y-117197142D01*
X141636666Y-117244761D01*
X141541428Y-117292380D01*
X141446190Y-117292380D01*
X141350952Y-117244761D01*
X141303333Y-117197142D01*
X141255714Y-117101904D01*
X141208095Y-116911428D01*
X141208095Y-116673333D01*
X141255714Y-116482857D01*
X141303333Y-116387619D01*
X141350952Y-116340000D01*
X141446190Y-116292380D01*
X142398571Y-116292380D02*
X142493809Y-116292380D01*
X142589047Y-116340000D01*
X142636666Y-116387619D01*
X142684285Y-116482857D01*
X142731904Y-116673333D01*
X142731904Y-116911428D01*
X142684285Y-117101904D01*
X142636666Y-117197142D01*
X142589047Y-117244761D01*
X142493809Y-117292380D01*
X142398571Y-117292380D01*
X142303333Y-117244761D01*
X142255714Y-117197142D01*
X142208095Y-117101904D01*
X142160476Y-116911428D01*
X142160476Y-116673333D01*
X142208095Y-116482857D01*
X142255714Y-116387619D01*
X142303333Y-116340000D01*
X142398571Y-116292380D01*
X143684285Y-117292380D02*
X143112857Y-117292380D01*
X143398571Y-117292380D02*
X143398571Y-116292380D01*
X143303333Y-116435238D01*
X143208095Y-116530476D01*
X143112857Y-116578095D01*
X141621142Y-119324380D02*
X141049714Y-119324380D01*
X141335428Y-119324380D02*
X141335428Y-118324380D01*
X141240190Y-118467238D01*
X141144952Y-118562476D01*
X141049714Y-118610095D01*
X142049714Y-119324380D02*
X142049714Y-118324380D01*
X142621142Y-119324380D01*
X142621142Y-118324380D01*
X143525904Y-118657714D02*
X143525904Y-119324380D01*
X143287809Y-118276761D02*
X143049714Y-118991047D01*
X143668761Y-118991047D01*
X144240190Y-118324380D02*
X144335428Y-118324380D01*
X144430666Y-118372000D01*
X144478285Y-118419619D01*
X144525904Y-118514857D01*
X144573523Y-118705333D01*
X144573523Y-118943428D01*
X144525904Y-119133904D01*
X144478285Y-119229142D01*
X144430666Y-119276761D01*
X144335428Y-119324380D01*
X144240190Y-119324380D01*
X144144952Y-119276761D01*
X144097333Y-119229142D01*
X144049714Y-119133904D01*
X144002095Y-118943428D01*
X144002095Y-118705333D01*
X144049714Y-118514857D01*
X144097333Y-118419619D01*
X144144952Y-118372000D01*
X144240190Y-118324380D01*
X145192571Y-118324380D02*
X145287809Y-118324380D01*
X145383047Y-118372000D01*
X145430666Y-118419619D01*
X145478285Y-118514857D01*
X145525904Y-118705333D01*
X145525904Y-118943428D01*
X145478285Y-119133904D01*
X145430666Y-119229142D01*
X145383047Y-119276761D01*
X145287809Y-119324380D01*
X145192571Y-119324380D01*
X145097333Y-119276761D01*
X145049714Y-119229142D01*
X145002095Y-119133904D01*
X144954476Y-118943428D01*
X144954476Y-118705333D01*
X145002095Y-118514857D01*
X145049714Y-118419619D01*
X145097333Y-118372000D01*
X145192571Y-118324380D01*
X146478285Y-119324380D02*
X145906857Y-119324380D01*
X146192571Y-119324380D02*
X146192571Y-118324380D01*
X146097333Y-118467238D01*
X146002095Y-118562476D01*
X145906857Y-118610095D01*
X131818095Y-139517380D02*
X131818095Y-138517380D01*
X132389523Y-139517380D02*
X131960952Y-138945952D01*
X132389523Y-138517380D02*
X131818095Y-139088809D01*
%TO.C,LED2*%
X182316380Y-110339047D02*
X182316380Y-110815238D01*
X181316380Y-110815238D01*
X181792571Y-110005714D02*
X181792571Y-109672380D01*
X182316380Y-109529523D02*
X182316380Y-110005714D01*
X181316380Y-110005714D01*
X181316380Y-109529523D01*
X182316380Y-109100952D02*
X181316380Y-109100952D01*
X181316380Y-108862857D01*
X181364000Y-108720000D01*
X181459238Y-108624761D01*
X181554476Y-108577142D01*
X181744952Y-108529523D01*
X181887809Y-108529523D01*
X182078285Y-108577142D01*
X182173523Y-108624761D01*
X182268761Y-108720000D01*
X182316380Y-108862857D01*
X182316380Y-109100952D01*
X181411619Y-108148571D02*
X181364000Y-108100952D01*
X181316380Y-108005714D01*
X181316380Y-107767619D01*
X181364000Y-107672380D01*
X181411619Y-107624761D01*
X181506857Y-107577142D01*
X181602095Y-107577142D01*
X181744952Y-107624761D01*
X182316380Y-108196190D01*
X182316380Y-107577142D01*
%TO.C,LED1*%
X182316380Y-115419047D02*
X182316380Y-115895238D01*
X181316380Y-115895238D01*
X181792571Y-115085714D02*
X181792571Y-114752380D01*
X182316380Y-114609523D02*
X182316380Y-115085714D01*
X181316380Y-115085714D01*
X181316380Y-114609523D01*
X182316380Y-114180952D02*
X181316380Y-114180952D01*
X181316380Y-113942857D01*
X181364000Y-113800000D01*
X181459238Y-113704761D01*
X181554476Y-113657142D01*
X181744952Y-113609523D01*
X181887809Y-113609523D01*
X182078285Y-113657142D01*
X182173523Y-113704761D01*
X182268761Y-113800000D01*
X182316380Y-113942857D01*
X182316380Y-114180952D01*
X182316380Y-112657142D02*
X182316380Y-113228571D01*
X182316380Y-112942857D02*
X181316380Y-112942857D01*
X181459238Y-113038095D01*
X181554476Y-113133333D01*
X181602095Y-113228571D01*
%TO.C,22uF*%
X137057142Y-122991619D02*
X137104761Y-122944000D01*
X137200000Y-122896380D01*
X137438095Y-122896380D01*
X137533333Y-122944000D01*
X137580952Y-122991619D01*
X137628571Y-123086857D01*
X137628571Y-123182095D01*
X137580952Y-123324952D01*
X137009523Y-123896380D01*
X137628571Y-123896380D01*
X138009523Y-122991619D02*
X138057142Y-122944000D01*
X138152380Y-122896380D01*
X138390476Y-122896380D01*
X138485714Y-122944000D01*
X138533333Y-122991619D01*
X138580952Y-123086857D01*
X138580952Y-123182095D01*
X138533333Y-123324952D01*
X137961904Y-123896380D01*
X138580952Y-123896380D01*
X139438095Y-123229714D02*
X139438095Y-123896380D01*
X139009523Y-123229714D02*
X139009523Y-123753523D01*
X139057142Y-123848761D01*
X139152380Y-123896380D01*
X139295238Y-123896380D01*
X139390476Y-123848761D01*
X139438095Y-123801142D01*
X140247619Y-123372571D02*
X139914285Y-123372571D01*
X139914285Y-123896380D02*
X139914285Y-122896380D01*
X140390476Y-122896380D01*
%TD*%
M02*
