%TF.GenerationSoftware,KiCad,Pcbnew,(5.1.12)-1*%
%TF.CreationDate,2022-07-01T18:07:02+09:00*%
%TF.ProjectId,WemosD1Shield,57656d6f-7344-4315-9368-69656c642e6b,rev?*%
%TF.SameCoordinates,Original*%
%TF.FileFunction,Legend,Bot*%
%TF.FilePolarity,Positive*%
%FSLAX46Y46*%
G04 Gerber Fmt 4.6, Leading zero omitted, Abs format (unit mm)*
G04 Created by KiCad (PCBNEW (5.1.12)-1) date 2022-07-01 18:07:02*
%MOMM*%
%LPD*%
G01*
G04 APERTURE LIST*
%ADD10C,0.150000*%
%ADD11C,0.120000*%
%ADD12C,0.114000*%
%ADD13C,0.091200*%
G04 APERTURE END LIST*
D10*
X179887619Y-115570095D02*
X179840000Y-115617714D01*
X179792380Y-115712952D01*
X179792380Y-115951047D01*
X179840000Y-116046285D01*
X179887619Y-116093904D01*
X179982857Y-116141523D01*
X180078095Y-116141523D01*
X180220952Y-116093904D01*
X180792380Y-115522476D01*
X180792380Y-116141523D01*
X179792380Y-116998666D02*
X179792380Y-116808190D01*
X179840000Y-116712952D01*
X179887619Y-116665333D01*
X180030476Y-116570095D01*
X180220952Y-116522476D01*
X180601904Y-116522476D01*
X180697142Y-116570095D01*
X180744761Y-116617714D01*
X180792380Y-116712952D01*
X180792380Y-116903428D01*
X180744761Y-116998666D01*
X180697142Y-117046285D01*
X180601904Y-117093904D01*
X180363809Y-117093904D01*
X180268571Y-117046285D01*
X180220952Y-116998666D01*
X180173333Y-116903428D01*
X180173333Y-116712952D01*
X180220952Y-116617714D01*
X180268571Y-116570095D01*
X180363809Y-116522476D01*
X179887619Y-106426095D02*
X179840000Y-106473714D01*
X179792380Y-106568952D01*
X179792380Y-106807047D01*
X179840000Y-106902285D01*
X179887619Y-106949904D01*
X179982857Y-106997523D01*
X180078095Y-106997523D01*
X180220952Y-106949904D01*
X180792380Y-106378476D01*
X180792380Y-106997523D01*
X179792380Y-107902285D02*
X179792380Y-107426095D01*
X180268571Y-107378476D01*
X180220952Y-107426095D01*
X180173333Y-107521333D01*
X180173333Y-107759428D01*
X180220952Y-107854666D01*
X180268571Y-107902285D01*
X180363809Y-107949904D01*
X180601904Y-107949904D01*
X180697142Y-107902285D01*
X180744761Y-107854666D01*
X180792380Y-107759428D01*
X180792380Y-107521333D01*
X180744761Y-107426095D01*
X180697142Y-107378476D01*
X162750476Y-97988380D02*
X163321904Y-97988380D01*
X163036190Y-97988380D02*
X163036190Y-96988380D01*
X163131428Y-97131238D01*
X163226666Y-97226476D01*
X163321904Y-97274095D01*
X161893333Y-96988380D02*
X162083809Y-96988380D01*
X162179047Y-97036000D01*
X162226666Y-97083619D01*
X162321904Y-97226476D01*
X162369523Y-97416952D01*
X162369523Y-97797904D01*
X162321904Y-97893142D01*
X162274285Y-97940761D01*
X162179047Y-97988380D01*
X161988571Y-97988380D01*
X161893333Y-97940761D01*
X161845714Y-97893142D01*
X161798095Y-97797904D01*
X161798095Y-97559809D01*
X161845714Y-97464571D01*
X161893333Y-97416952D01*
X161988571Y-97369333D01*
X162179047Y-97369333D01*
X162274285Y-97416952D01*
X162321904Y-97464571D01*
X162369523Y-97559809D01*
X165290476Y-97988380D02*
X165861904Y-97988380D01*
X165576190Y-97988380D02*
X165576190Y-96988380D01*
X165671428Y-97131238D01*
X165766666Y-97226476D01*
X165861904Y-97274095D01*
X164957142Y-96988380D02*
X164290476Y-96988380D01*
X164719047Y-97988380D01*
X130548000Y-125221904D02*
X130595619Y-125317142D01*
X130595619Y-125460000D01*
X130548000Y-125602857D01*
X130452761Y-125698095D01*
X130357523Y-125745714D01*
X130167047Y-125793333D01*
X130024190Y-125793333D01*
X129833714Y-125745714D01*
X129738476Y-125698095D01*
X129643238Y-125602857D01*
X129595619Y-125460000D01*
X129595619Y-125364761D01*
X129643238Y-125221904D01*
X129690857Y-125174285D01*
X130024190Y-125174285D01*
X130024190Y-125364761D01*
X129595619Y-124745714D02*
X130595619Y-124745714D01*
X129595619Y-124174285D01*
X130595619Y-124174285D01*
X129595619Y-123698095D02*
X130595619Y-123698095D01*
X130595619Y-123460000D01*
X130548000Y-123317142D01*
X130452761Y-123221904D01*
X130357523Y-123174285D01*
X130167047Y-123126666D01*
X130024190Y-123126666D01*
X129833714Y-123174285D01*
X129738476Y-123221904D01*
X129643238Y-123317142D01*
X129595619Y-123460000D01*
X129595619Y-123698095D01*
X130595619Y-133413333D02*
X129595619Y-133080000D01*
X130595619Y-132746666D01*
X129690857Y-131841904D02*
X129643238Y-131889523D01*
X129595619Y-132032380D01*
X129595619Y-132127619D01*
X129643238Y-132270476D01*
X129738476Y-132365714D01*
X129833714Y-132413333D01*
X130024190Y-132460952D01*
X130167047Y-132460952D01*
X130357523Y-132413333D01*
X130452761Y-132365714D01*
X130548000Y-132270476D01*
X130595619Y-132127619D01*
X130595619Y-132032380D01*
X130548000Y-131889523D01*
X130500380Y-131841904D01*
X129690857Y-130841904D02*
X129643238Y-130889523D01*
X129595619Y-131032380D01*
X129595619Y-131127619D01*
X129643238Y-131270476D01*
X129738476Y-131365714D01*
X129833714Y-131413333D01*
X130024190Y-131460952D01*
X130167047Y-131460952D01*
X130357523Y-131413333D01*
X130452761Y-131365714D01*
X130548000Y-131270476D01*
X130595619Y-131127619D01*
X130595619Y-131032380D01*
X130548000Y-130889523D01*
X130500380Y-130841904D01*
X129595619Y-127190476D02*
X129595619Y-127761904D01*
X129595619Y-127476190D02*
X130595619Y-127476190D01*
X130452761Y-127571428D01*
X130357523Y-127666666D01*
X130309904Y-127761904D01*
X130500380Y-126809523D02*
X130548000Y-126761904D01*
X130595619Y-126666666D01*
X130595619Y-126428571D01*
X130548000Y-126333333D01*
X130500380Y-126285714D01*
X130405142Y-126238095D01*
X130309904Y-126238095D01*
X130167047Y-126285714D01*
X129595619Y-126857142D01*
X129595619Y-126238095D01*
X129595619Y-129730476D02*
X129595619Y-130301904D01*
X129595619Y-130016190D02*
X130595619Y-130016190D01*
X130452761Y-130111428D01*
X130357523Y-130206666D01*
X130309904Y-130301904D01*
X130595619Y-129397142D02*
X130595619Y-128778095D01*
X130214666Y-129111428D01*
X130214666Y-128968571D01*
X130167047Y-128873333D01*
X130119428Y-128825714D01*
X130024190Y-128778095D01*
X129786095Y-128778095D01*
X129690857Y-128825714D01*
X129643238Y-128873333D01*
X129595619Y-128968571D01*
X129595619Y-129254285D01*
X129643238Y-129349523D01*
X129690857Y-129397142D01*
X129595619Y-117030476D02*
X129595619Y-117601904D01*
X129595619Y-117316190D02*
X130595619Y-117316190D01*
X130452761Y-117411428D01*
X130357523Y-117506666D01*
X130309904Y-117601904D01*
X130262285Y-116173333D02*
X129595619Y-116173333D01*
X130643238Y-116411428D02*
X129928952Y-116649523D01*
X129928952Y-116030476D01*
X130548000Y-120141904D02*
X130595619Y-120237142D01*
X130595619Y-120380000D01*
X130548000Y-120522857D01*
X130452761Y-120618095D01*
X130357523Y-120665714D01*
X130167047Y-120713333D01*
X130024190Y-120713333D01*
X129833714Y-120665714D01*
X129738476Y-120618095D01*
X129643238Y-120522857D01*
X129595619Y-120380000D01*
X129595619Y-120284761D01*
X129643238Y-120141904D01*
X129690857Y-120094285D01*
X130024190Y-120094285D01*
X130024190Y-120284761D01*
X129595619Y-119665714D02*
X130595619Y-119665714D01*
X129595619Y-119094285D01*
X130595619Y-119094285D01*
X129595619Y-118618095D02*
X130595619Y-118618095D01*
X130595619Y-118380000D01*
X130548000Y-118237142D01*
X130452761Y-118141904D01*
X130357523Y-118094285D01*
X130167047Y-118046666D01*
X130024190Y-118046666D01*
X129833714Y-118094285D01*
X129738476Y-118141904D01*
X129643238Y-118237142D01*
X129595619Y-118380000D01*
X129595619Y-118618095D01*
X130595619Y-115633333D02*
X129595619Y-115300000D01*
X130595619Y-114966666D01*
X129690857Y-114061904D02*
X129643238Y-114109523D01*
X129595619Y-114252380D01*
X129595619Y-114347619D01*
X129643238Y-114490476D01*
X129738476Y-114585714D01*
X129833714Y-114633333D01*
X130024190Y-114680952D01*
X130167047Y-114680952D01*
X130357523Y-114633333D01*
X130452761Y-114585714D01*
X130548000Y-114490476D01*
X130595619Y-114347619D01*
X130595619Y-114252380D01*
X130548000Y-114109523D01*
X130500380Y-114061904D01*
X129690857Y-113061904D02*
X129643238Y-113109523D01*
X129595619Y-113252380D01*
X129595619Y-113347619D01*
X129643238Y-113490476D01*
X129738476Y-113585714D01*
X129833714Y-113633333D01*
X130024190Y-113680952D01*
X130167047Y-113680952D01*
X130357523Y-113633333D01*
X130452761Y-113585714D01*
X130548000Y-113490476D01*
X130595619Y-113347619D01*
X130595619Y-113252380D01*
X130548000Y-113109523D01*
X130500380Y-113061904D01*
X169481333Y-125944380D02*
X169148000Y-126944380D01*
X168814666Y-125944380D01*
X167909904Y-126849142D02*
X167957523Y-126896761D01*
X168100380Y-126944380D01*
X168195619Y-126944380D01*
X168338476Y-126896761D01*
X168433714Y-126801523D01*
X168481333Y-126706285D01*
X168528952Y-126515809D01*
X168528952Y-126372952D01*
X168481333Y-126182476D01*
X168433714Y-126087238D01*
X168338476Y-125992000D01*
X168195619Y-125944380D01*
X168100380Y-125944380D01*
X167957523Y-125992000D01*
X167909904Y-126039619D01*
X166909904Y-126849142D02*
X166957523Y-126896761D01*
X167100380Y-126944380D01*
X167195619Y-126944380D01*
X167338476Y-126896761D01*
X167433714Y-126801523D01*
X167481333Y-126706285D01*
X167528952Y-126515809D01*
X167528952Y-126372952D01*
X167481333Y-126182476D01*
X167433714Y-126087238D01*
X167338476Y-125992000D01*
X167195619Y-125944380D01*
X167100380Y-125944380D01*
X166957523Y-125992000D01*
X166909904Y-126039619D01*
X165861904Y-125992000D02*
X165957142Y-125944380D01*
X166100000Y-125944380D01*
X166242857Y-125992000D01*
X166338095Y-126087238D01*
X166385714Y-126182476D01*
X166433333Y-126372952D01*
X166433333Y-126515809D01*
X166385714Y-126706285D01*
X166338095Y-126801523D01*
X166242857Y-126896761D01*
X166100000Y-126944380D01*
X166004761Y-126944380D01*
X165861904Y-126896761D01*
X165814285Y-126849142D01*
X165814285Y-126515809D01*
X166004761Y-126515809D01*
X165385714Y-126944380D02*
X165385714Y-125944380D01*
X164814285Y-126944380D01*
X164814285Y-125944380D01*
X164338095Y-126944380D02*
X164338095Y-125944380D01*
X164100000Y-125944380D01*
X163957142Y-125992000D01*
X163861904Y-126087238D01*
X163814285Y-126182476D01*
X163766666Y-126372952D01*
X163766666Y-126515809D01*
X163814285Y-126706285D01*
X163861904Y-126801523D01*
X163957142Y-126896761D01*
X164100000Y-126944380D01*
X164338095Y-126944380D01*
X148788380Y-90884571D02*
X147788380Y-90884571D01*
X148502666Y-91217904D01*
X147788380Y-91551238D01*
X148788380Y-91551238D01*
X147788380Y-92217904D02*
X147788380Y-92408380D01*
X147836000Y-92503619D01*
X147931238Y-92598857D01*
X148121714Y-92646476D01*
X148455047Y-92646476D01*
X148645523Y-92598857D01*
X148740761Y-92503619D01*
X148788380Y-92408380D01*
X148788380Y-92217904D01*
X148740761Y-92122666D01*
X148645523Y-92027428D01*
X148455047Y-91979809D01*
X148121714Y-91979809D01*
X147931238Y-92027428D01*
X147836000Y-92122666D01*
X147788380Y-92217904D01*
X148740761Y-93027428D02*
X148788380Y-93170285D01*
X148788380Y-93408380D01*
X148740761Y-93503619D01*
X148693142Y-93551238D01*
X148597904Y-93598857D01*
X148502666Y-93598857D01*
X148407428Y-93551238D01*
X148359809Y-93503619D01*
X148312190Y-93408380D01*
X148264571Y-93217904D01*
X148216952Y-93122666D01*
X148169333Y-93075047D01*
X148074095Y-93027428D01*
X147978857Y-93027428D01*
X147883619Y-93075047D01*
X147836000Y-93122666D01*
X147788380Y-93217904D01*
X147788380Y-93456000D01*
X147836000Y-93598857D01*
X148788380Y-94027428D02*
X147788380Y-94027428D01*
X143660761Y-90662285D02*
X143708380Y-90805142D01*
X143708380Y-91043238D01*
X143660761Y-91138476D01*
X143613142Y-91186095D01*
X143517904Y-91233714D01*
X143422666Y-91233714D01*
X143327428Y-91186095D01*
X143279809Y-91138476D01*
X143232190Y-91043238D01*
X143184571Y-90852761D01*
X143136952Y-90757523D01*
X143089333Y-90709904D01*
X142994095Y-90662285D01*
X142898857Y-90662285D01*
X142803619Y-90709904D01*
X142756000Y-90757523D01*
X142708380Y-90852761D01*
X142708380Y-91090857D01*
X142756000Y-91233714D01*
X143613142Y-92233714D02*
X143660761Y-92186095D01*
X143708380Y-92043238D01*
X143708380Y-91948000D01*
X143660761Y-91805142D01*
X143565523Y-91709904D01*
X143470285Y-91662285D01*
X143279809Y-91614666D01*
X143136952Y-91614666D01*
X142946476Y-91662285D01*
X142851238Y-91709904D01*
X142756000Y-91805142D01*
X142708380Y-91948000D01*
X142708380Y-92043238D01*
X142756000Y-92186095D01*
X142803619Y-92233714D01*
X143708380Y-92662285D02*
X142708380Y-92662285D01*
X143708380Y-93233714D02*
X143136952Y-92805142D01*
X142708380Y-93233714D02*
X143279809Y-92662285D01*
X146248380Y-90884571D02*
X145248380Y-90884571D01*
X145962666Y-91217904D01*
X145248380Y-91551238D01*
X146248380Y-91551238D01*
X146248380Y-92027428D02*
X145248380Y-92027428D01*
X146200761Y-92456000D02*
X146248380Y-92598857D01*
X146248380Y-92836952D01*
X146200761Y-92932190D01*
X146153142Y-92979809D01*
X146057904Y-93027428D01*
X145962666Y-93027428D01*
X145867428Y-92979809D01*
X145819809Y-92932190D01*
X145772190Y-92836952D01*
X145724571Y-92646476D01*
X145676952Y-92551238D01*
X145629333Y-92503619D01*
X145534095Y-92456000D01*
X145438857Y-92456000D01*
X145343619Y-92503619D01*
X145296000Y-92551238D01*
X145248380Y-92646476D01*
X145248380Y-92884571D01*
X145296000Y-93027428D01*
X145248380Y-93646476D02*
X145248380Y-93836952D01*
X145296000Y-93932190D01*
X145391238Y-94027428D01*
X145581714Y-94075047D01*
X145915047Y-94075047D01*
X146105523Y-94027428D01*
X146200761Y-93932190D01*
X146248380Y-93836952D01*
X146248380Y-93646476D01*
X146200761Y-93551238D01*
X146105523Y-93456000D01*
X145915047Y-93408380D01*
X145581714Y-93408380D01*
X145391238Y-93456000D01*
X145296000Y-93551238D01*
X145248380Y-93646476D01*
X151280761Y-90678095D02*
X151328380Y-90820952D01*
X151328380Y-91059047D01*
X151280761Y-91154285D01*
X151233142Y-91201904D01*
X151137904Y-91249523D01*
X151042666Y-91249523D01*
X150947428Y-91201904D01*
X150899809Y-91154285D01*
X150852190Y-91059047D01*
X150804571Y-90868571D01*
X150756952Y-90773333D01*
X150709333Y-90725714D01*
X150614095Y-90678095D01*
X150518857Y-90678095D01*
X150423619Y-90725714D01*
X150376000Y-90773333D01*
X150328380Y-90868571D01*
X150328380Y-91106666D01*
X150376000Y-91249523D01*
X151280761Y-91630476D02*
X151328380Y-91773333D01*
X151328380Y-92011428D01*
X151280761Y-92106666D01*
X151233142Y-92154285D01*
X151137904Y-92201904D01*
X151042666Y-92201904D01*
X150947428Y-92154285D01*
X150899809Y-92106666D01*
X150852190Y-92011428D01*
X150804571Y-91820952D01*
X150756952Y-91725714D01*
X150709333Y-91678095D01*
X150614095Y-91630476D01*
X150518857Y-91630476D01*
X150423619Y-91678095D01*
X150376000Y-91725714D01*
X150328380Y-91820952D01*
X150328380Y-92059047D01*
X150376000Y-92201904D01*
X178434476Y-130214666D02*
X177958285Y-130214666D01*
X178529714Y-130500380D02*
X178196380Y-129500380D01*
X177863047Y-130500380D01*
X177529714Y-129833714D02*
X177529714Y-130500380D01*
X177529714Y-129928952D02*
X177482095Y-129881333D01*
X177386857Y-129833714D01*
X177244000Y-129833714D01*
X177148761Y-129881333D01*
X177101142Y-129976571D01*
X177101142Y-130500380D01*
X176196380Y-130500380D02*
X176196380Y-129976571D01*
X176244000Y-129881333D01*
X176339238Y-129833714D01*
X176529714Y-129833714D01*
X176624952Y-129881333D01*
X176196380Y-130452761D02*
X176291619Y-130500380D01*
X176529714Y-130500380D01*
X176624952Y-130452761D01*
X176672571Y-130357523D01*
X176672571Y-130262285D01*
X176624952Y-130167047D01*
X176529714Y-130119428D01*
X176291619Y-130119428D01*
X176196380Y-130071809D01*
X175577333Y-130500380D02*
X175672571Y-130452761D01*
X175720190Y-130357523D01*
X175720190Y-129500380D01*
X175053523Y-130500380D02*
X175148761Y-130452761D01*
X175196380Y-130405142D01*
X175244000Y-130309904D01*
X175244000Y-130024190D01*
X175196380Y-129928952D01*
X175148761Y-129881333D01*
X175053523Y-129833714D01*
X174910666Y-129833714D01*
X174815428Y-129881333D01*
X174767809Y-129928952D01*
X174720190Y-130024190D01*
X174720190Y-130309904D01*
X174767809Y-130405142D01*
X174815428Y-130452761D01*
X174910666Y-130500380D01*
X175053523Y-130500380D01*
X173863047Y-129833714D02*
X173863047Y-130643238D01*
X173910666Y-130738476D01*
X173958285Y-130786095D01*
X174053523Y-130833714D01*
X174196380Y-130833714D01*
X174291619Y-130786095D01*
X173863047Y-130452761D02*
X173958285Y-130500380D01*
X174148761Y-130500380D01*
X174244000Y-130452761D01*
X174291619Y-130405142D01*
X174339238Y-130309904D01*
X174339238Y-130024190D01*
X174291619Y-129928952D01*
X174244000Y-129881333D01*
X174148761Y-129833714D01*
X173958285Y-129833714D01*
X173863047Y-129881333D01*
X173386857Y-130500380D02*
X173386857Y-129500380D01*
X172910666Y-129833714D02*
X172910666Y-130500380D01*
X172910666Y-129928952D02*
X172863047Y-129881333D01*
X172767809Y-129833714D01*
X172624952Y-129833714D01*
X172529714Y-129881333D01*
X172482095Y-129976571D01*
X172482095Y-130500380D01*
X172005904Y-129833714D02*
X172005904Y-130833714D01*
X172005904Y-129881333D02*
X171910666Y-129833714D01*
X171720190Y-129833714D01*
X171624952Y-129881333D01*
X171577333Y-129928952D01*
X171529714Y-130024190D01*
X171529714Y-130309904D01*
X171577333Y-130405142D01*
X171624952Y-130452761D01*
X171720190Y-130500380D01*
X171910666Y-130500380D01*
X172005904Y-130452761D01*
X170672571Y-129833714D02*
X170672571Y-130500380D01*
X171101142Y-129833714D02*
X171101142Y-130357523D01*
X171053523Y-130452761D01*
X170958285Y-130500380D01*
X170815428Y-130500380D01*
X170720190Y-130452761D01*
X170672571Y-130405142D01*
X170339238Y-129833714D02*
X169958285Y-129833714D01*
X170196380Y-129500380D02*
X170196380Y-130357523D01*
X170148761Y-130452761D01*
X170053523Y-130500380D01*
X169958285Y-130500380D01*
X178609523Y-135596380D02*
X177990476Y-135596380D01*
X178323809Y-135977333D01*
X178180952Y-135977333D01*
X178085714Y-136024952D01*
X178038095Y-136072571D01*
X177990476Y-136167809D01*
X177990476Y-136405904D01*
X178038095Y-136501142D01*
X178085714Y-136548761D01*
X178180952Y-136596380D01*
X178466666Y-136596380D01*
X178561904Y-136548761D01*
X178609523Y-136501142D01*
X177514285Y-136596380D02*
X177323809Y-136596380D01*
X177228571Y-136548761D01*
X177180952Y-136501142D01*
X177085714Y-136358285D01*
X177038095Y-136167809D01*
X177038095Y-135786857D01*
X177085714Y-135691619D01*
X177133333Y-135644000D01*
X177228571Y-135596380D01*
X177419047Y-135596380D01*
X177514285Y-135644000D01*
X177561904Y-135691619D01*
X177609523Y-135786857D01*
X177609523Y-136024952D01*
X177561904Y-136120190D01*
X177514285Y-136167809D01*
X177419047Y-136215428D01*
X177228571Y-136215428D01*
X177133333Y-136167809D01*
X177085714Y-136120190D01*
X177038095Y-136024952D01*
X173529523Y-135596380D02*
X172910476Y-135596380D01*
X173243809Y-135977333D01*
X173100952Y-135977333D01*
X173005714Y-136024952D01*
X172958095Y-136072571D01*
X172910476Y-136167809D01*
X172910476Y-136405904D01*
X172958095Y-136501142D01*
X173005714Y-136548761D01*
X173100952Y-136596380D01*
X173386666Y-136596380D01*
X173481904Y-136548761D01*
X173529523Y-136501142D01*
X172053333Y-135929714D02*
X172053333Y-136596380D01*
X172291428Y-135548761D02*
X172529523Y-136263047D01*
X171910476Y-136263047D01*
X170989523Y-135596380D02*
X170370476Y-135596380D01*
X170703809Y-135977333D01*
X170560952Y-135977333D01*
X170465714Y-136024952D01*
X170418095Y-136072571D01*
X170370476Y-136167809D01*
X170370476Y-136405904D01*
X170418095Y-136501142D01*
X170465714Y-136548761D01*
X170560952Y-136596380D01*
X170846666Y-136596380D01*
X170941904Y-136548761D01*
X170989523Y-136501142D01*
X169465714Y-135596380D02*
X169941904Y-135596380D01*
X169989523Y-136072571D01*
X169941904Y-136024952D01*
X169846666Y-135977333D01*
X169608571Y-135977333D01*
X169513333Y-136024952D01*
X169465714Y-136072571D01*
X169418095Y-136167809D01*
X169418095Y-136405904D01*
X169465714Y-136501142D01*
X169513333Y-136548761D01*
X169608571Y-136596380D01*
X169846666Y-136596380D01*
X169941904Y-136548761D01*
X169989523Y-136501142D01*
X176069523Y-135596380D02*
X175450476Y-135596380D01*
X175783809Y-135977333D01*
X175640952Y-135977333D01*
X175545714Y-136024952D01*
X175498095Y-136072571D01*
X175450476Y-136167809D01*
X175450476Y-136405904D01*
X175498095Y-136501142D01*
X175545714Y-136548761D01*
X175640952Y-136596380D01*
X175926666Y-136596380D01*
X176021904Y-136548761D01*
X176069523Y-136501142D01*
X174593333Y-135596380D02*
X174783809Y-135596380D01*
X174879047Y-135644000D01*
X174926666Y-135691619D01*
X175021904Y-135834476D01*
X175069523Y-136024952D01*
X175069523Y-136405904D01*
X175021904Y-136501142D01*
X174974285Y-136548761D01*
X174879047Y-136596380D01*
X174688571Y-136596380D01*
X174593333Y-136548761D01*
X174545714Y-136501142D01*
X174498095Y-136405904D01*
X174498095Y-136167809D01*
X174545714Y-136072571D01*
X174593333Y-136024952D01*
X174688571Y-135977333D01*
X174879047Y-135977333D01*
X174974285Y-136024952D01*
X175021904Y-136072571D01*
X175069523Y-136167809D01*
X165623809Y-135596380D02*
X165528571Y-135596380D01*
X165433333Y-135644000D01*
X165385714Y-135691619D01*
X165338095Y-135786857D01*
X165290476Y-135977333D01*
X165290476Y-136215428D01*
X165338095Y-136405904D01*
X165385714Y-136501142D01*
X165433333Y-136548761D01*
X165528571Y-136596380D01*
X165623809Y-136596380D01*
X165719047Y-136548761D01*
X165766666Y-136501142D01*
X165814285Y-136405904D01*
X165861904Y-136215428D01*
X165861904Y-135977333D01*
X165814285Y-135786857D01*
X165766666Y-135691619D01*
X165719047Y-135644000D01*
X165623809Y-135596380D01*
X164909523Y-135691619D02*
X164861904Y-135644000D01*
X164766666Y-135596380D01*
X164528571Y-135596380D01*
X164433333Y-135644000D01*
X164385714Y-135691619D01*
X164338095Y-135786857D01*
X164338095Y-135882095D01*
X164385714Y-136024952D01*
X164957142Y-136596380D01*
X164338095Y-136596380D01*
X168163809Y-135596380D02*
X168068571Y-135596380D01*
X167973333Y-135644000D01*
X167925714Y-135691619D01*
X167878095Y-135786857D01*
X167830476Y-135977333D01*
X167830476Y-136215428D01*
X167878095Y-136405904D01*
X167925714Y-136501142D01*
X167973333Y-136548761D01*
X168068571Y-136596380D01*
X168163809Y-136596380D01*
X168259047Y-136548761D01*
X168306666Y-136501142D01*
X168354285Y-136405904D01*
X168401904Y-136215428D01*
X168401904Y-135977333D01*
X168354285Y-135786857D01*
X168306666Y-135691619D01*
X168259047Y-135644000D01*
X168163809Y-135596380D01*
X166973333Y-135929714D02*
X166973333Y-136596380D01*
X167211428Y-135548761D02*
X167449523Y-136263047D01*
X166830476Y-136263047D01*
X151606095Y-135596380D02*
X150987047Y-135596380D01*
X151320380Y-135977333D01*
X151177523Y-135977333D01*
X151082285Y-136024952D01*
X151034666Y-136072571D01*
X150987047Y-136167809D01*
X150987047Y-136405904D01*
X151034666Y-136501142D01*
X151082285Y-136548761D01*
X151177523Y-136596380D01*
X151463238Y-136596380D01*
X151558476Y-136548761D01*
X151606095Y-136501142D01*
X150701333Y-135596380D02*
X150368000Y-136596380D01*
X150034666Y-135596380D01*
X149796571Y-135596380D02*
X149177523Y-135596380D01*
X149510857Y-135977333D01*
X149368000Y-135977333D01*
X149272761Y-136024952D01*
X149225142Y-136072571D01*
X149177523Y-136167809D01*
X149177523Y-136405904D01*
X149225142Y-136501142D01*
X149272761Y-136548761D01*
X149368000Y-136596380D01*
X149653714Y-136596380D01*
X149748952Y-136548761D01*
X149796571Y-136501142D01*
X153098476Y-135596380D02*
X153574666Y-135596380D01*
X153622285Y-136072571D01*
X153574666Y-136024952D01*
X153479428Y-135977333D01*
X153241333Y-135977333D01*
X153146095Y-136024952D01*
X153098476Y-136072571D01*
X153050857Y-136167809D01*
X153050857Y-136405904D01*
X153098476Y-136501142D01*
X153146095Y-136548761D01*
X153241333Y-136596380D01*
X153479428Y-136596380D01*
X153574666Y-136548761D01*
X153622285Y-136501142D01*
X152765142Y-135596380D02*
X152431809Y-136596380D01*
X152098476Y-135596380D01*
X144970476Y-135596380D02*
X145446666Y-135596380D01*
X145494285Y-136072571D01*
X145446666Y-136024952D01*
X145351428Y-135977333D01*
X145113333Y-135977333D01*
X145018095Y-136024952D01*
X144970476Y-136072571D01*
X144922857Y-136167809D01*
X144922857Y-136405904D01*
X144970476Y-136501142D01*
X145018095Y-136548761D01*
X145113333Y-136596380D01*
X145351428Y-136596380D01*
X145446666Y-136548761D01*
X145494285Y-136501142D01*
X144637142Y-135596380D02*
X144303809Y-136596380D01*
X143970476Y-135596380D01*
X157225904Y-135644000D02*
X157321142Y-135596380D01*
X157464000Y-135596380D01*
X157606857Y-135644000D01*
X157702095Y-135739238D01*
X157749714Y-135834476D01*
X157797333Y-136024952D01*
X157797333Y-136167809D01*
X157749714Y-136358285D01*
X157702095Y-136453523D01*
X157606857Y-136548761D01*
X157464000Y-136596380D01*
X157368761Y-136596380D01*
X157225904Y-136548761D01*
X157178285Y-136501142D01*
X157178285Y-136167809D01*
X157368761Y-136167809D01*
X156749714Y-136596380D02*
X156749714Y-135596380D01*
X156178285Y-136596380D01*
X156178285Y-135596380D01*
X155702095Y-136596380D02*
X155702095Y-135596380D01*
X155464000Y-135596380D01*
X155321142Y-135644000D01*
X155225904Y-135739238D01*
X155178285Y-135834476D01*
X155130666Y-136024952D01*
X155130666Y-136167809D01*
X155178285Y-136358285D01*
X155225904Y-136453523D01*
X155321142Y-136548761D01*
X155464000Y-136596380D01*
X155702095Y-136596380D01*
X147867619Y-136596380D02*
X148200952Y-136120190D01*
X148439047Y-136596380D02*
X148439047Y-135596380D01*
X148058095Y-135596380D01*
X147962857Y-135644000D01*
X147915238Y-135691619D01*
X147867619Y-135786857D01*
X147867619Y-135929714D01*
X147915238Y-136024952D01*
X147962857Y-136072571D01*
X148058095Y-136120190D01*
X148439047Y-136120190D01*
X147486666Y-136548761D02*
X147343809Y-136596380D01*
X147105714Y-136596380D01*
X147010476Y-136548761D01*
X146962857Y-136501142D01*
X146915238Y-136405904D01*
X146915238Y-136310666D01*
X146962857Y-136215428D01*
X147010476Y-136167809D01*
X147105714Y-136120190D01*
X147296190Y-136072571D01*
X147391428Y-136024952D01*
X147439047Y-135977333D01*
X147486666Y-135882095D01*
X147486666Y-135786857D01*
X147439047Y-135691619D01*
X147391428Y-135644000D01*
X147296190Y-135596380D01*
X147058095Y-135596380D01*
X146915238Y-135644000D01*
X146629523Y-135596380D02*
X146058095Y-135596380D01*
X146343809Y-136596380D02*
X146343809Y-135596380D01*
X161115238Y-135596380D02*
X160781904Y-136596380D01*
X160448571Y-135596380D01*
X160115238Y-136596380D02*
X160115238Y-135596380D01*
X159639047Y-136596380D02*
X159639047Y-135596380D01*
X159067619Y-136596380D01*
X159067619Y-135596380D01*
X135834285Y-85240761D02*
X135691428Y-85288380D01*
X135453333Y-85288380D01*
X135358095Y-85240761D01*
X135310476Y-85193142D01*
X135262857Y-85097904D01*
X135262857Y-85002666D01*
X135310476Y-84907428D01*
X135358095Y-84859809D01*
X135453333Y-84812190D01*
X135643809Y-84764571D01*
X135739047Y-84716952D01*
X135786666Y-84669333D01*
X135834285Y-84574095D01*
X135834285Y-84478857D01*
X135786666Y-84383619D01*
X135739047Y-84336000D01*
X135643809Y-84288380D01*
X135405714Y-84288380D01*
X135262857Y-84336000D01*
X134834285Y-85288380D02*
X134834285Y-84288380D01*
X134596190Y-84288380D01*
X134453333Y-84336000D01*
X134358095Y-84431238D01*
X134310476Y-84526476D01*
X134262857Y-84716952D01*
X134262857Y-84859809D01*
X134310476Y-85050285D01*
X134358095Y-85145523D01*
X134453333Y-85240761D01*
X134596190Y-85288380D01*
X134834285Y-85288380D01*
X133881904Y-85002666D02*
X133405714Y-85002666D01*
X133977142Y-85288380D02*
X133643809Y-84288380D01*
X133310476Y-85288380D01*
X138215619Y-85288380D02*
X138548952Y-84812190D01*
X138787047Y-85288380D02*
X138787047Y-84288380D01*
X138406095Y-84288380D01*
X138310857Y-84336000D01*
X138263238Y-84383619D01*
X138215619Y-84478857D01*
X138215619Y-84621714D01*
X138263238Y-84716952D01*
X138310857Y-84764571D01*
X138406095Y-84812190D01*
X138787047Y-84812190D01*
X137834666Y-85240761D02*
X137691809Y-85288380D01*
X137453714Y-85288380D01*
X137358476Y-85240761D01*
X137310857Y-85193142D01*
X137263238Y-85097904D01*
X137263238Y-85002666D01*
X137310857Y-84907428D01*
X137358476Y-84859809D01*
X137453714Y-84812190D01*
X137644190Y-84764571D01*
X137739428Y-84716952D01*
X137787047Y-84669333D01*
X137834666Y-84574095D01*
X137834666Y-84478857D01*
X137787047Y-84383619D01*
X137739428Y-84336000D01*
X137644190Y-84288380D01*
X137406095Y-84288380D01*
X137263238Y-84336000D01*
X136977523Y-84288380D02*
X136406095Y-84288380D01*
X136691809Y-85288380D02*
X136691809Y-84288380D01*
X149097904Y-84383619D02*
X149050285Y-84336000D01*
X148955047Y-84288380D01*
X148716952Y-84288380D01*
X148621714Y-84336000D01*
X148574095Y-84383619D01*
X148526476Y-84478857D01*
X148526476Y-84574095D01*
X148574095Y-84716952D01*
X149145523Y-85288380D01*
X148526476Y-85288380D01*
X148193142Y-84288380D02*
X147574095Y-84288380D01*
X147907428Y-84669333D01*
X147764571Y-84669333D01*
X147669333Y-84716952D01*
X147621714Y-84764571D01*
X147574095Y-84859809D01*
X147574095Y-85097904D01*
X147621714Y-85193142D01*
X147669333Y-85240761D01*
X147764571Y-85288380D01*
X148050285Y-85288380D01*
X148145523Y-85240761D01*
X148193142Y-85193142D01*
X143446476Y-85288380D02*
X144017904Y-85288380D01*
X143732190Y-85288380D02*
X143732190Y-84288380D01*
X143827428Y-84431238D01*
X143922666Y-84526476D01*
X144017904Y-84574095D01*
X142875047Y-84716952D02*
X142970285Y-84669333D01*
X143017904Y-84621714D01*
X143065523Y-84526476D01*
X143065523Y-84478857D01*
X143017904Y-84383619D01*
X142970285Y-84336000D01*
X142875047Y-84288380D01*
X142684571Y-84288380D01*
X142589333Y-84336000D01*
X142541714Y-84383619D01*
X142494095Y-84478857D01*
X142494095Y-84526476D01*
X142541714Y-84621714D01*
X142589333Y-84669333D01*
X142684571Y-84716952D01*
X142875047Y-84716952D01*
X142970285Y-84764571D01*
X143017904Y-84812190D01*
X143065523Y-84907428D01*
X143065523Y-85097904D01*
X143017904Y-85193142D01*
X142970285Y-85240761D01*
X142875047Y-85288380D01*
X142684571Y-85288380D01*
X142589333Y-85240761D01*
X142541714Y-85193142D01*
X142494095Y-85097904D01*
X142494095Y-84907428D01*
X142541714Y-84812190D01*
X142589333Y-84764571D01*
X142684571Y-84716952D01*
X145986476Y-85288380D02*
X146557904Y-85288380D01*
X146272190Y-85288380D02*
X146272190Y-84288380D01*
X146367428Y-84431238D01*
X146462666Y-84526476D01*
X146557904Y-84574095D01*
X145510285Y-85288380D02*
X145319809Y-85288380D01*
X145224571Y-85240761D01*
X145176952Y-85193142D01*
X145081714Y-85050285D01*
X145034095Y-84859809D01*
X145034095Y-84478857D01*
X145081714Y-84383619D01*
X145129333Y-84336000D01*
X145224571Y-84288380D01*
X145415047Y-84288380D01*
X145510285Y-84336000D01*
X145557904Y-84383619D01*
X145605523Y-84478857D01*
X145605523Y-84716952D01*
X145557904Y-84812190D01*
X145510285Y-84859809D01*
X145415047Y-84907428D01*
X145224571Y-84907428D01*
X145129333Y-84859809D01*
X145081714Y-84812190D01*
X145034095Y-84716952D01*
X132762476Y-85240761D02*
X132619619Y-85288380D01*
X132381523Y-85288380D01*
X132286285Y-85240761D01*
X132238666Y-85193142D01*
X132191047Y-85097904D01*
X132191047Y-85002666D01*
X132238666Y-84907428D01*
X132286285Y-84859809D01*
X132381523Y-84812190D01*
X132572000Y-84764571D01*
X132667238Y-84716952D01*
X132714857Y-84669333D01*
X132762476Y-84574095D01*
X132762476Y-84478857D01*
X132714857Y-84383619D01*
X132667238Y-84336000D01*
X132572000Y-84288380D01*
X132333904Y-84288380D01*
X132191047Y-84336000D01*
X131191047Y-85193142D02*
X131238666Y-85240761D01*
X131381523Y-85288380D01*
X131476761Y-85288380D01*
X131619619Y-85240761D01*
X131714857Y-85145523D01*
X131762476Y-85050285D01*
X131810095Y-84859809D01*
X131810095Y-84716952D01*
X131762476Y-84526476D01*
X131714857Y-84431238D01*
X131619619Y-84336000D01*
X131476761Y-84288380D01*
X131381523Y-84288380D01*
X131238666Y-84336000D01*
X131191047Y-84383619D01*
X130286285Y-85288380D02*
X130762476Y-85288380D01*
X130762476Y-84288380D01*
X151399809Y-84288380D02*
X151304571Y-84288380D01*
X151209333Y-84336000D01*
X151161714Y-84383619D01*
X151114095Y-84478857D01*
X151066476Y-84669333D01*
X151066476Y-84907428D01*
X151114095Y-85097904D01*
X151161714Y-85193142D01*
X151209333Y-85240761D01*
X151304571Y-85288380D01*
X151399809Y-85288380D01*
X151495047Y-85240761D01*
X151542666Y-85193142D01*
X151590285Y-85097904D01*
X151637904Y-84907428D01*
X151637904Y-84669333D01*
X151590285Y-84478857D01*
X151542666Y-84383619D01*
X151495047Y-84336000D01*
X151399809Y-84288380D01*
X150161714Y-84288380D02*
X150637904Y-84288380D01*
X150685523Y-84764571D01*
X150637904Y-84716952D01*
X150542666Y-84669333D01*
X150304571Y-84669333D01*
X150209333Y-84716952D01*
X150161714Y-84764571D01*
X150114095Y-84859809D01*
X150114095Y-85097904D01*
X150161714Y-85193142D01*
X150209333Y-85240761D01*
X150304571Y-85288380D01*
X150542666Y-85288380D01*
X150637904Y-85240761D01*
X150685523Y-85193142D01*
X163250476Y-92924380D02*
X162679047Y-92924380D01*
X162964761Y-93924380D02*
X162964761Y-92924380D01*
X162440952Y-93924380D02*
X161917142Y-93257714D01*
X162440952Y-93257714D02*
X161917142Y-93924380D01*
X165195238Y-93924380D02*
X165528571Y-93448190D01*
X165766666Y-93924380D02*
X165766666Y-92924380D01*
X165385714Y-92924380D01*
X165290476Y-92972000D01*
X165242857Y-93019619D01*
X165195238Y-93114857D01*
X165195238Y-93257714D01*
X165242857Y-93352952D01*
X165290476Y-93400571D01*
X165385714Y-93448190D01*
X165766666Y-93448190D01*
X164861904Y-93924380D02*
X164338095Y-93257714D01*
X164861904Y-93257714D02*
X164338095Y-93924380D01*
X178442857Y-85288380D02*
X178776190Y-84812190D01*
X179014285Y-85288380D02*
X179014285Y-84288380D01*
X178633333Y-84288380D01*
X178538095Y-84336000D01*
X178490476Y-84383619D01*
X178442857Y-84478857D01*
X178442857Y-84621714D01*
X178490476Y-84716952D01*
X178538095Y-84764571D01*
X178633333Y-84812190D01*
X179014285Y-84812190D01*
X178109523Y-84288380D02*
X177442857Y-85288380D01*
X177442857Y-84288380D02*
X178109523Y-85288380D01*
X176871428Y-84288380D02*
X176776190Y-84288380D01*
X176680952Y-84336000D01*
X176633333Y-84383619D01*
X176585714Y-84478857D01*
X176538095Y-84669333D01*
X176538095Y-84907428D01*
X176585714Y-85097904D01*
X176633333Y-85193142D01*
X176680952Y-85240761D01*
X176776190Y-85288380D01*
X176871428Y-85288380D01*
X176966666Y-85240761D01*
X177014285Y-85193142D01*
X177061904Y-85097904D01*
X177109523Y-84907428D01*
X177109523Y-84669333D01*
X177061904Y-84478857D01*
X177014285Y-84383619D01*
X176966666Y-84336000D01*
X176871428Y-84288380D01*
X176498095Y-84288380D02*
X175926666Y-84288380D01*
X176212380Y-85288380D02*
X176212380Y-84288380D01*
X175688571Y-84288380D02*
X175021904Y-85288380D01*
X175021904Y-84288380D02*
X175688571Y-85288380D01*
X174450476Y-84288380D02*
X174355238Y-84288380D01*
X174260000Y-84336000D01*
X174212380Y-84383619D01*
X174164761Y-84478857D01*
X174117142Y-84669333D01*
X174117142Y-84907428D01*
X174164761Y-85097904D01*
X174212380Y-85193142D01*
X174260000Y-85240761D01*
X174355238Y-85288380D01*
X174450476Y-85288380D01*
X174545714Y-85240761D01*
X174593333Y-85193142D01*
X174640952Y-85097904D01*
X174688571Y-84907428D01*
X174688571Y-84669333D01*
X174640952Y-84478857D01*
X174593333Y-84383619D01*
X174545714Y-84336000D01*
X174450476Y-84288380D01*
X141477904Y-84336000D02*
X141573142Y-84288380D01*
X141716000Y-84288380D01*
X141858857Y-84336000D01*
X141954095Y-84431238D01*
X142001714Y-84526476D01*
X142049333Y-84716952D01*
X142049333Y-84859809D01*
X142001714Y-85050285D01*
X141954095Y-85145523D01*
X141858857Y-85240761D01*
X141716000Y-85288380D01*
X141620761Y-85288380D01*
X141477904Y-85240761D01*
X141430285Y-85193142D01*
X141430285Y-84859809D01*
X141620761Y-84859809D01*
X141001714Y-85288380D02*
X141001714Y-84288380D01*
X140430285Y-85288380D01*
X140430285Y-84288380D01*
X139954095Y-85288380D02*
X139954095Y-84288380D01*
X139716000Y-84288380D01*
X139573142Y-84336000D01*
X139477904Y-84431238D01*
X139430285Y-84526476D01*
X139382666Y-84716952D01*
X139382666Y-84859809D01*
X139430285Y-85050285D01*
X139477904Y-85145523D01*
X139573142Y-85240761D01*
X139716000Y-85288380D01*
X139954095Y-85288380D01*
X156146476Y-85288380D02*
X156717904Y-85288380D01*
X156432190Y-85288380D02*
X156432190Y-84288380D01*
X156527428Y-84431238D01*
X156622666Y-84526476D01*
X156717904Y-84574095D01*
X155765523Y-84383619D02*
X155717904Y-84336000D01*
X155622666Y-84288380D01*
X155384571Y-84288380D01*
X155289333Y-84336000D01*
X155241714Y-84383619D01*
X155194095Y-84478857D01*
X155194095Y-84574095D01*
X155241714Y-84716952D01*
X155813142Y-85288380D01*
X155194095Y-85288380D01*
X153606476Y-85288380D02*
X154177904Y-85288380D01*
X153892190Y-85288380D02*
X153892190Y-84288380D01*
X153987428Y-84431238D01*
X154082666Y-84526476D01*
X154177904Y-84574095D01*
X153273142Y-84288380D02*
X152654095Y-84288380D01*
X152987428Y-84669333D01*
X152844571Y-84669333D01*
X152749333Y-84716952D01*
X152701714Y-84764571D01*
X152654095Y-84859809D01*
X152654095Y-85097904D01*
X152701714Y-85193142D01*
X152749333Y-85240761D01*
X152844571Y-85288380D01*
X153130285Y-85288380D01*
X153225523Y-85240761D01*
X153273142Y-85193142D01*
X167830476Y-85288380D02*
X168401904Y-85288380D01*
X168116190Y-85288380D02*
X168116190Y-84288380D01*
X168211428Y-84431238D01*
X168306666Y-84526476D01*
X168401904Y-84574095D01*
X167497142Y-84288380D02*
X166830476Y-84288380D01*
X167259047Y-85288380D01*
X165290476Y-85288380D02*
X165861904Y-85288380D01*
X165576190Y-85288380D02*
X165576190Y-84288380D01*
X165671428Y-84431238D01*
X165766666Y-84526476D01*
X165861904Y-84574095D01*
X164433333Y-84288380D02*
X164623809Y-84288380D01*
X164719047Y-84336000D01*
X164766666Y-84383619D01*
X164861904Y-84526476D01*
X164909523Y-84716952D01*
X164909523Y-85097904D01*
X164861904Y-85193142D01*
X164814285Y-85240761D01*
X164719047Y-85288380D01*
X164528571Y-85288380D01*
X164433333Y-85240761D01*
X164385714Y-85193142D01*
X164338095Y-85097904D01*
X164338095Y-84859809D01*
X164385714Y-84764571D01*
X164433333Y-84716952D01*
X164528571Y-84669333D01*
X164719047Y-84669333D01*
X164814285Y-84716952D01*
X164861904Y-84764571D01*
X164909523Y-84859809D01*
X160210476Y-85288380D02*
X160781904Y-85288380D01*
X160496190Y-85288380D02*
X160496190Y-84288380D01*
X160591428Y-84431238D01*
X160686666Y-84526476D01*
X160781904Y-84574095D01*
X159353333Y-84621714D02*
X159353333Y-85288380D01*
X159591428Y-84240761D02*
X159829523Y-84955047D01*
X159210476Y-84955047D01*
X163321904Y-84383619D02*
X163274285Y-84336000D01*
X163179047Y-84288380D01*
X162940952Y-84288380D01*
X162845714Y-84336000D01*
X162798095Y-84383619D01*
X162750476Y-84478857D01*
X162750476Y-84574095D01*
X162798095Y-84716952D01*
X163369523Y-85288380D01*
X162750476Y-85288380D01*
X162417142Y-84288380D02*
X161750476Y-84288380D01*
X162179047Y-85288380D01*
X173481904Y-84383619D02*
X173434285Y-84336000D01*
X173339047Y-84288380D01*
X173100952Y-84288380D01*
X173005714Y-84336000D01*
X172958095Y-84383619D01*
X172910476Y-84478857D01*
X172910476Y-84574095D01*
X172958095Y-84716952D01*
X173529523Y-85288380D01*
X172910476Y-85288380D01*
X172053333Y-84288380D02*
X172243809Y-84288380D01*
X172339047Y-84336000D01*
X172386666Y-84383619D01*
X172481904Y-84526476D01*
X172529523Y-84716952D01*
X172529523Y-85097904D01*
X172481904Y-85193142D01*
X172434285Y-85240761D01*
X172339047Y-85288380D01*
X172148571Y-85288380D01*
X172053333Y-85240761D01*
X172005714Y-85193142D01*
X171958095Y-85097904D01*
X171958095Y-84859809D01*
X172005714Y-84764571D01*
X172053333Y-84716952D01*
X172148571Y-84669333D01*
X172339047Y-84669333D01*
X172434285Y-84716952D01*
X172481904Y-84764571D01*
X172529523Y-84859809D01*
X170941904Y-84383619D02*
X170894285Y-84336000D01*
X170799047Y-84288380D01*
X170560952Y-84288380D01*
X170465714Y-84336000D01*
X170418095Y-84383619D01*
X170370476Y-84478857D01*
X170370476Y-84574095D01*
X170418095Y-84716952D01*
X170989523Y-85288380D01*
X170370476Y-85288380D01*
X169465714Y-84288380D02*
X169941904Y-84288380D01*
X169989523Y-84764571D01*
X169941904Y-84716952D01*
X169846666Y-84669333D01*
X169608571Y-84669333D01*
X169513333Y-84716952D01*
X169465714Y-84764571D01*
X169418095Y-84859809D01*
X169418095Y-85097904D01*
X169465714Y-85193142D01*
X169513333Y-85240761D01*
X169608571Y-85288380D01*
X169846666Y-85288380D01*
X169941904Y-85240761D01*
X169989523Y-85193142D01*
X173481904Y-90479619D02*
X173434285Y-90432000D01*
X173339047Y-90384380D01*
X173100952Y-90384380D01*
X173005714Y-90432000D01*
X172958095Y-90479619D01*
X172910476Y-90574857D01*
X172910476Y-90670095D01*
X172958095Y-90812952D01*
X173529523Y-91384380D01*
X172910476Y-91384380D01*
X172053333Y-90384380D02*
X172243809Y-90384380D01*
X172339047Y-90432000D01*
X172386666Y-90479619D01*
X172481904Y-90622476D01*
X172529523Y-90812952D01*
X172529523Y-91193904D01*
X172481904Y-91289142D01*
X172434285Y-91336761D01*
X172339047Y-91384380D01*
X172148571Y-91384380D01*
X172053333Y-91336761D01*
X172005714Y-91289142D01*
X171958095Y-91193904D01*
X171958095Y-90955809D01*
X172005714Y-90860571D01*
X172053333Y-90812952D01*
X172148571Y-90765333D01*
X172339047Y-90765333D01*
X172434285Y-90812952D01*
X172481904Y-90860571D01*
X172529523Y-90955809D01*
X170941904Y-90479619D02*
X170894285Y-90432000D01*
X170799047Y-90384380D01*
X170560952Y-90384380D01*
X170465714Y-90432000D01*
X170418095Y-90479619D01*
X170370476Y-90574857D01*
X170370476Y-90670095D01*
X170418095Y-90812952D01*
X170989523Y-91384380D01*
X170370476Y-91384380D01*
X169465714Y-90384380D02*
X169941904Y-90384380D01*
X169989523Y-90860571D01*
X169941904Y-90812952D01*
X169846666Y-90765333D01*
X169608571Y-90765333D01*
X169513333Y-90812952D01*
X169465714Y-90860571D01*
X169418095Y-90955809D01*
X169418095Y-91193904D01*
X169465714Y-91289142D01*
X169513333Y-91336761D01*
X169608571Y-91384380D01*
X169846666Y-91384380D01*
X169941904Y-91336761D01*
X169989523Y-91289142D01*
X167830476Y-91384380D02*
X168401904Y-91384380D01*
X168116190Y-91384380D02*
X168116190Y-90384380D01*
X168211428Y-90527238D01*
X168306666Y-90622476D01*
X168401904Y-90670095D01*
X167497142Y-90384380D02*
X166830476Y-90384380D01*
X167259047Y-91384380D01*
X165290476Y-91384380D02*
X165861904Y-91384380D01*
X165576190Y-91384380D02*
X165576190Y-90384380D01*
X165671428Y-90527238D01*
X165766666Y-90622476D01*
X165861904Y-90670095D01*
X164433333Y-90384380D02*
X164623809Y-90384380D01*
X164719047Y-90432000D01*
X164766666Y-90479619D01*
X164861904Y-90622476D01*
X164909523Y-90812952D01*
X164909523Y-91193904D01*
X164861904Y-91289142D01*
X164814285Y-91336761D01*
X164719047Y-91384380D01*
X164528571Y-91384380D01*
X164433333Y-91336761D01*
X164385714Y-91289142D01*
X164338095Y-91193904D01*
X164338095Y-90955809D01*
X164385714Y-90860571D01*
X164433333Y-90812952D01*
X164528571Y-90765333D01*
X164719047Y-90765333D01*
X164814285Y-90812952D01*
X164861904Y-90860571D01*
X164909523Y-90955809D01*
X163321904Y-90479619D02*
X163274285Y-90432000D01*
X163179047Y-90384380D01*
X162940952Y-90384380D01*
X162845714Y-90432000D01*
X162798095Y-90479619D01*
X162750476Y-90574857D01*
X162750476Y-90670095D01*
X162798095Y-90812952D01*
X163369523Y-91384380D01*
X162750476Y-91384380D01*
X162417142Y-90384380D02*
X161750476Y-90384380D01*
X162179047Y-91384380D01*
X160210476Y-91384380D02*
X160781904Y-91384380D01*
X160496190Y-91384380D02*
X160496190Y-90384380D01*
X160591428Y-90527238D01*
X160686666Y-90622476D01*
X160781904Y-90670095D01*
X159353333Y-90717714D02*
X159353333Y-91384380D01*
X159591428Y-90336761D02*
X159829523Y-91051047D01*
X159210476Y-91051047D01*
X156146476Y-91384380D02*
X156717904Y-91384380D01*
X156432190Y-91384380D02*
X156432190Y-90384380D01*
X156527428Y-90527238D01*
X156622666Y-90622476D01*
X156717904Y-90670095D01*
X155765523Y-90479619D02*
X155717904Y-90432000D01*
X155622666Y-90384380D01*
X155384571Y-90384380D01*
X155289333Y-90432000D01*
X155241714Y-90479619D01*
X155194095Y-90574857D01*
X155194095Y-90670095D01*
X155241714Y-90812952D01*
X155813142Y-91384380D01*
X155194095Y-91384380D01*
X153606476Y-91384380D02*
X154177904Y-91384380D01*
X153892190Y-91384380D02*
X153892190Y-90384380D01*
X153987428Y-90527238D01*
X154082666Y-90622476D01*
X154177904Y-90670095D01*
X153273142Y-90384380D02*
X152654095Y-90384380D01*
X152987428Y-90765333D01*
X152844571Y-90765333D01*
X152749333Y-90812952D01*
X152701714Y-90860571D01*
X152654095Y-90955809D01*
X152654095Y-91193904D01*
X152701714Y-91289142D01*
X152749333Y-91336761D01*
X152844571Y-91384380D01*
X153130285Y-91384380D01*
X153225523Y-91336761D01*
X153273142Y-91289142D01*
X141477904Y-90432000D02*
X141573142Y-90384380D01*
X141716000Y-90384380D01*
X141858857Y-90432000D01*
X141954095Y-90527238D01*
X142001714Y-90622476D01*
X142049333Y-90812952D01*
X142049333Y-90955809D01*
X142001714Y-91146285D01*
X141954095Y-91241523D01*
X141858857Y-91336761D01*
X141716000Y-91384380D01*
X141620761Y-91384380D01*
X141477904Y-91336761D01*
X141430285Y-91289142D01*
X141430285Y-90955809D01*
X141620761Y-90955809D01*
X141001714Y-91384380D02*
X141001714Y-90384380D01*
X140430285Y-91384380D01*
X140430285Y-90384380D01*
X139954095Y-91384380D02*
X139954095Y-90384380D01*
X139716000Y-90384380D01*
X139573142Y-90432000D01*
X139477904Y-90527238D01*
X139430285Y-90622476D01*
X139382666Y-90812952D01*
X139382666Y-90955809D01*
X139430285Y-91146285D01*
X139477904Y-91241523D01*
X139573142Y-91336761D01*
X139716000Y-91384380D01*
X139954095Y-91384380D01*
X156717904Y-129548000D02*
X156813142Y-129500380D01*
X156956000Y-129500380D01*
X157098857Y-129548000D01*
X157194095Y-129643238D01*
X157241714Y-129738476D01*
X157289333Y-129928952D01*
X157289333Y-130071809D01*
X157241714Y-130262285D01*
X157194095Y-130357523D01*
X157098857Y-130452761D01*
X156956000Y-130500380D01*
X156860761Y-130500380D01*
X156717904Y-130452761D01*
X156670285Y-130405142D01*
X156670285Y-130071809D01*
X156860761Y-130071809D01*
X156241714Y-130500380D02*
X156241714Y-129500380D01*
X155670285Y-130500380D01*
X155670285Y-129500380D01*
X155194095Y-130500380D02*
X155194095Y-129500380D01*
X154956000Y-129500380D01*
X154813142Y-129548000D01*
X154717904Y-129643238D01*
X154670285Y-129738476D01*
X154622666Y-129928952D01*
X154622666Y-130071809D01*
X154670285Y-130262285D01*
X154717904Y-130357523D01*
X154813142Y-130452761D01*
X154956000Y-130500380D01*
X155194095Y-130500380D01*
X152590476Y-129500380D02*
X153066666Y-129500380D01*
X153114285Y-129976571D01*
X153066666Y-129928952D01*
X152971428Y-129881333D01*
X152733333Y-129881333D01*
X152638095Y-129928952D01*
X152590476Y-129976571D01*
X152542857Y-130071809D01*
X152542857Y-130309904D01*
X152590476Y-130405142D01*
X152638095Y-130452761D01*
X152733333Y-130500380D01*
X152971428Y-130500380D01*
X153066666Y-130452761D01*
X153114285Y-130405142D01*
X152257142Y-129500380D02*
X151923809Y-130500380D01*
X151590476Y-129500380D01*
D11*
%TO.C,A1*%
X183010000Y-99310000D02*
X183010000Y-132080000D01*
X183010000Y-132080000D02*
X180470000Y-134620000D01*
X180470000Y-134620000D02*
X180470000Y-137290000D01*
X180470000Y-137290000D02*
X114170000Y-137290000D01*
X114170000Y-137290000D02*
X114170000Y-134110000D01*
X114170000Y-134110000D02*
X112270000Y-134110000D01*
X112270000Y-134110000D02*
X112270000Y-124970000D01*
X112270000Y-124970000D02*
X114170000Y-124970000D01*
X114170000Y-124970000D02*
X114170000Y-104900000D01*
X114170000Y-104900000D02*
X107820000Y-104900000D01*
X107820000Y-104900000D02*
X107820000Y-93220000D01*
X107820000Y-93220000D02*
X114170000Y-93220000D01*
X114170000Y-93220000D02*
X114170000Y-83690000D01*
X114170000Y-83690000D02*
X178820000Y-83690000D01*
X178820000Y-83690000D02*
X180470000Y-85340000D01*
X180470000Y-85340000D02*
X180470000Y-96770000D01*
X180470000Y-96770000D02*
X183010000Y-99310000D01*
D10*
X139398285Y-141390666D02*
X138922095Y-141390666D01*
X139493523Y-141676380D02*
X139160190Y-140676380D01*
X138826857Y-141676380D01*
X137969714Y-141676380D02*
X138541142Y-141676380D01*
X138255428Y-141676380D02*
X138255428Y-140676380D01*
X138350666Y-140819238D01*
X138445904Y-140914476D01*
X138541142Y-140962095D01*
%TO.C,4.7k*%
X139485714Y-100671428D02*
X140152380Y-100671428D01*
X139104761Y-100433333D02*
X139819047Y-100195238D01*
X139819047Y-100814285D01*
X140057142Y-101195238D02*
X140104761Y-101242857D01*
X140152380Y-101195238D01*
X140104761Y-101147619D01*
X140057142Y-101195238D01*
X140152380Y-101195238D01*
X139152380Y-101576190D02*
X139152380Y-102242857D01*
X140152380Y-101814285D01*
X140152380Y-102623809D02*
X139152380Y-102623809D01*
X139771428Y-102719047D02*
X140152380Y-103004761D01*
X139485714Y-103004761D02*
X139866666Y-102623809D01*
%TO.C,10M*%
X137612380Y-99568095D02*
X137612380Y-98996666D01*
X137612380Y-99282380D02*
X136612380Y-99282380D01*
X136755238Y-99187142D01*
X136850476Y-99091904D01*
X136898095Y-98996666D01*
X136612380Y-100187142D02*
X136612380Y-100282380D01*
X136660000Y-100377619D01*
X136707619Y-100425238D01*
X136802857Y-100472857D01*
X136993333Y-100520476D01*
X137231428Y-100520476D01*
X137421904Y-100472857D01*
X137517142Y-100425238D01*
X137564761Y-100377619D01*
X137612380Y-100282380D01*
X137612380Y-100187142D01*
X137564761Y-100091904D01*
X137517142Y-100044285D01*
X137421904Y-99996666D01*
X137231428Y-99949047D01*
X136993333Y-99949047D01*
X136802857Y-99996666D01*
X136707619Y-100044285D01*
X136660000Y-100091904D01*
X136612380Y-100187142D01*
X137612380Y-100949047D02*
X136612380Y-100949047D01*
X137326666Y-101282380D01*
X136612380Y-101615714D01*
X137612380Y-101615714D01*
%TO.C,0.1uF*%
D12*
X144363809Y-97811428D02*
X144363809Y-97883809D01*
X144400000Y-97956190D01*
X144436190Y-97992380D01*
X144508571Y-98028571D01*
X144653333Y-98064761D01*
X144834285Y-98064761D01*
X144979047Y-98028571D01*
X145051428Y-97992380D01*
X145087619Y-97956190D01*
X145123809Y-97883809D01*
X145123809Y-97811428D01*
X145087619Y-97739047D01*
X145051428Y-97702857D01*
X144979047Y-97666666D01*
X144834285Y-97630476D01*
X144653333Y-97630476D01*
X144508571Y-97666666D01*
X144436190Y-97702857D01*
X144400000Y-97739047D01*
X144363809Y-97811428D01*
X145051428Y-98390476D02*
X145087619Y-98426666D01*
X145123809Y-98390476D01*
X145087619Y-98354285D01*
X145051428Y-98390476D01*
X145123809Y-98390476D01*
X145123809Y-99150476D02*
X145123809Y-98716190D01*
X145123809Y-98933333D02*
X144363809Y-98933333D01*
X144472380Y-98860952D01*
X144544761Y-98788571D01*
X144580952Y-98716190D01*
X144617142Y-99801904D02*
X145123809Y-99801904D01*
X144617142Y-99476190D02*
X145015238Y-99476190D01*
X145087619Y-99512380D01*
X145123809Y-99584761D01*
X145123809Y-99693333D01*
X145087619Y-99765714D01*
X145051428Y-99801904D01*
X144725714Y-100417142D02*
X144725714Y-100163809D01*
X145123809Y-100163809D02*
X144363809Y-100163809D01*
X144363809Y-100525714D01*
%TO.C,2N7000*%
D10*
X126666285Y-105719619D02*
X126618666Y-105672000D01*
X126523428Y-105624380D01*
X126285333Y-105624380D01*
X126190095Y-105672000D01*
X126142476Y-105719619D01*
X126094857Y-105814857D01*
X126094857Y-105910095D01*
X126142476Y-106052952D01*
X126713904Y-106624380D01*
X126094857Y-106624380D01*
X125666285Y-106624380D02*
X125666285Y-105624380D01*
X125094857Y-106624380D01*
X125094857Y-105624380D01*
X124713904Y-105624380D02*
X124047238Y-105624380D01*
X124475809Y-106624380D01*
X123475809Y-105624380D02*
X123380571Y-105624380D01*
X123285333Y-105672000D01*
X123237714Y-105719619D01*
X123190095Y-105814857D01*
X123142476Y-106005333D01*
X123142476Y-106243428D01*
X123190095Y-106433904D01*
X123237714Y-106529142D01*
X123285333Y-106576761D01*
X123380571Y-106624380D01*
X123475809Y-106624380D01*
X123571047Y-106576761D01*
X123618666Y-106529142D01*
X123666285Y-106433904D01*
X123713904Y-106243428D01*
X123713904Y-106005333D01*
X123666285Y-105814857D01*
X123618666Y-105719619D01*
X123571047Y-105672000D01*
X123475809Y-105624380D01*
X122523428Y-105624380D02*
X122428190Y-105624380D01*
X122332952Y-105672000D01*
X122285333Y-105719619D01*
X122237714Y-105814857D01*
X122190095Y-106005333D01*
X122190095Y-106243428D01*
X122237714Y-106433904D01*
X122285333Y-106529142D01*
X122332952Y-106576761D01*
X122428190Y-106624380D01*
X122523428Y-106624380D01*
X122618666Y-106576761D01*
X122666285Y-106529142D01*
X122713904Y-106433904D01*
X122761523Y-106243428D01*
X122761523Y-106005333D01*
X122713904Y-105814857D01*
X122666285Y-105719619D01*
X122618666Y-105672000D01*
X122523428Y-105624380D01*
X121571047Y-105624380D02*
X121475809Y-105624380D01*
X121380571Y-105672000D01*
X121332952Y-105719619D01*
X121285333Y-105814857D01*
X121237714Y-106005333D01*
X121237714Y-106243428D01*
X121285333Y-106433904D01*
X121332952Y-106529142D01*
X121380571Y-106576761D01*
X121475809Y-106624380D01*
X121571047Y-106624380D01*
X121666285Y-106576761D01*
X121713904Y-106529142D01*
X121761523Y-106433904D01*
X121809142Y-106243428D01*
X121809142Y-106005333D01*
X121761523Y-105814857D01*
X121713904Y-105719619D01*
X121666285Y-105672000D01*
X121571047Y-105624380D01*
%TO.C,DHT22*%
X127563619Y-118959047D02*
X128563619Y-118959047D01*
X128563619Y-118720952D01*
X128516000Y-118578095D01*
X128420761Y-118482857D01*
X128325523Y-118435238D01*
X128135047Y-118387619D01*
X127992190Y-118387619D01*
X127801714Y-118435238D01*
X127706476Y-118482857D01*
X127611238Y-118578095D01*
X127563619Y-118720952D01*
X127563619Y-118959047D01*
X127563619Y-117959047D02*
X128563619Y-117959047D01*
X128087428Y-117959047D02*
X128087428Y-117387619D01*
X127563619Y-117387619D02*
X128563619Y-117387619D01*
X128563619Y-117054285D02*
X128563619Y-116482857D01*
X127563619Y-116768571D02*
X128563619Y-116768571D01*
X128468380Y-116197142D02*
X128516000Y-116149523D01*
X128563619Y-116054285D01*
X128563619Y-115816190D01*
X128516000Y-115720952D01*
X128468380Y-115673333D01*
X128373142Y-115625714D01*
X128277904Y-115625714D01*
X128135047Y-115673333D01*
X127563619Y-116244761D01*
X127563619Y-115625714D01*
X128468380Y-115244761D02*
X128516000Y-115197142D01*
X128563619Y-115101904D01*
X128563619Y-114863809D01*
X128516000Y-114768571D01*
X128468380Y-114720952D01*
X128373142Y-114673333D01*
X128277904Y-114673333D01*
X128135047Y-114720952D01*
X127563619Y-115292380D01*
X127563619Y-114673333D01*
%TO.C,Rx*%
X163012380Y-105815238D02*
X162012380Y-105815238D01*
X162726666Y-106148571D01*
X162012380Y-106481904D01*
X163012380Y-106481904D01*
X163012380Y-106958095D02*
X162012380Y-106958095D01*
X162488571Y-106958095D02*
X162488571Y-107529523D01*
X163012380Y-107529523D02*
X162012380Y-107529523D01*
X162631428Y-108005714D02*
X162631428Y-108767619D01*
X162012380Y-109148571D02*
X162012380Y-109815238D01*
X163012380Y-109148571D01*
X163012380Y-109815238D01*
X163012380Y-110720000D02*
X163012380Y-110148571D01*
X163012380Y-110434285D02*
X162012380Y-110434285D01*
X162155238Y-110339047D01*
X162250476Y-110243809D01*
X162298095Y-110148571D01*
X163012380Y-111196190D02*
X163012380Y-111386666D01*
X162964761Y-111481904D01*
X162917142Y-111529523D01*
X162774285Y-111624761D01*
X162583809Y-111672380D01*
X162202857Y-111672380D01*
X162107619Y-111624761D01*
X162060000Y-111577142D01*
X162012380Y-111481904D01*
X162012380Y-111291428D01*
X162060000Y-111196190D01*
X162107619Y-111148571D01*
X162202857Y-111100952D01*
X162440952Y-111100952D01*
X162536190Y-111148571D01*
X162583809Y-111196190D01*
X162631428Y-111291428D01*
X162631428Y-111481904D01*
X162583809Y-111577142D01*
X162536190Y-111624761D01*
X162440952Y-111672380D01*
X162917142Y-112672380D02*
X162964761Y-112624761D01*
X163012380Y-112481904D01*
X163012380Y-112386666D01*
X162964761Y-112243809D01*
X162869523Y-112148571D01*
X162774285Y-112100952D01*
X162583809Y-112053333D01*
X162440952Y-112053333D01*
X162250476Y-112100952D01*
X162155238Y-112148571D01*
X162060000Y-112243809D01*
X162012380Y-112386666D01*
X162012380Y-112481904D01*
X162060000Y-112624761D01*
X162107619Y-112672380D01*
%TO.C,NE555*%
X143136666Y-110942380D02*
X143136666Y-109942380D01*
X142565238Y-110942380D01*
X142565238Y-109942380D01*
X142089047Y-110418571D02*
X141755714Y-110418571D01*
X141612857Y-110942380D02*
X142089047Y-110942380D01*
X142089047Y-109942380D01*
X141612857Y-109942380D01*
X140708095Y-109942380D02*
X141184285Y-109942380D01*
X141231904Y-110418571D01*
X141184285Y-110370952D01*
X141089047Y-110323333D01*
X140850952Y-110323333D01*
X140755714Y-110370952D01*
X140708095Y-110418571D01*
X140660476Y-110513809D01*
X140660476Y-110751904D01*
X140708095Y-110847142D01*
X140755714Y-110894761D01*
X140850952Y-110942380D01*
X141089047Y-110942380D01*
X141184285Y-110894761D01*
X141231904Y-110847142D01*
X139755714Y-109942380D02*
X140231904Y-109942380D01*
X140279523Y-110418571D01*
X140231904Y-110370952D01*
X140136666Y-110323333D01*
X139898571Y-110323333D01*
X139803333Y-110370952D01*
X139755714Y-110418571D01*
X139708095Y-110513809D01*
X139708095Y-110751904D01*
X139755714Y-110847142D01*
X139803333Y-110894761D01*
X139898571Y-110942380D01*
X140136666Y-110942380D01*
X140231904Y-110894761D01*
X140279523Y-110847142D01*
X138803333Y-109942380D02*
X139279523Y-109942380D01*
X139327142Y-110418571D01*
X139279523Y-110370952D01*
X139184285Y-110323333D01*
X138946190Y-110323333D01*
X138850952Y-110370952D01*
X138803333Y-110418571D01*
X138755714Y-110513809D01*
X138755714Y-110751904D01*
X138803333Y-110847142D01*
X138850952Y-110894761D01*
X138946190Y-110942380D01*
X139184285Y-110942380D01*
X139279523Y-110894761D01*
X139327142Y-110847142D01*
%TO.C,330*%
X174712380Y-110474285D02*
X174712380Y-111093333D01*
X175093333Y-110760000D01*
X175093333Y-110902857D01*
X175140952Y-110998095D01*
X175188571Y-111045714D01*
X175283809Y-111093333D01*
X175521904Y-111093333D01*
X175617142Y-111045714D01*
X175664761Y-110998095D01*
X175712380Y-110902857D01*
X175712380Y-110617142D01*
X175664761Y-110521904D01*
X175617142Y-110474285D01*
X174712380Y-111426666D02*
X174712380Y-112045714D01*
X175093333Y-111712380D01*
X175093333Y-111855238D01*
X175140952Y-111950476D01*
X175188571Y-111998095D01*
X175283809Y-112045714D01*
X175521904Y-112045714D01*
X175617142Y-111998095D01*
X175664761Y-111950476D01*
X175712380Y-111855238D01*
X175712380Y-111569523D01*
X175664761Y-111474285D01*
X175617142Y-111426666D01*
X174712380Y-112664761D02*
X174712380Y-112760000D01*
X174760000Y-112855238D01*
X174807619Y-112902857D01*
X174902857Y-112950476D01*
X175093333Y-112998095D01*
X175331428Y-112998095D01*
X175521904Y-112950476D01*
X175617142Y-112902857D01*
X175664761Y-112855238D01*
X175712380Y-112760000D01*
X175712380Y-112664761D01*
X175664761Y-112569523D01*
X175617142Y-112521904D01*
X175521904Y-112474285D01*
X175331428Y-112426666D01*
X175093333Y-112426666D01*
X174902857Y-112474285D01*
X174807619Y-112521904D01*
X174760000Y-112569523D01*
X174712380Y-112664761D01*
X141692380Y-100314285D02*
X141692380Y-100933333D01*
X142073333Y-100600000D01*
X142073333Y-100742857D01*
X142120952Y-100838095D01*
X142168571Y-100885714D01*
X142263809Y-100933333D01*
X142501904Y-100933333D01*
X142597142Y-100885714D01*
X142644761Y-100838095D01*
X142692380Y-100742857D01*
X142692380Y-100457142D01*
X142644761Y-100361904D01*
X142597142Y-100314285D01*
X141692380Y-101266666D02*
X141692380Y-101885714D01*
X142073333Y-101552380D01*
X142073333Y-101695238D01*
X142120952Y-101790476D01*
X142168571Y-101838095D01*
X142263809Y-101885714D01*
X142501904Y-101885714D01*
X142597142Y-101838095D01*
X142644761Y-101790476D01*
X142692380Y-101695238D01*
X142692380Y-101409523D01*
X142644761Y-101314285D01*
X142597142Y-101266666D01*
X141692380Y-102504761D02*
X141692380Y-102600000D01*
X141740000Y-102695238D01*
X141787619Y-102742857D01*
X141882857Y-102790476D01*
X142073333Y-102838095D01*
X142311428Y-102838095D01*
X142501904Y-102790476D01*
X142597142Y-102742857D01*
X142644761Y-102695238D01*
X142692380Y-102600000D01*
X142692380Y-102504761D01*
X142644761Y-102409523D01*
X142597142Y-102361904D01*
X142501904Y-102314285D01*
X142311428Y-102266666D01*
X142073333Y-102266666D01*
X141882857Y-102314285D01*
X141787619Y-102361904D01*
X141740000Y-102409523D01*
X141692380Y-102504761D01*
%TO.C,100*%
X124618666Y-101036380D02*
X125190095Y-101036380D01*
X124904380Y-101036380D02*
X124904380Y-100036380D01*
X124999619Y-100179238D01*
X125094857Y-100274476D01*
X125190095Y-100322095D01*
X123999619Y-100036380D02*
X123904380Y-100036380D01*
X123809142Y-100084000D01*
X123761523Y-100131619D01*
X123713904Y-100226857D01*
X123666285Y-100417333D01*
X123666285Y-100655428D01*
X123713904Y-100845904D01*
X123761523Y-100941142D01*
X123809142Y-100988761D01*
X123904380Y-101036380D01*
X123999619Y-101036380D01*
X124094857Y-100988761D01*
X124142476Y-100941142D01*
X124190095Y-100845904D01*
X124237714Y-100655428D01*
X124237714Y-100417333D01*
X124190095Y-100226857D01*
X124142476Y-100131619D01*
X124094857Y-100084000D01*
X123999619Y-100036380D01*
X123047238Y-100036380D02*
X122952000Y-100036380D01*
X122856761Y-100084000D01*
X122809142Y-100131619D01*
X122761523Y-100226857D01*
X122713904Y-100417333D01*
X122713904Y-100655428D01*
X122761523Y-100845904D01*
X122809142Y-100941142D01*
X122856761Y-100988761D01*
X122952000Y-101036380D01*
X123047238Y-101036380D01*
X123142476Y-100988761D01*
X123190095Y-100941142D01*
X123237714Y-100845904D01*
X123285333Y-100655428D01*
X123285333Y-100417333D01*
X123237714Y-100226857D01*
X123190095Y-100131619D01*
X123142476Y-100084000D01*
X123047238Y-100036380D01*
%TO.C,AudioJack*%
X126436000Y-92622666D02*
X125959809Y-92622666D01*
X126531238Y-92908380D02*
X126197904Y-91908380D01*
X125864571Y-92908380D01*
X125102666Y-92241714D02*
X125102666Y-92908380D01*
X125531238Y-92241714D02*
X125531238Y-92765523D01*
X125483619Y-92860761D01*
X125388380Y-92908380D01*
X125245523Y-92908380D01*
X125150285Y-92860761D01*
X125102666Y-92813142D01*
X124197904Y-92908380D02*
X124197904Y-91908380D01*
X124197904Y-92860761D02*
X124293142Y-92908380D01*
X124483619Y-92908380D01*
X124578857Y-92860761D01*
X124626476Y-92813142D01*
X124674095Y-92717904D01*
X124674095Y-92432190D01*
X124626476Y-92336952D01*
X124578857Y-92289333D01*
X124483619Y-92241714D01*
X124293142Y-92241714D01*
X124197904Y-92289333D01*
X123721714Y-92908380D02*
X123721714Y-92241714D01*
X123721714Y-91908380D02*
X123769333Y-91956000D01*
X123721714Y-92003619D01*
X123674095Y-91956000D01*
X123721714Y-91908380D01*
X123721714Y-92003619D01*
X123102666Y-92908380D02*
X123197904Y-92860761D01*
X123245523Y-92813142D01*
X123293142Y-92717904D01*
X123293142Y-92432190D01*
X123245523Y-92336952D01*
X123197904Y-92289333D01*
X123102666Y-92241714D01*
X122959809Y-92241714D01*
X122864571Y-92289333D01*
X122816952Y-92336952D01*
X122769333Y-92432190D01*
X122769333Y-92717904D01*
X122816952Y-92813142D01*
X122864571Y-92860761D01*
X122959809Y-92908380D01*
X123102666Y-92908380D01*
X122055047Y-91908380D02*
X122055047Y-92622666D01*
X122102666Y-92765523D01*
X122197904Y-92860761D01*
X122340761Y-92908380D01*
X122436000Y-92908380D01*
X121150285Y-92908380D02*
X121150285Y-92384571D01*
X121197904Y-92289333D01*
X121293142Y-92241714D01*
X121483619Y-92241714D01*
X121578857Y-92289333D01*
X121150285Y-92860761D02*
X121245523Y-92908380D01*
X121483619Y-92908380D01*
X121578857Y-92860761D01*
X121626476Y-92765523D01*
X121626476Y-92670285D01*
X121578857Y-92575047D01*
X121483619Y-92527428D01*
X121245523Y-92527428D01*
X121150285Y-92479809D01*
X120245523Y-92860761D02*
X120340761Y-92908380D01*
X120531238Y-92908380D01*
X120626476Y-92860761D01*
X120674095Y-92813142D01*
X120721714Y-92717904D01*
X120721714Y-92432190D01*
X120674095Y-92336952D01*
X120626476Y-92289333D01*
X120531238Y-92241714D01*
X120340761Y-92241714D01*
X120245523Y-92289333D01*
X119816952Y-92908380D02*
X119816952Y-91908380D01*
X119721714Y-92527428D02*
X119436000Y-92908380D01*
X119436000Y-92241714D02*
X119816952Y-92622666D01*
%TO.C,Relay*%
X127563619Y-129484285D02*
X128039809Y-129817619D01*
X127563619Y-130055714D02*
X128563619Y-130055714D01*
X128563619Y-129674761D01*
X128516000Y-129579523D01*
X128468380Y-129531904D01*
X128373142Y-129484285D01*
X128230285Y-129484285D01*
X128135047Y-129531904D01*
X128087428Y-129579523D01*
X128039809Y-129674761D01*
X128039809Y-130055714D01*
X127611238Y-128674761D02*
X127563619Y-128770000D01*
X127563619Y-128960476D01*
X127611238Y-129055714D01*
X127706476Y-129103333D01*
X128087428Y-129103333D01*
X128182666Y-129055714D01*
X128230285Y-128960476D01*
X128230285Y-128770000D01*
X128182666Y-128674761D01*
X128087428Y-128627142D01*
X127992190Y-128627142D01*
X127896952Y-129103333D01*
X127563619Y-128055714D02*
X127611238Y-128150952D01*
X127706476Y-128198571D01*
X128563619Y-128198571D01*
X127563619Y-127246190D02*
X128087428Y-127246190D01*
X128182666Y-127293809D01*
X128230285Y-127389047D01*
X128230285Y-127579523D01*
X128182666Y-127674761D01*
X127611238Y-127246190D02*
X127563619Y-127341428D01*
X127563619Y-127579523D01*
X127611238Y-127674761D01*
X127706476Y-127722380D01*
X127801714Y-127722380D01*
X127896952Y-127674761D01*
X127944571Y-127579523D01*
X127944571Y-127341428D01*
X127992190Y-127246190D01*
X128230285Y-126865238D02*
X127563619Y-126627142D01*
X128230285Y-126389047D02*
X127563619Y-126627142D01*
X127325523Y-126722380D01*
X127277904Y-126770000D01*
X127230285Y-126865238D01*
%TO.C,04*%
X168163809Y-129500380D02*
X168068571Y-129500380D01*
X167973333Y-129548000D01*
X167925714Y-129595619D01*
X167878095Y-129690857D01*
X167830476Y-129881333D01*
X167830476Y-130119428D01*
X167878095Y-130309904D01*
X167925714Y-130405142D01*
X167973333Y-130452761D01*
X168068571Y-130500380D01*
X168163809Y-130500380D01*
X168259047Y-130452761D01*
X168306666Y-130405142D01*
X168354285Y-130309904D01*
X168401904Y-130119428D01*
X168401904Y-129881333D01*
X168354285Y-129690857D01*
X168306666Y-129595619D01*
X168259047Y-129548000D01*
X168163809Y-129500380D01*
X166973333Y-129833714D02*
X166973333Y-130500380D01*
X167211428Y-129452761D02*
X167449523Y-130167047D01*
X166830476Y-130167047D01*
%TO.C,RST*%
X147867619Y-130500380D02*
X148200952Y-130024190D01*
X148439047Y-130500380D02*
X148439047Y-129500380D01*
X148058095Y-129500380D01*
X147962857Y-129548000D01*
X147915238Y-129595619D01*
X147867619Y-129690857D01*
X147867619Y-129833714D01*
X147915238Y-129928952D01*
X147962857Y-129976571D01*
X148058095Y-130024190D01*
X148439047Y-130024190D01*
X147486666Y-130452761D02*
X147343809Y-130500380D01*
X147105714Y-130500380D01*
X147010476Y-130452761D01*
X146962857Y-130405142D01*
X146915238Y-130309904D01*
X146915238Y-130214666D01*
X146962857Y-130119428D01*
X147010476Y-130071809D01*
X147105714Y-130024190D01*
X147296190Y-129976571D01*
X147391428Y-129928952D01*
X147439047Y-129881333D01*
X147486666Y-129786095D01*
X147486666Y-129690857D01*
X147439047Y-129595619D01*
X147391428Y-129548000D01*
X147296190Y-129500380D01*
X147058095Y-129500380D01*
X146915238Y-129548000D01*
X146629523Y-129500380D02*
X146058095Y-129500380D01*
X146343809Y-130500380D02*
X146343809Y-129500380D01*
%TO.C,IR LED*%
D11*
X119741904Y-98539523D02*
X118941904Y-98539523D01*
X119741904Y-99377619D02*
X119360952Y-99110952D01*
X119741904Y-98920476D02*
X118941904Y-98920476D01*
X118941904Y-99225238D01*
X118980000Y-99301428D01*
X119018095Y-99339523D01*
X119094285Y-99377619D01*
X119208571Y-99377619D01*
X119284761Y-99339523D01*
X119322857Y-99301428D01*
X119360952Y-99225238D01*
X119360952Y-98920476D01*
X119741904Y-100710952D02*
X119741904Y-100330000D01*
X118941904Y-100330000D01*
X119322857Y-100977619D02*
X119322857Y-101244285D01*
X119741904Y-101358571D02*
X119741904Y-100977619D01*
X118941904Y-100977619D01*
X118941904Y-101358571D01*
X119741904Y-101701428D02*
X118941904Y-101701428D01*
X118941904Y-101891904D01*
X118980000Y-102006190D01*
X119056190Y-102082380D01*
X119132380Y-102120476D01*
X119284761Y-102158571D01*
X119399047Y-102158571D01*
X119551428Y-102120476D01*
X119627619Y-102082380D01*
X119703809Y-102006190D01*
X119741904Y-101891904D01*
X119741904Y-101701428D01*
%TO.C,1N4001*%
D13*
X142500857Y-117115047D02*
X142848285Y-117115047D01*
X142674571Y-117115047D02*
X142674571Y-116507047D01*
X142732476Y-116593904D01*
X142790380Y-116651809D01*
X142848285Y-116680761D01*
X142240285Y-117115047D02*
X142240285Y-116507047D01*
X141892857Y-117115047D01*
X141892857Y-116507047D01*
X141342761Y-116709714D02*
X141342761Y-117115047D01*
X141487523Y-116478095D02*
X141632285Y-116912380D01*
X141255904Y-116912380D01*
X140908476Y-116507047D02*
X140850571Y-116507047D01*
X140792666Y-116536000D01*
X140763714Y-116564952D01*
X140734761Y-116622857D01*
X140705809Y-116738666D01*
X140705809Y-116883428D01*
X140734761Y-116999238D01*
X140763714Y-117057142D01*
X140792666Y-117086095D01*
X140850571Y-117115047D01*
X140908476Y-117115047D01*
X140966380Y-117086095D01*
X140995333Y-117057142D01*
X141024285Y-116999238D01*
X141053238Y-116883428D01*
X141053238Y-116738666D01*
X141024285Y-116622857D01*
X140995333Y-116564952D01*
X140966380Y-116536000D01*
X140908476Y-116507047D01*
X140329428Y-116507047D02*
X140271523Y-116507047D01*
X140213619Y-116536000D01*
X140184666Y-116564952D01*
X140155714Y-116622857D01*
X140126761Y-116738666D01*
X140126761Y-116883428D01*
X140155714Y-116999238D01*
X140184666Y-117057142D01*
X140213619Y-117086095D01*
X140271523Y-117115047D01*
X140329428Y-117115047D01*
X140387333Y-117086095D01*
X140416285Y-117057142D01*
X140445238Y-116999238D01*
X140474190Y-116883428D01*
X140474190Y-116738666D01*
X140445238Y-116622857D01*
X140416285Y-116564952D01*
X140387333Y-116536000D01*
X140329428Y-116507047D01*
X139547714Y-117115047D02*
X139895142Y-117115047D01*
X139721428Y-117115047D02*
X139721428Y-116507047D01*
X139779333Y-116593904D01*
X139837238Y-116651809D01*
X139895142Y-116680761D01*
%TO.C,LED2*%
D11*
X182225904Y-108324761D02*
X182225904Y-107943809D01*
X181425904Y-107943809D01*
X181806857Y-108591428D02*
X181806857Y-108858095D01*
X182225904Y-108972380D02*
X182225904Y-108591428D01*
X181425904Y-108591428D01*
X181425904Y-108972380D01*
X182225904Y-109315238D02*
X181425904Y-109315238D01*
X181425904Y-109505714D01*
X181464000Y-109620000D01*
X181540190Y-109696190D01*
X181616380Y-109734285D01*
X181768761Y-109772380D01*
X181883047Y-109772380D01*
X182035428Y-109734285D01*
X182111619Y-109696190D01*
X182187809Y-109620000D01*
X182225904Y-109505714D01*
X182225904Y-109315238D01*
X181502095Y-110077142D02*
X181464000Y-110115238D01*
X181425904Y-110191428D01*
X181425904Y-110381904D01*
X181464000Y-110458095D01*
X181502095Y-110496190D01*
X181578285Y-110534285D01*
X181654476Y-110534285D01*
X181768761Y-110496190D01*
X182225904Y-110039047D01*
X182225904Y-110534285D01*
%TO.C,LED1*%
X182225904Y-113404761D02*
X182225904Y-113023809D01*
X181425904Y-113023809D01*
X181806857Y-113671428D02*
X181806857Y-113938095D01*
X182225904Y-114052380D02*
X182225904Y-113671428D01*
X181425904Y-113671428D01*
X181425904Y-114052380D01*
X182225904Y-114395238D02*
X181425904Y-114395238D01*
X181425904Y-114585714D01*
X181464000Y-114700000D01*
X181540190Y-114776190D01*
X181616380Y-114814285D01*
X181768761Y-114852380D01*
X181883047Y-114852380D01*
X182035428Y-114814285D01*
X182111619Y-114776190D01*
X182187809Y-114700000D01*
X182225904Y-114585714D01*
X182225904Y-114395238D01*
X182225904Y-115614285D02*
X182225904Y-115157142D01*
X182225904Y-115385714D02*
X181425904Y-115385714D01*
X181540190Y-115309523D01*
X181616380Y-115233333D01*
X181654476Y-115157142D01*
%TO.C,22uF*%
X139744285Y-122574095D02*
X139706190Y-122536000D01*
X139630000Y-122497904D01*
X139439523Y-122497904D01*
X139363333Y-122536000D01*
X139325238Y-122574095D01*
X139287142Y-122650285D01*
X139287142Y-122726476D01*
X139325238Y-122840761D01*
X139782380Y-123297904D01*
X139287142Y-123297904D01*
X138982380Y-122574095D02*
X138944285Y-122536000D01*
X138868095Y-122497904D01*
X138677619Y-122497904D01*
X138601428Y-122536000D01*
X138563333Y-122574095D01*
X138525238Y-122650285D01*
X138525238Y-122726476D01*
X138563333Y-122840761D01*
X139020476Y-123297904D01*
X138525238Y-123297904D01*
X137839523Y-122764571D02*
X137839523Y-123297904D01*
X138182380Y-122764571D02*
X138182380Y-123183619D01*
X138144285Y-123259809D01*
X138068095Y-123297904D01*
X137953809Y-123297904D01*
X137877619Y-123259809D01*
X137839523Y-123221714D01*
X137191904Y-122878857D02*
X137458571Y-122878857D01*
X137458571Y-123297904D02*
X137458571Y-122497904D01*
X137077619Y-122497904D01*
%TD*%
M02*
