M48
; DRILL file {KiCad (5.1.12)-1} date 07/01/22 18:07:07
; FORMAT={-:-/ absolute / inch / decimal}
; #@! TF.CreationDate,2022-07-01T18:07:07+09:00
; #@! TF.GenerationSoftware,Kicad,Pcbnew,(5.1.12)-1
FMAT,2
INCH
T1C0.0236
T2C0.0276
T3C0.0295
T4C0.0315
T5C0.0354
T6C0.0394
T7C0.0512
%
G90
G05
T1
X5.4213Y-4.74
X5.5Y-4.74
T2
X4.78Y-3.96
X4.98Y-3.96
X5.4Y-3.8
X5.4Y-4.1
X5.5Y-3.9
X5.5Y-4.1
X5.6Y-3.9
X5.6Y-4.1
X6.9Y-4.3
X6.9Y-4.5
T3
X5.4Y-4.6
X5.7Y-4.6
T4
X4.78Y-4.08
X4.88Y-4.08
X4.98Y-4.08
X5.4Y-4.2
X5.4Y-4.5
X5.5Y-4.2
X5.5Y-4.5
X5.6Y-4.2
X5.6Y-4.5
X5.7Y-4.0016
X5.7Y-4.1
X5.7Y-4.2
X5.7Y-4.5
T5
X4.6Y-3.9
X4.6Y-4.0
X7.0Y-4.3
X7.0Y-4.5
X7.1Y-4.3
X7.1Y-4.5
T6
X5.2Y-4.5
X5.2Y-4.6
X5.2Y-4.7
X5.2Y-4.9
X5.2Y-5.0
X5.2Y-5.1
X5.2Y-5.2
X5.24Y-3.5
X5.2402Y-3.4
X5.34Y-3.5
X5.3402Y-3.4
X5.44Y-3.5
X5.4402Y-3.4
X5.54Y-3.5
X5.5402Y-3.4
X5.6Y-5.2
X5.6Y-5.3
X5.64Y-3.5
X5.6402Y-3.4
X5.7Y-5.2
X5.7Y-5.3
X5.74Y-3.5
X5.7402Y-3.4
X5.8Y-5.2
X5.8Y-5.3
X5.84Y-3.5
X5.8402Y-3.4
X5.9Y-5.2
X5.9Y-5.3
X5.94Y-3.5
X5.9402Y-3.4
X6.0Y-5.2
X6.0Y-5.3
X6.04Y-3.5
X6.0402Y-3.4
X6.1Y-5.2
X6.1Y-5.3
X6.14Y-3.5
X6.1402Y-3.4
X6.2Y-3.75
X6.2Y-5.2
X6.2Y-5.3
X6.3Y-3.4
X6.3Y-3.5
X6.3Y-3.75
X6.3Y-4.9
X6.3Y-5.2
X6.3Y-5.3
X6.4Y-3.4
X6.4Y-3.5
X6.4Y-3.75
X6.4Y-4.9
X6.5Y-3.4
X6.5Y-3.5
X6.5Y-3.75
X6.5Y-4.9
X6.5Y-5.2
X6.5Y-5.3
X6.6Y-3.4
X6.6Y-3.5
X6.6Y-3.75
X6.6Y-4.9
X6.6Y-5.2
X6.6Y-5.3
X6.7Y-3.4
X6.7Y-3.5
X6.7Y-5.2
X6.7Y-5.3
X6.8Y-3.4
X6.8Y-3.5
X6.8Y-5.2
X6.8Y-5.3
X6.9Y-3.4
X6.9Y-3.5
X6.9Y-5.2
X6.9Y-5.3
X7.0Y-3.4
X7.0Y-3.5
X7.0Y-5.2
X7.0Y-5.3
T7
G00X4.6Y-3.6051
M15
G01X4.6Y-3.6327
M16
G05
G00X4.7398Y-3.8
M15
G01X4.7673Y-3.8
M16
G05
G00X4.8441Y-3.5205
M15
G01X4.8913Y-3.5205
M16
G05
G00X4.8913Y-3.4142
M15
G01X4.9386Y-3.4142
M16
G05
G00X5.0409Y-3.7941
M15
G01X5.0409Y-3.7665
M16
G05
T0
M30
