%TF.GenerationSoftware,KiCad,Pcbnew,(5.1.12)-1*%
%TF.CreationDate,2022-07-01T18:07:02+09:00*%
%TF.ProjectId,WemosD1Shield,57656d6f-7344-4315-9368-69656c642e6b,rev?*%
%TF.SameCoordinates,Original*%
%TF.FileFunction,Copper,L1,Top*%
%TF.FilePolarity,Positive*%
%FSLAX46Y46*%
G04 Gerber Fmt 4.6, Leading zero omitted, Abs format (unit mm)*
G04 Created by KiCad (PCBNEW (5.1.12)-1) date 2022-07-01 18:07:02*
%MOMM*%
%LPD*%
G01*
G04 APERTURE LIST*
%TA.AperFunction,ComponentPad*%
%ADD10O,1.600000X1.600000*%
%TD*%
%TA.AperFunction,ComponentPad*%
%ADD11R,1.600000X1.600000*%
%TD*%
%TA.AperFunction,ComponentPad*%
%ADD12C,1.600000*%
%TD*%
%TA.AperFunction,ComponentPad*%
%ADD13O,1.400000X1.400000*%
%TD*%
%TA.AperFunction,ComponentPad*%
%ADD14C,1.400000*%
%TD*%
%TA.AperFunction,ComponentPad*%
%ADD15R,1.500000X1.500000*%
%TD*%
%TA.AperFunction,ComponentPad*%
%ADD16C,1.500000*%
%TD*%
%TA.AperFunction,ComponentPad*%
%ADD17R,1.700000X1.700000*%
%TD*%
%TA.AperFunction,ComponentPad*%
%ADD18O,1.700000X1.700000*%
%TD*%
%TA.AperFunction,ComponentPad*%
%ADD19C,1.700000*%
%TD*%
%TA.AperFunction,ComponentPad*%
%ADD20R,1.400000X1.400000*%
%TD*%
%TA.AperFunction,ComponentPad*%
%ADD21O,2.200000X4.000000*%
%TD*%
%TA.AperFunction,ComponentPad*%
%ADD22O,4.000000X2.200000*%
%TD*%
%TA.AperFunction,ComponentPad*%
%ADD23R,4.000000X2.200000*%
%TD*%
%TA.AperFunction,ComponentPad*%
%ADD24C,1.800000*%
%TD*%
%TA.AperFunction,ComponentPad*%
%ADD25R,1.800000X1.800000*%
%TD*%
%TA.AperFunction,ComponentPad*%
%ADD26O,1.500000X1.500000*%
%TD*%
%TA.AperFunction,ComponentPad*%
%ADD27R,1.200000X1.200000*%
%TD*%
%TA.AperFunction,ComponentPad*%
%ADD28C,1.200000*%
%TD*%
%TA.AperFunction,Conductor*%
%ADD29C,1.000000*%
%TD*%
%TA.AperFunction,Conductor*%
%ADD30C,0.250000*%
%TD*%
%TA.AperFunction,Conductor*%
%ADD31C,0.254000*%
%TD*%
%TA.AperFunction,Conductor*%
%ADD32C,0.100000*%
%TD*%
G04 APERTURE END LIST*
D10*
%TO.P,A1,16*%
%TO.N,Net-(A1-Pad16)*%
X175260000Y-86360000D03*
%TO.P,A1,15*%
%TO.N,Net-(A1-Pad15)*%
X177800000Y-86360000D03*
%TO.P,A1,30*%
%TO.N,Net-(A1-Pad30)*%
X138180000Y-86360000D03*
%TO.P,A1,14*%
%TO.N,Net-(A1-Pad14)*%
X177800000Y-134620000D03*
D11*
%TO.P,A1,29*%
%TO.N,GND*%
X140720000Y-86360000D03*
D10*
%TO.P,A1,13*%
%TO.N,Net-(A1-Pad13)*%
X175260000Y-134620000D03*
%TO.P,A1,28*%
%TO.N,Net-(A1-Pad28)*%
X143260000Y-86360000D03*
%TO.P,A1,12*%
%TO.N,Net-(A1-Pad12)*%
X172720000Y-134620000D03*
%TO.P,A1,27*%
%TO.N,Net-(A1-Pad27)*%
X145800000Y-86360000D03*
%TO.P,A1,11*%
%TO.N,Net-(A1-Pad11)*%
X170180000Y-134620000D03*
%TO.P,A1,26*%
%TO.N,Net-(A1-Pad26)*%
X148340000Y-86360000D03*
%TO.P,A1,10*%
%TO.N,Net-(A1-Pad10)*%
X167640000Y-134620000D03*
%TO.P,A1,25*%
%TO.N,Net-(A1-Pad25)*%
X150880000Y-86360000D03*
%TO.P,A1,9*%
%TO.N,Net-(A1-Pad9)*%
X165100000Y-134620000D03*
%TO.P,A1,24*%
%TO.N,Net-(A1-Pad24)*%
X153420000Y-86360000D03*
%TO.P,A1,8*%
%TO.N,Net-(A1-Pad8)*%
X160020000Y-134620000D03*
%TO.P,A1,23*%
%TO.N,Net-(A1-Pad23)*%
X155960000Y-86360000D03*
D11*
%TO.P,A1,7*%
%TO.N,GND*%
X157480000Y-134620000D03*
D10*
%TO.P,A1,22*%
%TO.N,Net-(A1-Pad22)*%
X160020000Y-86360000D03*
D11*
%TO.P,A1,6*%
%TO.N,GND*%
X154940000Y-134620000D03*
D10*
%TO.P,A1,21*%
%TO.N,Net-(A1-Pad21)*%
X162560000Y-86360000D03*
%TO.P,A1,5*%
%TO.N,VCC*%
X152400000Y-134620000D03*
%TO.P,A1,20*%
%TO.N,Net-(A1-Pad20)*%
X165100000Y-86360000D03*
%TO.P,A1,4*%
%TO.N,Net-(A1-Pad4)*%
X149860000Y-134620000D03*
%TO.P,A1,19*%
%TO.N,Net-(A1-Pad19)*%
X167640000Y-86360000D03*
%TO.P,A1,3*%
%TO.N,Net-(A1-Pad3)*%
X147320000Y-134620000D03*
%TO.P,A1,18*%
%TO.N,Net-(A1-Pad18)*%
X170180000Y-86360000D03*
%TO.P,A1,2*%
%TO.N,Net-(A1-Pad2)*%
X144780000Y-134620000D03*
%TO.P,A1,17*%
%TO.N,Net-(A1-Pad17)*%
X172720000Y-86360000D03*
D12*
%TO.P,A1,1*%
%TO.N,Net-(A1-Pad1)*%
X142240000Y-134620000D03*
D10*
%TO.P,A1,31*%
%TO.N,Net-(A1-Pad31)*%
X135640000Y-86360000D03*
%TO.P,A1,32*%
%TO.N,Net-(A1-Pad32)*%
X133100000Y-86360000D03*
%TD*%
D13*
%TO.P,4.7k,2*%
%TO.N,Net-(C1-Pad1)*%
X139700000Y-104140000D03*
D14*
%TO.P,4.7k,1*%
%TO.N,Net-(R4-Pad2)*%
X139700000Y-99060000D03*
%TD*%
D13*
%TO.P,10M,2*%
%TO.N,Net-(R4-Pad2)*%
X137160000Y-96520000D03*
D14*
%TO.P,10M,1*%
%TO.N,VCC*%
X137160000Y-104140000D03*
%TD*%
D11*
%TO.P,0.1uF,2*%
%TO.N,GND*%
X144780000Y-101640000D03*
D12*
%TO.P,0.1uF,1*%
%TO.N,Net-(C2-Pad1)*%
X144780000Y-104140000D03*
%TD*%
D15*
%TO.P,2N7000,1*%
%TO.N,GND*%
X126492000Y-103632000D03*
D16*
%TO.P,2N7000,3*%
%TO.N,Net-(Q2-Pad3)*%
X121412000Y-103632000D03*
%TO.P,2N7000,2*%
%TO.N,Net-(A1-Pad10)*%
X123952000Y-103632000D03*
%TD*%
D17*
%TO.P,DHT22,3*%
%TO.N,GND*%
X132080000Y-119380000D03*
D18*
%TO.P,DHT22,2*%
%TO.N,Net-(A1-Pad22)*%
X132080000Y-116840000D03*
D19*
%TO.P,DHT22,1*%
%TO.N,VCC*%
X132080000Y-114300000D03*
%TD*%
D18*
%TO.P,VCC,4*%
%TO.N,Net-(J8-Pad4)*%
X160020000Y-124460000D03*
%TO.P,VCC,3*%
%TO.N,Net-(J8-Pad3)*%
X162560000Y-124460000D03*
D17*
%TO.P,VCC,2*%
%TO.N,GND*%
X165100000Y-124460000D03*
D19*
%TO.P,VCC,1*%
%TO.N,VCC*%
X167640000Y-124460000D03*
%TD*%
D18*
%TO.P,Rx,5*%
%TO.N,Net-(J7-Pad5)*%
X157480000Y-95250000D03*
%TO.P,Rx,4*%
%TO.N,Net-(J7-Pad4)*%
X160020000Y-95250000D03*
%TO.P,Rx,3*%
%TO.N,Net-(A1-Pad20)*%
X162560000Y-95250000D03*
%TO.P,Rx,2*%
%TO.N,Net-(A1-Pad19)*%
X165100000Y-95250000D03*
D19*
%TO.P,Rx,1*%
%TO.N,Net-(J7-Pad1)*%
X167640000Y-95250000D03*
%TD*%
D10*
%TO.P,NE555,8*%
%TO.N,VCC*%
X137160000Y-106680000D03*
%TO.P,NE555,4*%
X144780000Y-114300000D03*
%TO.P,NE555,7*%
%TO.N,Net-(R4-Pad2)*%
X139700000Y-106680000D03*
%TO.P,NE555,3*%
%TO.N,Net-(D4-Pad1)*%
X142240000Y-114300000D03*
%TO.P,NE555,6*%
%TO.N,Net-(C1-Pad1)*%
X142240000Y-106680000D03*
%TO.P,NE555,2*%
X139700000Y-114300000D03*
%TO.P,NE555,5*%
%TO.N,Net-(C2-Pad1)*%
X144780000Y-106680000D03*
D11*
%TO.P,NE555,1*%
%TO.N,GND*%
X137160000Y-114300000D03*
%TD*%
D20*
%TO.P,330,2*%
%TO.N,GND*%
X175260000Y-114300000D03*
D14*
%TO.P,330,1*%
%TO.N,Net-(D1-Pad1)*%
X175260000Y-109220000D03*
%TD*%
D13*
%TO.P,330,2*%
%TO.N,Net-(A1-Pad21)*%
X142240000Y-99060000D03*
D14*
%TO.P,330,1*%
%TO.N,Net-(C1-Pad1)*%
X142240000Y-104140000D03*
%TD*%
D13*
%TO.P,100,2*%
%TO.N,Net-(Q2-Pad3)*%
X121412000Y-100584000D03*
D14*
%TO.P,100,1*%
%TO.N,Net-(J6-PadR)*%
X126492000Y-100584000D03*
%TD*%
D21*
%TO.P,AudioJack,S*%
%TO.N,Net-(J6-PadS)*%
X116840000Y-91920000D03*
D22*
%TO.P,AudioJack,R*%
%TO.N,Net-(J6-PadR)*%
X124840000Y-86720000D03*
%TO.P,AudioJack,RN*%
%TO.N,Net-(D5-Pad1)*%
X123640000Y-89420000D03*
D21*
%TO.P,AudioJack,TN*%
%TO.N,VCC*%
X128040000Y-96020000D03*
D23*
%TO.P,AudioJack,T*%
X120740000Y-96520000D03*
%TD*%
D18*
%TO.P,Relay,4*%
%TO.N,VCC*%
X132080000Y-132080000D03*
%TO.P,Relay,3*%
%TO.N,Net-(A1-Pad24)*%
X132080000Y-129540000D03*
%TO.P,Relay,2*%
%TO.N,Net-(A1-Pad23)*%
X132080000Y-127000000D03*
D17*
%TO.P,Relay,1*%
%TO.N,GND*%
X132080000Y-124460000D03*
%TD*%
D18*
%TO.P,J4,10*%
%TO.N,Net-(A1-Pad32)*%
X133096000Y-88900000D03*
%TO.P,J4,9*%
%TO.N,Net-(A1-Pad31)*%
X135636000Y-88900000D03*
%TO.P,J4,8*%
%TO.N,Net-(A1-Pad30)*%
X138176000Y-88900000D03*
D17*
%TO.P,J4,7*%
%TO.N,GND*%
X140716000Y-88900000D03*
D18*
%TO.P,J4,6*%
%TO.N,Net-(A1-Pad28)*%
X143256000Y-88900000D03*
%TO.P,J4,5*%
%TO.N,Net-(A1-Pad27)*%
X145796000Y-88900000D03*
%TO.P,J4,4*%
%TO.N,Net-(A1-Pad26)*%
X148336000Y-88900000D03*
%TO.P,J4,3*%
%TO.N,Net-(A1-Pad25)*%
X150876000Y-88900000D03*
%TO.P,J4,2*%
%TO.N,Net-(A1-Pad24)*%
X153416000Y-88900000D03*
D19*
%TO.P,J4,1*%
%TO.N,Net-(A1-Pad23)*%
X155956000Y-88900000D03*
%TD*%
D18*
%TO.P,J3,8*%
%TO.N,Net-(A1-Pad22)*%
X160020000Y-88900000D03*
%TO.P,J3,7*%
%TO.N,Net-(A1-Pad21)*%
X162560000Y-88900000D03*
%TO.P,J3,6*%
%TO.N,Net-(A1-Pad20)*%
X165100000Y-88900000D03*
%TO.P,J3,5*%
%TO.N,Net-(A1-Pad19)*%
X167640000Y-88900000D03*
%TO.P,J3,4*%
%TO.N,Net-(A1-Pad18)*%
X170180000Y-88900000D03*
%TO.P,J3,3*%
%TO.N,Net-(A1-Pad17)*%
X172720000Y-88900000D03*
%TO.P,J3,2*%
%TO.N,Net-(A1-Pad16)*%
X175260000Y-88900000D03*
D19*
%TO.P,J3,1*%
%TO.N,Net-(A1-Pad15)*%
X177800000Y-88900000D03*
%TD*%
D18*
%TO.P,04,6*%
%TO.N,Net-(A1-Pad14)*%
X177800000Y-132080000D03*
%TO.P,04,5*%
%TO.N,Net-(A1-Pad13)*%
X175260000Y-132080000D03*
%TO.P,04,4*%
%TO.N,Net-(A1-Pad12)*%
X172720000Y-132080000D03*
%TO.P,04,3*%
%TO.N,Net-(A1-Pad11)*%
X170180000Y-132080000D03*
%TO.P,04,2*%
%TO.N,Net-(A1-Pad10)*%
X167640000Y-132080000D03*
D19*
%TO.P,04,1*%
%TO.N,Net-(A1-Pad9)*%
X165100000Y-132080000D03*
%TD*%
D18*
%TO.P,RST,8*%
%TO.N,Net-(A1-Pad8)*%
X160020000Y-132080000D03*
D17*
%TO.P,RST,7*%
%TO.N,GND*%
X157480000Y-132080000D03*
%TO.P,RST,6*%
X154940000Y-132080000D03*
D18*
%TO.P,RST,5*%
%TO.N,VCC*%
X152400000Y-132080000D03*
%TO.P,RST,4*%
%TO.N,Net-(A1-Pad4)*%
X149860000Y-132080000D03*
%TO.P,RST,3*%
%TO.N,Net-(A1-Pad3)*%
X147320000Y-132080000D03*
%TO.P,RST,2*%
%TO.N,Net-(A1-Pad2)*%
X144780000Y-132080000D03*
D19*
%TO.P,RST,1*%
%TO.N,Net-(J1-Pad1)*%
X142240000Y-132080000D03*
%TD*%
D24*
%TO.P,IR LED,2*%
%TO.N,VCC*%
X116840000Y-101600000D03*
D25*
%TO.P,IR LED,1*%
%TO.N,Net-(D5-Pad1)*%
X116840000Y-99060000D03*
%TD*%
D26*
%TO.P,1N4001,2*%
%TO.N,Net-(A1-Pad3)*%
X144780000Y-116840000D03*
D15*
%TO.P,1N4001,1*%
%TO.N,Net-(D4-Pad1)*%
X137160000Y-116840000D03*
%TD*%
D24*
%TO.P,LED2,2*%
%TO.N,Net-(A1-Pad18)*%
X180340000Y-109220000D03*
D25*
%TO.P,LED2,1*%
%TO.N,Net-(D1-Pad1)*%
X177800000Y-109220000D03*
%TD*%
D24*
%TO.P,LED1,2*%
%TO.N,Net-(A1-Pad17)*%
X180340000Y-114300000D03*
D25*
%TO.P,LED1,1*%
%TO.N,Net-(D1-Pad1)*%
X177800000Y-114300000D03*
%TD*%
D27*
%TO.P,22uF,2*%
%TO.N,GND*%
X137700000Y-120396000D03*
D28*
%TO.P,22uF,1*%
%TO.N,Net-(C1-Pad1)*%
X139700000Y-120396000D03*
%TD*%
D29*
%TO.N,Net-(A1-Pad16)*%
X175260000Y-86360000D02*
X175260000Y-88900000D01*
%TO.N,Net-(A1-Pad15)*%
X177800000Y-86360000D02*
X177800000Y-88900000D01*
%TO.N,Net-(A1-Pad30)*%
X138180000Y-88896000D02*
X138176000Y-88900000D01*
X138180000Y-86360000D02*
X138180000Y-88896000D01*
%TO.N,Net-(A1-Pad14)*%
X177800000Y-134620000D02*
X177800000Y-132080000D01*
%TO.N,Net-(A1-Pad13)*%
X175260000Y-134620000D02*
X175260000Y-132080000D01*
%TO.N,Net-(A1-Pad28)*%
X143260000Y-88896000D02*
X143256000Y-88900000D01*
X143260000Y-86360000D02*
X143260000Y-88896000D01*
%TO.N,Net-(A1-Pad12)*%
X172720000Y-134620000D02*
X172720000Y-132080000D01*
%TO.N,Net-(A1-Pad27)*%
X145800000Y-88896000D02*
X145796000Y-88900000D01*
X145800000Y-86360000D02*
X145800000Y-88896000D01*
%TO.N,Net-(A1-Pad11)*%
X170180000Y-134620000D02*
X170180000Y-132080000D01*
%TO.N,Net-(A1-Pad26)*%
X148340000Y-88896000D02*
X148336000Y-88900000D01*
X148340000Y-86360000D02*
X148340000Y-88896000D01*
%TO.N,Net-(A1-Pad10)*%
X167640000Y-134620000D02*
X167640000Y-132080000D01*
%TO.N,Net-(A1-Pad25)*%
X150880000Y-88896000D02*
X150876000Y-88900000D01*
X150880000Y-86360000D02*
X150880000Y-88896000D01*
%TO.N,Net-(A1-Pad9)*%
X165100000Y-134620000D02*
X165100000Y-132080000D01*
%TO.N,Net-(A1-Pad24)*%
X153420000Y-88896000D02*
X153416000Y-88900000D01*
X153420000Y-86360000D02*
X153420000Y-88896000D01*
%TO.N,Net-(A1-Pad8)*%
X160020000Y-134620000D02*
X160020000Y-132080000D01*
%TO.N,Net-(A1-Pad23)*%
X155960000Y-88896000D02*
X155956000Y-88900000D01*
X155960000Y-86360000D02*
X155960000Y-88896000D01*
%TO.N,Net-(A1-Pad22)*%
X160020000Y-86360000D02*
X160020000Y-88900000D01*
%TO.N,Net-(A1-Pad21)*%
X162560000Y-86360000D02*
X162560000Y-88900000D01*
D30*
X147225001Y-94074999D02*
X157385001Y-94074999D01*
X157385001Y-94074999D02*
X162560000Y-88900000D01*
X142240000Y-99060000D02*
X147225001Y-94074999D01*
D29*
%TO.N,Net-(A1-Pad20)*%
X165100000Y-86360000D02*
X165100000Y-88900000D01*
D30*
X162560000Y-91440000D02*
X162560000Y-95250000D01*
X165100000Y-88900000D02*
X162560000Y-91440000D01*
D29*
%TO.N,Net-(A1-Pad4)*%
X149860000Y-134620000D02*
X149860000Y-132080000D01*
%TO.N,Net-(A1-Pad19)*%
X167640000Y-86360000D02*
X167640000Y-88900000D01*
D30*
X165100000Y-91440000D02*
X167640000Y-88900000D01*
X165100000Y-95250000D02*
X165100000Y-91440000D01*
D29*
%TO.N,Net-(A1-Pad3)*%
X147320000Y-134620000D02*
X147320000Y-132080000D01*
D30*
X147320000Y-119380000D02*
X144780000Y-116840000D01*
X147320000Y-132080000D02*
X147320000Y-119380000D01*
D29*
%TO.N,Net-(A1-Pad18)*%
X170180000Y-86360000D02*
X170180000Y-88900000D01*
D30*
X170180000Y-99060000D02*
X180340000Y-109220000D01*
X170180000Y-88900000D02*
X170180000Y-99060000D01*
D29*
%TO.N,Net-(A1-Pad2)*%
X144780000Y-134620000D02*
X144780000Y-132080000D01*
%TO.N,Net-(A1-Pad17)*%
X172720000Y-86360000D02*
X172720000Y-88900000D01*
D30*
X172720000Y-88900000D02*
X172720000Y-99695000D01*
X181565001Y-108540001D02*
X181565001Y-113074999D01*
X181565001Y-113074999D02*
X180340000Y-114300000D01*
X172720000Y-99695000D02*
X181565001Y-108540001D01*
D29*
%TO.N,Net-(A1-Pad31)*%
X135640000Y-88896000D02*
X135636000Y-88900000D01*
X135640000Y-86360000D02*
X135640000Y-88896000D01*
%TO.N,Net-(A1-Pad32)*%
X133100000Y-88896000D02*
X133096000Y-88900000D01*
X133100000Y-86360000D02*
X133100000Y-88896000D01*
%TO.N,GND*%
X140720000Y-88896000D02*
X140716000Y-88900000D01*
D30*
%TO.N,Net-(C1-Pad1)*%
X142240000Y-106680000D02*
X142240000Y-104140000D01*
X142240000Y-104140000D02*
X139700000Y-104140000D01*
X139700000Y-114300000D02*
X139700000Y-120396000D01*
%TO.N,Net-(C2-Pad1)*%
X144780000Y-106680000D02*
X144780000Y-104140000D01*
%TO.N,Net-(D1-Pad1)*%
X175260000Y-109220000D02*
X177800000Y-109220000D01*
X177800000Y-109220000D02*
X177800000Y-114300000D01*
D29*
%TO.N,VCC*%
X152400000Y-134620000D02*
X152400000Y-132080000D01*
X152400000Y-122313998D02*
X144780000Y-114693998D01*
X144780000Y-114693998D02*
X144780000Y-114300000D01*
X152400000Y-132080000D02*
X152400000Y-122313998D01*
X144780000Y-114300000D02*
X137160000Y-106680000D01*
X137160000Y-106680000D02*
X137160000Y-104140000D01*
X136160000Y-104140000D02*
X128040000Y-96020000D01*
X137160000Y-104140000D02*
X136160000Y-104140000D01*
X137160000Y-109220000D02*
X132080000Y-114300000D01*
X137160000Y-106680000D02*
X137160000Y-109220000D01*
X167640000Y-125662081D02*
X167640000Y-124460000D01*
X167292080Y-126010001D02*
X167640000Y-125662081D01*
X157267918Y-126010001D02*
X167292080Y-126010001D01*
X152400000Y-130877919D02*
X157267918Y-126010001D01*
X152400000Y-132080000D02*
X152400000Y-130877919D01*
X121240000Y-96020000D02*
X120740000Y-96520000D01*
X128040000Y-96020000D02*
X121240000Y-96020000D01*
X117760000Y-101600000D02*
X116840000Y-101600000D01*
X120740000Y-98620000D02*
X117760000Y-101600000D01*
X120740000Y-96520000D02*
X120740000Y-98620000D01*
X130529999Y-130529999D02*
X132080000Y-132080000D01*
X130529999Y-115850001D02*
X130529999Y-130529999D01*
X132080000Y-114300000D02*
X130529999Y-115850001D01*
D30*
%TO.N,Net-(D5-Pad1)*%
X116840000Y-96220000D02*
X123640000Y-89420000D01*
X116840000Y-99060000D02*
X116840000Y-96220000D01*
%TO.N,Net-(Q2-Pad3)*%
X121412000Y-103632000D02*
X121412000Y-100584000D01*
%TO.N,Net-(R4-Pad2)*%
X138674999Y-100085001D02*
X139700000Y-99060000D01*
X138674999Y-105654999D02*
X138674999Y-100085001D01*
X139700000Y-106680000D02*
X138674999Y-105654999D01*
X139700000Y-99060000D02*
X137160000Y-96520000D01*
%TD*%
D31*
%TO.N,GND*%
X179655000Y-85627736D02*
X179655001Y-96994351D01*
X179651687Y-97028000D01*
X179664912Y-97162283D01*
X179694591Y-97260119D01*
X179704082Y-97291406D01*
X179767689Y-97410407D01*
X179792175Y-97440243D01*
X179831840Y-97488576D01*
X179831847Y-97488583D01*
X179853290Y-97514711D01*
X179879418Y-97536154D01*
X182195000Y-99851736D01*
X182195000Y-108109663D01*
X182186812Y-108099686D01*
X182128800Y-108028997D01*
X182128796Y-108028993D01*
X182105002Y-108000000D01*
X182076010Y-107976207D01*
X173480000Y-99380199D01*
X173480000Y-90178178D01*
X173666632Y-90053475D01*
X173873475Y-89846632D01*
X173990000Y-89672240D01*
X174106525Y-89846632D01*
X174313368Y-90053475D01*
X174556589Y-90215990D01*
X174826842Y-90327932D01*
X175113740Y-90385000D01*
X175406260Y-90385000D01*
X175693158Y-90327932D01*
X175963411Y-90215990D01*
X176206632Y-90053475D01*
X176413475Y-89846632D01*
X176530000Y-89672240D01*
X176646525Y-89846632D01*
X176853368Y-90053475D01*
X177096589Y-90215990D01*
X177366842Y-90327932D01*
X177653740Y-90385000D01*
X177946260Y-90385000D01*
X178233158Y-90327932D01*
X178503411Y-90215990D01*
X178746632Y-90053475D01*
X178953475Y-89846632D01*
X179115990Y-89603411D01*
X179227932Y-89333158D01*
X179285000Y-89046260D01*
X179285000Y-88753740D01*
X179227932Y-88466842D01*
X179115990Y-88196589D01*
X178953475Y-87953368D01*
X178935000Y-87934893D01*
X178935000Y-87244284D01*
X179071680Y-87039727D01*
X179179853Y-86778574D01*
X179235000Y-86501335D01*
X179235000Y-86218665D01*
X179179853Y-85941426D01*
X179071680Y-85680273D01*
X178914637Y-85445241D01*
X178714759Y-85245363D01*
X178479727Y-85088320D01*
X178218574Y-84980147D01*
X177941335Y-84925000D01*
X177658665Y-84925000D01*
X177381426Y-84980147D01*
X177120273Y-85088320D01*
X176885241Y-85245363D01*
X176685363Y-85445241D01*
X176530000Y-85677759D01*
X176374637Y-85445241D01*
X176174759Y-85245363D01*
X175939727Y-85088320D01*
X175678574Y-84980147D01*
X175401335Y-84925000D01*
X175118665Y-84925000D01*
X174841426Y-84980147D01*
X174580273Y-85088320D01*
X174345241Y-85245363D01*
X174145363Y-85445241D01*
X173990000Y-85677759D01*
X173834637Y-85445241D01*
X173634759Y-85245363D01*
X173399727Y-85088320D01*
X173138574Y-84980147D01*
X172861335Y-84925000D01*
X172578665Y-84925000D01*
X172301426Y-84980147D01*
X172040273Y-85088320D01*
X171805241Y-85245363D01*
X171605363Y-85445241D01*
X171450000Y-85677759D01*
X171294637Y-85445241D01*
X171094759Y-85245363D01*
X170859727Y-85088320D01*
X170598574Y-84980147D01*
X170321335Y-84925000D01*
X170038665Y-84925000D01*
X169761426Y-84980147D01*
X169500273Y-85088320D01*
X169265241Y-85245363D01*
X169065363Y-85445241D01*
X168910000Y-85677759D01*
X168754637Y-85445241D01*
X168554759Y-85245363D01*
X168319727Y-85088320D01*
X168058574Y-84980147D01*
X167781335Y-84925000D01*
X167498665Y-84925000D01*
X167221426Y-84980147D01*
X166960273Y-85088320D01*
X166725241Y-85245363D01*
X166525363Y-85445241D01*
X166370000Y-85677759D01*
X166214637Y-85445241D01*
X166014759Y-85245363D01*
X165779727Y-85088320D01*
X165518574Y-84980147D01*
X165241335Y-84925000D01*
X164958665Y-84925000D01*
X164681426Y-84980147D01*
X164420273Y-85088320D01*
X164185241Y-85245363D01*
X163985363Y-85445241D01*
X163830000Y-85677759D01*
X163674637Y-85445241D01*
X163474759Y-85245363D01*
X163239727Y-85088320D01*
X162978574Y-84980147D01*
X162701335Y-84925000D01*
X162418665Y-84925000D01*
X162141426Y-84980147D01*
X161880273Y-85088320D01*
X161645241Y-85245363D01*
X161445363Y-85445241D01*
X161290000Y-85677759D01*
X161134637Y-85445241D01*
X160934759Y-85245363D01*
X160699727Y-85088320D01*
X160438574Y-84980147D01*
X160161335Y-84925000D01*
X159878665Y-84925000D01*
X159601426Y-84980147D01*
X159340273Y-85088320D01*
X159105241Y-85245363D01*
X158905363Y-85445241D01*
X158748320Y-85680273D01*
X158640147Y-85941426D01*
X158585000Y-86218665D01*
X158585000Y-86501335D01*
X158640147Y-86778574D01*
X158748320Y-87039727D01*
X158885000Y-87244284D01*
X158885001Y-87934892D01*
X158866525Y-87953368D01*
X158704010Y-88196589D01*
X158592068Y-88466842D01*
X158535000Y-88753740D01*
X158535000Y-89046260D01*
X158592068Y-89333158D01*
X158704010Y-89603411D01*
X158866525Y-89846632D01*
X159073368Y-90053475D01*
X159316589Y-90215990D01*
X159586842Y-90327932D01*
X159873740Y-90385000D01*
X160000198Y-90385000D01*
X157070200Y-93314999D01*
X147262323Y-93314999D01*
X147225000Y-93311323D01*
X147187677Y-93314999D01*
X147187668Y-93314999D01*
X147076015Y-93325996D01*
X146932754Y-93369453D01*
X146800724Y-93440025D01*
X146743281Y-93487168D01*
X146685000Y-93534998D01*
X146661202Y-93563996D01*
X142478844Y-97746355D01*
X142371486Y-97725000D01*
X142108514Y-97725000D01*
X141850595Y-97776304D01*
X141607641Y-97876939D01*
X141388987Y-98023038D01*
X141203038Y-98208987D01*
X141056939Y-98427641D01*
X140970000Y-98637530D01*
X140883061Y-98427641D01*
X140736962Y-98208987D01*
X140551013Y-98023038D01*
X140332359Y-97876939D01*
X140089405Y-97776304D01*
X139831486Y-97725000D01*
X139568514Y-97725000D01*
X139461157Y-97746355D01*
X138473645Y-96758843D01*
X138495000Y-96651486D01*
X138495000Y-96388514D01*
X138443696Y-96130595D01*
X138343061Y-95887641D01*
X138196962Y-95668987D01*
X138011013Y-95483038D01*
X137792359Y-95336939D01*
X137549405Y-95236304D01*
X137291486Y-95185000D01*
X137028514Y-95185000D01*
X136770595Y-95236304D01*
X136527641Y-95336939D01*
X136308987Y-95483038D01*
X136123038Y-95668987D01*
X135976939Y-95887641D01*
X135876304Y-96130595D01*
X135825000Y-96388514D01*
X135825000Y-96651486D01*
X135876304Y-96909405D01*
X135976939Y-97152359D01*
X136123038Y-97371013D01*
X136308987Y-97556962D01*
X136527641Y-97703061D01*
X136770595Y-97803696D01*
X137028514Y-97855000D01*
X137291486Y-97855000D01*
X137398843Y-97833645D01*
X138386355Y-98821157D01*
X138365000Y-98928514D01*
X138365000Y-99191486D01*
X138386355Y-99298844D01*
X138163997Y-99521202D01*
X138134999Y-99545000D01*
X138111201Y-99573998D01*
X138111200Y-99573999D01*
X138040025Y-99660725D01*
X137969453Y-99792755D01*
X137925997Y-99936016D01*
X137911323Y-100085001D01*
X137915000Y-100122333D01*
X137914999Y-103038884D01*
X137792359Y-102956939D01*
X137549405Y-102856304D01*
X137291486Y-102805000D01*
X137028514Y-102805000D01*
X136770595Y-102856304D01*
X136566129Y-102940997D01*
X129775000Y-96149869D01*
X129775000Y-95034775D01*
X129749895Y-94779881D01*
X129650686Y-94452832D01*
X129489579Y-94151422D01*
X129272766Y-93887234D01*
X129008577Y-93670421D01*
X128707167Y-93509314D01*
X128380118Y-93410105D01*
X128040000Y-93376606D01*
X127699881Y-93410105D01*
X127372832Y-93509314D01*
X127071422Y-93670421D01*
X126807234Y-93887234D01*
X126590421Y-94151423D01*
X126429314Y-94452833D01*
X126330105Y-94779882D01*
X126319752Y-94885000D01*
X123086144Y-94885000D01*
X122984180Y-94830498D01*
X122864482Y-94794188D01*
X122740000Y-94781928D01*
X119352873Y-94781928D01*
X122979802Y-91155000D01*
X124625225Y-91155000D01*
X124880119Y-91129895D01*
X125207168Y-91030686D01*
X125508578Y-90869579D01*
X125772766Y-90652766D01*
X125989579Y-90388578D01*
X126150686Y-90087168D01*
X126249895Y-89760119D01*
X126283394Y-89420000D01*
X126249895Y-89079881D01*
X126150962Y-88753740D01*
X131611000Y-88753740D01*
X131611000Y-89046260D01*
X131668068Y-89333158D01*
X131780010Y-89603411D01*
X131942525Y-89846632D01*
X132149368Y-90053475D01*
X132392589Y-90215990D01*
X132662842Y-90327932D01*
X132949740Y-90385000D01*
X133242260Y-90385000D01*
X133529158Y-90327932D01*
X133799411Y-90215990D01*
X134042632Y-90053475D01*
X134249475Y-89846632D01*
X134366000Y-89672240D01*
X134482525Y-89846632D01*
X134689368Y-90053475D01*
X134932589Y-90215990D01*
X135202842Y-90327932D01*
X135489740Y-90385000D01*
X135782260Y-90385000D01*
X136069158Y-90327932D01*
X136339411Y-90215990D01*
X136582632Y-90053475D01*
X136789475Y-89846632D01*
X136906000Y-89672240D01*
X137022525Y-89846632D01*
X137229368Y-90053475D01*
X137472589Y-90215990D01*
X137742842Y-90327932D01*
X138029740Y-90385000D01*
X138322260Y-90385000D01*
X138609158Y-90327932D01*
X138879411Y-90215990D01*
X139122632Y-90053475D01*
X139254487Y-89921620D01*
X139276498Y-89994180D01*
X139335463Y-90104494D01*
X139414815Y-90201185D01*
X139511506Y-90280537D01*
X139621820Y-90339502D01*
X139741518Y-90375812D01*
X139866000Y-90388072D01*
X140430250Y-90385000D01*
X140589000Y-90226250D01*
X140589000Y-89027000D01*
X140569000Y-89027000D01*
X140569000Y-88773000D01*
X140589000Y-88773000D01*
X140589000Y-87640250D01*
X140593000Y-87636250D01*
X140593000Y-87573750D01*
X140843000Y-87573750D01*
X140843000Y-88773000D01*
X140863000Y-88773000D01*
X140863000Y-89027000D01*
X140843000Y-89027000D01*
X140843000Y-90226250D01*
X141001750Y-90385000D01*
X141566000Y-90388072D01*
X141690482Y-90375812D01*
X141810180Y-90339502D01*
X141920494Y-90280537D01*
X142017185Y-90201185D01*
X142096537Y-90104494D01*
X142155502Y-89994180D01*
X142177513Y-89921620D01*
X142309368Y-90053475D01*
X142552589Y-90215990D01*
X142822842Y-90327932D01*
X143109740Y-90385000D01*
X143402260Y-90385000D01*
X143689158Y-90327932D01*
X143959411Y-90215990D01*
X144202632Y-90053475D01*
X144409475Y-89846632D01*
X144526000Y-89672240D01*
X144642525Y-89846632D01*
X144849368Y-90053475D01*
X145092589Y-90215990D01*
X145362842Y-90327932D01*
X145649740Y-90385000D01*
X145942260Y-90385000D01*
X146229158Y-90327932D01*
X146499411Y-90215990D01*
X146742632Y-90053475D01*
X146949475Y-89846632D01*
X147066000Y-89672240D01*
X147182525Y-89846632D01*
X147389368Y-90053475D01*
X147632589Y-90215990D01*
X147902842Y-90327932D01*
X148189740Y-90385000D01*
X148482260Y-90385000D01*
X148769158Y-90327932D01*
X149039411Y-90215990D01*
X149282632Y-90053475D01*
X149489475Y-89846632D01*
X149606000Y-89672240D01*
X149722525Y-89846632D01*
X149929368Y-90053475D01*
X150172589Y-90215990D01*
X150442842Y-90327932D01*
X150729740Y-90385000D01*
X151022260Y-90385000D01*
X151309158Y-90327932D01*
X151579411Y-90215990D01*
X151822632Y-90053475D01*
X152029475Y-89846632D01*
X152146000Y-89672240D01*
X152262525Y-89846632D01*
X152469368Y-90053475D01*
X152712589Y-90215990D01*
X152982842Y-90327932D01*
X153269740Y-90385000D01*
X153562260Y-90385000D01*
X153849158Y-90327932D01*
X154119411Y-90215990D01*
X154362632Y-90053475D01*
X154569475Y-89846632D01*
X154686000Y-89672240D01*
X154802525Y-89846632D01*
X155009368Y-90053475D01*
X155252589Y-90215990D01*
X155522842Y-90327932D01*
X155809740Y-90385000D01*
X156102260Y-90385000D01*
X156389158Y-90327932D01*
X156659411Y-90215990D01*
X156902632Y-90053475D01*
X157109475Y-89846632D01*
X157271990Y-89603411D01*
X157383932Y-89333158D01*
X157441000Y-89046260D01*
X157441000Y-88753740D01*
X157383932Y-88466842D01*
X157271990Y-88196589D01*
X157109475Y-87953368D01*
X157095000Y-87938893D01*
X157095000Y-87244284D01*
X157231680Y-87039727D01*
X157339853Y-86778574D01*
X157395000Y-86501335D01*
X157395000Y-86218665D01*
X157339853Y-85941426D01*
X157231680Y-85680273D01*
X157074637Y-85445241D01*
X156874759Y-85245363D01*
X156639727Y-85088320D01*
X156378574Y-84980147D01*
X156101335Y-84925000D01*
X155818665Y-84925000D01*
X155541426Y-84980147D01*
X155280273Y-85088320D01*
X155045241Y-85245363D01*
X154845363Y-85445241D01*
X154690000Y-85677759D01*
X154534637Y-85445241D01*
X154334759Y-85245363D01*
X154099727Y-85088320D01*
X153838574Y-84980147D01*
X153561335Y-84925000D01*
X153278665Y-84925000D01*
X153001426Y-84980147D01*
X152740273Y-85088320D01*
X152505241Y-85245363D01*
X152305363Y-85445241D01*
X152150000Y-85677759D01*
X151994637Y-85445241D01*
X151794759Y-85245363D01*
X151559727Y-85088320D01*
X151298574Y-84980147D01*
X151021335Y-84925000D01*
X150738665Y-84925000D01*
X150461426Y-84980147D01*
X150200273Y-85088320D01*
X149965241Y-85245363D01*
X149765363Y-85445241D01*
X149610000Y-85677759D01*
X149454637Y-85445241D01*
X149254759Y-85245363D01*
X149019727Y-85088320D01*
X148758574Y-84980147D01*
X148481335Y-84925000D01*
X148198665Y-84925000D01*
X147921426Y-84980147D01*
X147660273Y-85088320D01*
X147425241Y-85245363D01*
X147225363Y-85445241D01*
X147070000Y-85677759D01*
X146914637Y-85445241D01*
X146714759Y-85245363D01*
X146479727Y-85088320D01*
X146218574Y-84980147D01*
X145941335Y-84925000D01*
X145658665Y-84925000D01*
X145381426Y-84980147D01*
X145120273Y-85088320D01*
X144885241Y-85245363D01*
X144685363Y-85445241D01*
X144530000Y-85677759D01*
X144374637Y-85445241D01*
X144174759Y-85245363D01*
X143939727Y-85088320D01*
X143678574Y-84980147D01*
X143401335Y-84925000D01*
X143118665Y-84925000D01*
X142841426Y-84980147D01*
X142580273Y-85088320D01*
X142345241Y-85245363D01*
X142146643Y-85443961D01*
X142145812Y-85435518D01*
X142109502Y-85315820D01*
X142050537Y-85205506D01*
X141971185Y-85108815D01*
X141874494Y-85029463D01*
X141764180Y-84970498D01*
X141644482Y-84934188D01*
X141520000Y-84921928D01*
X141005750Y-84925000D01*
X140847000Y-85083750D01*
X140847000Y-86233000D01*
X140867000Y-86233000D01*
X140867000Y-86487000D01*
X140847000Y-86487000D01*
X140847000Y-87569750D01*
X140843000Y-87573750D01*
X140593000Y-87573750D01*
X140593000Y-86487000D01*
X140573000Y-86487000D01*
X140573000Y-86233000D01*
X140593000Y-86233000D01*
X140593000Y-85083750D01*
X140434250Y-84925000D01*
X139920000Y-84921928D01*
X139795518Y-84934188D01*
X139675820Y-84970498D01*
X139565506Y-85029463D01*
X139468815Y-85108815D01*
X139389463Y-85205506D01*
X139330498Y-85315820D01*
X139294188Y-85435518D01*
X139293357Y-85443961D01*
X139094759Y-85245363D01*
X138859727Y-85088320D01*
X138598574Y-84980147D01*
X138321335Y-84925000D01*
X138038665Y-84925000D01*
X137761426Y-84980147D01*
X137500273Y-85088320D01*
X137265241Y-85245363D01*
X137065363Y-85445241D01*
X136910000Y-85677759D01*
X136754637Y-85445241D01*
X136554759Y-85245363D01*
X136319727Y-85088320D01*
X136058574Y-84980147D01*
X135781335Y-84925000D01*
X135498665Y-84925000D01*
X135221426Y-84980147D01*
X134960273Y-85088320D01*
X134725241Y-85245363D01*
X134525363Y-85445241D01*
X134370000Y-85677759D01*
X134214637Y-85445241D01*
X134014759Y-85245363D01*
X133779727Y-85088320D01*
X133518574Y-84980147D01*
X133241335Y-84925000D01*
X132958665Y-84925000D01*
X132681426Y-84980147D01*
X132420273Y-85088320D01*
X132185241Y-85245363D01*
X131985363Y-85445241D01*
X131828320Y-85680273D01*
X131720147Y-85941426D01*
X131665000Y-86218665D01*
X131665000Y-86501335D01*
X131720147Y-86778574D01*
X131828320Y-87039727D01*
X131965000Y-87244284D01*
X131965001Y-87930892D01*
X131942525Y-87953368D01*
X131780010Y-88196589D01*
X131668068Y-88466842D01*
X131611000Y-88753740D01*
X126150962Y-88753740D01*
X126150686Y-88752832D01*
X125989579Y-88451422D01*
X125980005Y-88439755D01*
X126080119Y-88429895D01*
X126407168Y-88330686D01*
X126708578Y-88169579D01*
X126972766Y-87952766D01*
X127189579Y-87688578D01*
X127350686Y-87387168D01*
X127449895Y-87060119D01*
X127483394Y-86720000D01*
X127449895Y-86379881D01*
X127350686Y-86052832D01*
X127189579Y-85751422D01*
X126972766Y-85487234D01*
X126708578Y-85270421D01*
X126407168Y-85109314D01*
X126080119Y-85010105D01*
X125825225Y-84985000D01*
X123854775Y-84985000D01*
X123599881Y-85010105D01*
X123272832Y-85109314D01*
X122971422Y-85270421D01*
X122707234Y-85487234D01*
X122490421Y-85751422D01*
X122329314Y-86052832D01*
X122230105Y-86379881D01*
X122196606Y-86720000D01*
X122230105Y-87060119D01*
X122329314Y-87387168D01*
X122490421Y-87688578D01*
X122499995Y-87700245D01*
X122399881Y-87710105D01*
X122072832Y-87809314D01*
X121771422Y-87970421D01*
X121507234Y-88187234D01*
X121290421Y-88451422D01*
X121129314Y-88752832D01*
X121030105Y-89079881D01*
X120996606Y-89420000D01*
X121030105Y-89760119D01*
X121129314Y-90087168D01*
X121290421Y-90388578D01*
X121428441Y-90556757D01*
X118396321Y-93588878D01*
X118450686Y-93487168D01*
X118549895Y-93160119D01*
X118575000Y-92905225D01*
X118575000Y-90934775D01*
X118549895Y-90679881D01*
X118450686Y-90352832D01*
X118289579Y-90051422D01*
X118072766Y-89787234D01*
X117808577Y-89570421D01*
X117507167Y-89409314D01*
X117180118Y-89310105D01*
X116840000Y-89276606D01*
X116499881Y-89310105D01*
X116172832Y-89409314D01*
X115871422Y-89570421D01*
X115607234Y-89787234D01*
X115390421Y-90051423D01*
X115229314Y-90352833D01*
X115130105Y-90679882D01*
X115105000Y-90934776D01*
X115105000Y-92905225D01*
X115130106Y-93160119D01*
X115229315Y-93487168D01*
X115390422Y-93788578D01*
X115607235Y-94052766D01*
X115871423Y-94269579D01*
X116172833Y-94430686D01*
X116499882Y-94529895D01*
X116840000Y-94563394D01*
X117180119Y-94529895D01*
X117507168Y-94430686D01*
X117608878Y-94376321D01*
X116328998Y-95656201D01*
X116300000Y-95679999D01*
X116276202Y-95708997D01*
X116276201Y-95708998D01*
X116205026Y-95795724D01*
X116134454Y-95927754D01*
X116090998Y-96071015D01*
X116076324Y-96220000D01*
X116080001Y-96257332D01*
X116080001Y-97521928D01*
X115940000Y-97521928D01*
X115815518Y-97534188D01*
X115695820Y-97570498D01*
X115585506Y-97629463D01*
X115488815Y-97708815D01*
X115409463Y-97805506D01*
X115350498Y-97915820D01*
X115314188Y-98035518D01*
X115301928Y-98160000D01*
X115301928Y-99960000D01*
X115314188Y-100084482D01*
X115350498Y-100204180D01*
X115409463Y-100314494D01*
X115488815Y-100411185D01*
X115585506Y-100490537D01*
X115695820Y-100549502D01*
X115714127Y-100555056D01*
X115647688Y-100621495D01*
X115479701Y-100872905D01*
X115363989Y-101152257D01*
X115305000Y-101448816D01*
X115305000Y-101751184D01*
X115363989Y-102047743D01*
X115479701Y-102327095D01*
X115647688Y-102578505D01*
X115861495Y-102792312D01*
X116112905Y-102960299D01*
X116392257Y-103076011D01*
X116688816Y-103135000D01*
X116991184Y-103135000D01*
X117287743Y-103076011D01*
X117567095Y-102960299D01*
X117818505Y-102792312D01*
X117882379Y-102728438D01*
X117982499Y-102718577D01*
X118196447Y-102653676D01*
X118393623Y-102548284D01*
X118566449Y-102406449D01*
X118601996Y-102363135D01*
X120105644Y-100859487D01*
X120128304Y-100973405D01*
X120228939Y-101216359D01*
X120375038Y-101435013D01*
X120560987Y-101620962D01*
X120652001Y-101681775D01*
X120652000Y-102474091D01*
X120529114Y-102556201D01*
X120336201Y-102749114D01*
X120184629Y-102975957D01*
X120080225Y-103228011D01*
X120027000Y-103495589D01*
X120027000Y-103768411D01*
X120080225Y-104035989D01*
X120184629Y-104288043D01*
X120336201Y-104514886D01*
X120529114Y-104707799D01*
X120755957Y-104859371D01*
X121008011Y-104963775D01*
X121275589Y-105017000D01*
X121548411Y-105017000D01*
X121815989Y-104963775D01*
X122068043Y-104859371D01*
X122294886Y-104707799D01*
X122487799Y-104514886D01*
X122639371Y-104288043D01*
X122682000Y-104185127D01*
X122724629Y-104288043D01*
X122876201Y-104514886D01*
X123069114Y-104707799D01*
X123295957Y-104859371D01*
X123548011Y-104963775D01*
X123815589Y-105017000D01*
X124088411Y-105017000D01*
X124355989Y-104963775D01*
X124608043Y-104859371D01*
X124834886Y-104707799D01*
X125027799Y-104514886D01*
X125105555Y-104398517D01*
X125116188Y-104506482D01*
X125152498Y-104626180D01*
X125211463Y-104736494D01*
X125290815Y-104833185D01*
X125387506Y-104912537D01*
X125497820Y-104971502D01*
X125617518Y-105007812D01*
X125742000Y-105020072D01*
X126206250Y-105017000D01*
X126365000Y-104858250D01*
X126365000Y-103759000D01*
X126619000Y-103759000D01*
X126619000Y-104858250D01*
X126777750Y-105017000D01*
X127242000Y-105020072D01*
X127366482Y-105007812D01*
X127486180Y-104971502D01*
X127596494Y-104912537D01*
X127693185Y-104833185D01*
X127772537Y-104736494D01*
X127831502Y-104626180D01*
X127867812Y-104506482D01*
X127880072Y-104382000D01*
X127877000Y-103917750D01*
X127718250Y-103759000D01*
X126619000Y-103759000D01*
X126365000Y-103759000D01*
X126345000Y-103759000D01*
X126345000Y-103505000D01*
X126365000Y-103505000D01*
X126365000Y-102405750D01*
X126619000Y-102405750D01*
X126619000Y-103505000D01*
X127718250Y-103505000D01*
X127877000Y-103346250D01*
X127880072Y-102882000D01*
X127867812Y-102757518D01*
X127831502Y-102637820D01*
X127772537Y-102527506D01*
X127693185Y-102430815D01*
X127596494Y-102351463D01*
X127486180Y-102292498D01*
X127366482Y-102256188D01*
X127242000Y-102243928D01*
X126777750Y-102247000D01*
X126619000Y-102405750D01*
X126365000Y-102405750D01*
X126206250Y-102247000D01*
X125742000Y-102243928D01*
X125617518Y-102256188D01*
X125497820Y-102292498D01*
X125387506Y-102351463D01*
X125290815Y-102430815D01*
X125211463Y-102527506D01*
X125152498Y-102637820D01*
X125116188Y-102757518D01*
X125105555Y-102865483D01*
X125027799Y-102749114D01*
X124834886Y-102556201D01*
X124608043Y-102404629D01*
X124355989Y-102300225D01*
X124088411Y-102247000D01*
X123815589Y-102247000D01*
X123548011Y-102300225D01*
X123295957Y-102404629D01*
X123069114Y-102556201D01*
X122876201Y-102749114D01*
X122724629Y-102975957D01*
X122682000Y-103078873D01*
X122639371Y-102975957D01*
X122487799Y-102749114D01*
X122294886Y-102556201D01*
X122172000Y-102474091D01*
X122172000Y-101681775D01*
X122263013Y-101620962D01*
X122448962Y-101435013D01*
X122595061Y-101216359D01*
X122695696Y-100973405D01*
X122747000Y-100715486D01*
X122747000Y-100452514D01*
X125157000Y-100452514D01*
X125157000Y-100715486D01*
X125208304Y-100973405D01*
X125308939Y-101216359D01*
X125455038Y-101435013D01*
X125640987Y-101620962D01*
X125859641Y-101767061D01*
X126102595Y-101867696D01*
X126360514Y-101919000D01*
X126623486Y-101919000D01*
X126881405Y-101867696D01*
X127124359Y-101767061D01*
X127343013Y-101620962D01*
X127528962Y-101435013D01*
X127675061Y-101216359D01*
X127775696Y-100973405D01*
X127827000Y-100715486D01*
X127827000Y-100452514D01*
X127775696Y-100194595D01*
X127675061Y-99951641D01*
X127528962Y-99732987D01*
X127343013Y-99547038D01*
X127124359Y-99400939D01*
X126881405Y-99300304D01*
X126623486Y-99249000D01*
X126360514Y-99249000D01*
X126102595Y-99300304D01*
X125859641Y-99400939D01*
X125640987Y-99547038D01*
X125455038Y-99732987D01*
X125308939Y-99951641D01*
X125208304Y-100194595D01*
X125157000Y-100452514D01*
X122747000Y-100452514D01*
X122695696Y-100194595D01*
X122595061Y-99951641D01*
X122448962Y-99732987D01*
X122263013Y-99547038D01*
X122044359Y-99400939D01*
X121801405Y-99300304D01*
X121671225Y-99274409D01*
X121688284Y-99253623D01*
X121793676Y-99056447D01*
X121858577Y-98842499D01*
X121875000Y-98675752D01*
X121875000Y-98675743D01*
X121880490Y-98620001D01*
X121875000Y-98564259D01*
X121875000Y-98258072D01*
X122740000Y-98258072D01*
X122864482Y-98245812D01*
X122984180Y-98209502D01*
X123094494Y-98150537D01*
X123191185Y-98071185D01*
X123270537Y-97974494D01*
X123329502Y-97864180D01*
X123365812Y-97744482D01*
X123378072Y-97620000D01*
X123378072Y-97155000D01*
X126319752Y-97155000D01*
X126330106Y-97260119D01*
X126429315Y-97587168D01*
X126590422Y-97888578D01*
X126807235Y-98152766D01*
X127071423Y-98369579D01*
X127372833Y-98530686D01*
X127699882Y-98629895D01*
X128040000Y-98663394D01*
X128380119Y-98629895D01*
X128707168Y-98530686D01*
X128862518Y-98447650D01*
X135318009Y-104903141D01*
X135353551Y-104946449D01*
X135526377Y-105088284D01*
X135723553Y-105193676D01*
X135887705Y-105243471D01*
X135937500Y-105258577D01*
X136025001Y-105267195D01*
X136025000Y-105795716D01*
X135888320Y-106000273D01*
X135780147Y-106261426D01*
X135725000Y-106538665D01*
X135725000Y-106821335D01*
X135780147Y-107098574D01*
X135888320Y-107359727D01*
X136025000Y-107564284D01*
X136025001Y-108749867D01*
X131959869Y-112815000D01*
X131933740Y-112815000D01*
X131646842Y-112872068D01*
X131376589Y-112984010D01*
X131133368Y-113146525D01*
X130926525Y-113353368D01*
X130764010Y-113596589D01*
X130652068Y-113866842D01*
X130595000Y-114153740D01*
X130595000Y-114179868D01*
X129766864Y-115008005D01*
X129723550Y-115043552D01*
X129581715Y-115216378D01*
X129507621Y-115355000D01*
X129476323Y-115413555D01*
X129411422Y-115627503D01*
X129389508Y-115850001D01*
X129394999Y-115905752D01*
X129395000Y-130474238D01*
X129389508Y-130529999D01*
X129411422Y-130752497D01*
X129476323Y-130966445D01*
X129508329Y-131026324D01*
X129581716Y-131163622D01*
X129723551Y-131336448D01*
X129766859Y-131371990D01*
X130595000Y-132200132D01*
X130595000Y-132226260D01*
X130652068Y-132513158D01*
X130764010Y-132783411D01*
X130926525Y-133026632D01*
X131133368Y-133233475D01*
X131376589Y-133395990D01*
X131646842Y-133507932D01*
X131933740Y-133565000D01*
X132226260Y-133565000D01*
X132513158Y-133507932D01*
X132783411Y-133395990D01*
X133026632Y-133233475D01*
X133233475Y-133026632D01*
X133395990Y-132783411D01*
X133507932Y-132513158D01*
X133565000Y-132226260D01*
X133565000Y-131933740D01*
X133507932Y-131646842D01*
X133395990Y-131376589D01*
X133233475Y-131133368D01*
X133026632Y-130926525D01*
X132852240Y-130810000D01*
X133026632Y-130693475D01*
X133233475Y-130486632D01*
X133395990Y-130243411D01*
X133507932Y-129973158D01*
X133565000Y-129686260D01*
X133565000Y-129393740D01*
X133507932Y-129106842D01*
X133395990Y-128836589D01*
X133233475Y-128593368D01*
X133026632Y-128386525D01*
X132852240Y-128270000D01*
X133026632Y-128153475D01*
X133233475Y-127946632D01*
X133395990Y-127703411D01*
X133507932Y-127433158D01*
X133565000Y-127146260D01*
X133565000Y-126853740D01*
X133507932Y-126566842D01*
X133395990Y-126296589D01*
X133233475Y-126053368D01*
X133101620Y-125921513D01*
X133174180Y-125899502D01*
X133284494Y-125840537D01*
X133381185Y-125761185D01*
X133460537Y-125664494D01*
X133519502Y-125554180D01*
X133555812Y-125434482D01*
X133568072Y-125310000D01*
X133565000Y-124745750D01*
X133406250Y-124587000D01*
X132207000Y-124587000D01*
X132207000Y-124607000D01*
X131953000Y-124607000D01*
X131953000Y-124587000D01*
X131933000Y-124587000D01*
X131933000Y-124333000D01*
X131953000Y-124333000D01*
X131953000Y-123133750D01*
X132207000Y-123133750D01*
X132207000Y-124333000D01*
X133406250Y-124333000D01*
X133565000Y-124174250D01*
X133568072Y-123610000D01*
X133555812Y-123485518D01*
X133519502Y-123365820D01*
X133460537Y-123255506D01*
X133381185Y-123158815D01*
X133284494Y-123079463D01*
X133174180Y-123020498D01*
X133054482Y-122984188D01*
X132930000Y-122971928D01*
X132365750Y-122975000D01*
X132207000Y-123133750D01*
X131953000Y-123133750D01*
X131794250Y-122975000D01*
X131664999Y-122974296D01*
X131664999Y-120996000D01*
X136461928Y-120996000D01*
X136474188Y-121120482D01*
X136510498Y-121240180D01*
X136569463Y-121350494D01*
X136648815Y-121447185D01*
X136745506Y-121526537D01*
X136855820Y-121585502D01*
X136975518Y-121621812D01*
X137100000Y-121634072D01*
X137414250Y-121631000D01*
X137573000Y-121472250D01*
X137573000Y-120523000D01*
X136623750Y-120523000D01*
X136465000Y-120681750D01*
X136461928Y-120996000D01*
X131664999Y-120996000D01*
X131664999Y-120865704D01*
X131794250Y-120865000D01*
X131953000Y-120706250D01*
X131953000Y-119507000D01*
X132207000Y-119507000D01*
X132207000Y-120706250D01*
X132365750Y-120865000D01*
X132930000Y-120868072D01*
X133054482Y-120855812D01*
X133174180Y-120819502D01*
X133284494Y-120760537D01*
X133381185Y-120681185D01*
X133460537Y-120584494D01*
X133519502Y-120474180D01*
X133555812Y-120354482D01*
X133568072Y-120230000D01*
X133565710Y-119796000D01*
X136461928Y-119796000D01*
X136465000Y-120110250D01*
X136623750Y-120269000D01*
X137573000Y-120269000D01*
X137573000Y-119319750D01*
X137414250Y-119161000D01*
X137100000Y-119157928D01*
X136975518Y-119170188D01*
X136855820Y-119206498D01*
X136745506Y-119265463D01*
X136648815Y-119344815D01*
X136569463Y-119441506D01*
X136510498Y-119551820D01*
X136474188Y-119671518D01*
X136461928Y-119796000D01*
X133565710Y-119796000D01*
X133565000Y-119665750D01*
X133406250Y-119507000D01*
X132207000Y-119507000D01*
X131953000Y-119507000D01*
X131933000Y-119507000D01*
X131933000Y-119253000D01*
X131953000Y-119253000D01*
X131953000Y-119233000D01*
X132207000Y-119233000D01*
X132207000Y-119253000D01*
X133406250Y-119253000D01*
X133565000Y-119094250D01*
X133568072Y-118530000D01*
X133555812Y-118405518D01*
X133519502Y-118285820D01*
X133460537Y-118175506D01*
X133381185Y-118078815D01*
X133284494Y-117999463D01*
X133174180Y-117940498D01*
X133101620Y-117918487D01*
X133233475Y-117786632D01*
X133395990Y-117543411D01*
X133507932Y-117273158D01*
X133565000Y-116986260D01*
X133565000Y-116693740D01*
X133507932Y-116406842D01*
X133395990Y-116136589D01*
X133233475Y-115893368D01*
X133026632Y-115686525D01*
X132852240Y-115570000D01*
X133026632Y-115453475D01*
X133233475Y-115246632D01*
X133395990Y-115003411D01*
X133507932Y-114733158D01*
X133565000Y-114446260D01*
X133565000Y-114420131D01*
X134485131Y-113500000D01*
X135721928Y-113500000D01*
X135725000Y-114014250D01*
X135883750Y-114173000D01*
X137033000Y-114173000D01*
X137033000Y-113023750D01*
X136874250Y-112865000D01*
X136360000Y-112861928D01*
X136235518Y-112874188D01*
X136115820Y-112910498D01*
X136005506Y-112969463D01*
X135908815Y-113048815D01*
X135829463Y-113145506D01*
X135770498Y-113255820D01*
X135734188Y-113375518D01*
X135721928Y-113500000D01*
X134485131Y-113500000D01*
X137923141Y-110061991D01*
X137966449Y-110026449D01*
X138108284Y-109853623D01*
X138213676Y-109656447D01*
X138278577Y-109442499D01*
X138282055Y-109407186D01*
X141802751Y-112927883D01*
X141560273Y-113028320D01*
X141325241Y-113185363D01*
X141125363Y-113385241D01*
X140970000Y-113617759D01*
X140814637Y-113385241D01*
X140614759Y-113185363D01*
X140379727Y-113028320D01*
X140118574Y-112920147D01*
X139841335Y-112865000D01*
X139558665Y-112865000D01*
X139281426Y-112920147D01*
X139020273Y-113028320D01*
X138785241Y-113185363D01*
X138586643Y-113383961D01*
X138585812Y-113375518D01*
X138549502Y-113255820D01*
X138490537Y-113145506D01*
X138411185Y-113048815D01*
X138314494Y-112969463D01*
X138204180Y-112910498D01*
X138084482Y-112874188D01*
X137960000Y-112861928D01*
X137445750Y-112865000D01*
X137287000Y-113023750D01*
X137287000Y-114173000D01*
X137307000Y-114173000D01*
X137307000Y-114427000D01*
X137287000Y-114427000D01*
X137287000Y-114447000D01*
X137033000Y-114447000D01*
X137033000Y-114427000D01*
X135883750Y-114427000D01*
X135725000Y-114585750D01*
X135721928Y-115100000D01*
X135734188Y-115224482D01*
X135770498Y-115344180D01*
X135829463Y-115454494D01*
X135908815Y-115551185D01*
X135987204Y-115615517D01*
X135958815Y-115638815D01*
X135879463Y-115735506D01*
X135820498Y-115845820D01*
X135784188Y-115965518D01*
X135771928Y-116090000D01*
X135771928Y-117590000D01*
X135784188Y-117714482D01*
X135820498Y-117834180D01*
X135879463Y-117944494D01*
X135958815Y-118041185D01*
X136055506Y-118120537D01*
X136165820Y-118179502D01*
X136285518Y-118215812D01*
X136410000Y-118228072D01*
X137910000Y-118228072D01*
X138034482Y-118215812D01*
X138154180Y-118179502D01*
X138264494Y-118120537D01*
X138361185Y-118041185D01*
X138440537Y-117944494D01*
X138499502Y-117834180D01*
X138535812Y-117714482D01*
X138548072Y-117590000D01*
X138548072Y-116090000D01*
X138535812Y-115965518D01*
X138499502Y-115845820D01*
X138440537Y-115735506D01*
X138361185Y-115638815D01*
X138332796Y-115615517D01*
X138411185Y-115551185D01*
X138490537Y-115454494D01*
X138549502Y-115344180D01*
X138585812Y-115224482D01*
X138586643Y-115216039D01*
X138785241Y-115414637D01*
X138940000Y-115518044D01*
X138940001Y-119418493D01*
X138912733Y-119436713D01*
X138857499Y-119491947D01*
X138830537Y-119441506D01*
X138751185Y-119344815D01*
X138654494Y-119265463D01*
X138544180Y-119206498D01*
X138424482Y-119170188D01*
X138300000Y-119157928D01*
X137985750Y-119161000D01*
X137827000Y-119319750D01*
X137827000Y-120269000D01*
X137847000Y-120269000D01*
X137847000Y-120523000D01*
X137827000Y-120523000D01*
X137827000Y-121472250D01*
X137985750Y-121631000D01*
X138300000Y-121634072D01*
X138424482Y-121621812D01*
X138544180Y-121585502D01*
X138654494Y-121526537D01*
X138751185Y-121447185D01*
X138830537Y-121350494D01*
X138857499Y-121300053D01*
X138912733Y-121355287D01*
X139115008Y-121490443D01*
X139339764Y-121583540D01*
X139578363Y-121631000D01*
X139821637Y-121631000D01*
X140060236Y-121583540D01*
X140284992Y-121490443D01*
X140487267Y-121355287D01*
X140659287Y-121183267D01*
X140794443Y-120980992D01*
X140887540Y-120756236D01*
X140935000Y-120517637D01*
X140935000Y-120274363D01*
X140887540Y-120035764D01*
X140794443Y-119811008D01*
X140659287Y-119608733D01*
X140487267Y-119436713D01*
X140460000Y-119418494D01*
X140460000Y-115518043D01*
X140614759Y-115414637D01*
X140814637Y-115214759D01*
X140970000Y-114982241D01*
X141125363Y-115214759D01*
X141325241Y-115414637D01*
X141560273Y-115571680D01*
X141821426Y-115679853D01*
X142098665Y-115735000D01*
X142381335Y-115735000D01*
X142658574Y-115679853D01*
X142919727Y-115571680D01*
X143154759Y-115414637D01*
X143354637Y-115214759D01*
X143510000Y-114982241D01*
X143665363Y-115214759D01*
X143865241Y-115414637D01*
X143949129Y-115470689D01*
X143973551Y-115500447D01*
X144016865Y-115535994D01*
X144105699Y-115624828D01*
X143897114Y-115764201D01*
X143704201Y-115957114D01*
X143552629Y-116183957D01*
X143448225Y-116436011D01*
X143395000Y-116703589D01*
X143395000Y-116976411D01*
X143448225Y-117243989D01*
X143552629Y-117496043D01*
X143704201Y-117722886D01*
X143897114Y-117915799D01*
X144123957Y-118067371D01*
X144376011Y-118171775D01*
X144643589Y-118225000D01*
X144916411Y-118225000D01*
X145061365Y-118196167D01*
X146560001Y-119694804D01*
X146560000Y-130801821D01*
X146373368Y-130926525D01*
X146166525Y-131133368D01*
X146050000Y-131307760D01*
X145933475Y-131133368D01*
X145726632Y-130926525D01*
X145483411Y-130764010D01*
X145213158Y-130652068D01*
X144926260Y-130595000D01*
X144633740Y-130595000D01*
X144346842Y-130652068D01*
X144076589Y-130764010D01*
X143833368Y-130926525D01*
X143626525Y-131133368D01*
X143510000Y-131307760D01*
X143393475Y-131133368D01*
X143186632Y-130926525D01*
X142943411Y-130764010D01*
X142673158Y-130652068D01*
X142386260Y-130595000D01*
X142093740Y-130595000D01*
X141806842Y-130652068D01*
X141536589Y-130764010D01*
X141293368Y-130926525D01*
X141086525Y-131133368D01*
X140924010Y-131376589D01*
X140812068Y-131646842D01*
X140755000Y-131933740D01*
X140755000Y-132226260D01*
X140812068Y-132513158D01*
X140924010Y-132783411D01*
X141086525Y-133026632D01*
X141293368Y-133233475D01*
X141512759Y-133380068D01*
X141325241Y-133505363D01*
X141125363Y-133705241D01*
X140968320Y-133940273D01*
X140860147Y-134201426D01*
X140805000Y-134478665D01*
X140805000Y-134761335D01*
X140860147Y-135038574D01*
X140968320Y-135299727D01*
X141125363Y-135534759D01*
X141325241Y-135734637D01*
X141560273Y-135891680D01*
X141821426Y-135999853D01*
X142098665Y-136055000D01*
X142381335Y-136055000D01*
X142658574Y-135999853D01*
X142919727Y-135891680D01*
X143154759Y-135734637D01*
X143354637Y-135534759D01*
X143510000Y-135302241D01*
X143665363Y-135534759D01*
X143865241Y-135734637D01*
X144100273Y-135891680D01*
X144361426Y-135999853D01*
X144638665Y-136055000D01*
X144921335Y-136055000D01*
X145198574Y-135999853D01*
X145459727Y-135891680D01*
X145694759Y-135734637D01*
X145894637Y-135534759D01*
X146050000Y-135302241D01*
X146205363Y-135534759D01*
X146405241Y-135734637D01*
X146640273Y-135891680D01*
X146901426Y-135999853D01*
X147178665Y-136055000D01*
X147461335Y-136055000D01*
X147738574Y-135999853D01*
X147999727Y-135891680D01*
X148234759Y-135734637D01*
X148434637Y-135534759D01*
X148590000Y-135302241D01*
X148745363Y-135534759D01*
X148945241Y-135734637D01*
X149180273Y-135891680D01*
X149441426Y-135999853D01*
X149718665Y-136055000D01*
X150001335Y-136055000D01*
X150278574Y-135999853D01*
X150539727Y-135891680D01*
X150774759Y-135734637D01*
X150974637Y-135534759D01*
X151130000Y-135302241D01*
X151285363Y-135534759D01*
X151485241Y-135734637D01*
X151720273Y-135891680D01*
X151981426Y-135999853D01*
X152258665Y-136055000D01*
X152541335Y-136055000D01*
X152818574Y-135999853D01*
X153079727Y-135891680D01*
X153314759Y-135734637D01*
X153513357Y-135536039D01*
X153514188Y-135544482D01*
X153550498Y-135664180D01*
X153609463Y-135774494D01*
X153688815Y-135871185D01*
X153785506Y-135950537D01*
X153895820Y-136009502D01*
X154015518Y-136045812D01*
X154140000Y-136058072D01*
X154654250Y-136055000D01*
X154813000Y-135896250D01*
X154813000Y-134747000D01*
X155067000Y-134747000D01*
X155067000Y-135896250D01*
X155225750Y-136055000D01*
X155740000Y-136058072D01*
X155864482Y-136045812D01*
X155984180Y-136009502D01*
X156094494Y-135950537D01*
X156191185Y-135871185D01*
X156210000Y-135848259D01*
X156228815Y-135871185D01*
X156325506Y-135950537D01*
X156435820Y-136009502D01*
X156555518Y-136045812D01*
X156680000Y-136058072D01*
X157194250Y-136055000D01*
X157353000Y-135896250D01*
X157353000Y-134747000D01*
X155067000Y-134747000D01*
X154813000Y-134747000D01*
X154793000Y-134747000D01*
X154793000Y-134493000D01*
X154813000Y-134493000D01*
X154813000Y-132207000D01*
X155067000Y-132207000D01*
X155067000Y-134493000D01*
X157353000Y-134493000D01*
X157353000Y-132207000D01*
X155067000Y-132207000D01*
X154813000Y-132207000D01*
X154793000Y-132207000D01*
X154793000Y-131953000D01*
X154813000Y-131953000D01*
X154813000Y-130753750D01*
X155067000Y-130753750D01*
X155067000Y-131953000D01*
X157353000Y-131953000D01*
X157353000Y-130753750D01*
X157607000Y-130753750D01*
X157607000Y-131953000D01*
X157627000Y-131953000D01*
X157627000Y-132207000D01*
X157607000Y-132207000D01*
X157607000Y-134493000D01*
X157627000Y-134493000D01*
X157627000Y-134747000D01*
X157607000Y-134747000D01*
X157607000Y-135896250D01*
X157765750Y-136055000D01*
X158280000Y-136058072D01*
X158404482Y-136045812D01*
X158524180Y-136009502D01*
X158634494Y-135950537D01*
X158731185Y-135871185D01*
X158810537Y-135774494D01*
X158869502Y-135664180D01*
X158905812Y-135544482D01*
X158906643Y-135536039D01*
X159105241Y-135734637D01*
X159340273Y-135891680D01*
X159601426Y-135999853D01*
X159878665Y-136055000D01*
X160161335Y-136055000D01*
X160438574Y-135999853D01*
X160699727Y-135891680D01*
X160934759Y-135734637D01*
X161134637Y-135534759D01*
X161291680Y-135299727D01*
X161399853Y-135038574D01*
X161455000Y-134761335D01*
X161455000Y-134478665D01*
X161399853Y-134201426D01*
X161291680Y-133940273D01*
X161155000Y-133735716D01*
X161155000Y-133045107D01*
X161173475Y-133026632D01*
X161335990Y-132783411D01*
X161447932Y-132513158D01*
X161505000Y-132226260D01*
X161505000Y-131933740D01*
X163615000Y-131933740D01*
X163615000Y-132226260D01*
X163672068Y-132513158D01*
X163784010Y-132783411D01*
X163946525Y-133026632D01*
X163965001Y-133045108D01*
X163965000Y-133735716D01*
X163828320Y-133940273D01*
X163720147Y-134201426D01*
X163665000Y-134478665D01*
X163665000Y-134761335D01*
X163720147Y-135038574D01*
X163828320Y-135299727D01*
X163985363Y-135534759D01*
X164185241Y-135734637D01*
X164420273Y-135891680D01*
X164681426Y-135999853D01*
X164958665Y-136055000D01*
X165241335Y-136055000D01*
X165518574Y-135999853D01*
X165779727Y-135891680D01*
X166014759Y-135734637D01*
X166214637Y-135534759D01*
X166370000Y-135302241D01*
X166525363Y-135534759D01*
X166725241Y-135734637D01*
X166960273Y-135891680D01*
X167221426Y-135999853D01*
X167498665Y-136055000D01*
X167781335Y-136055000D01*
X168058574Y-135999853D01*
X168319727Y-135891680D01*
X168554759Y-135734637D01*
X168754637Y-135534759D01*
X168910000Y-135302241D01*
X169065363Y-135534759D01*
X169265241Y-135734637D01*
X169500273Y-135891680D01*
X169761426Y-135999853D01*
X170038665Y-136055000D01*
X170321335Y-136055000D01*
X170598574Y-135999853D01*
X170859727Y-135891680D01*
X171094759Y-135734637D01*
X171294637Y-135534759D01*
X171450000Y-135302241D01*
X171605363Y-135534759D01*
X171805241Y-135734637D01*
X172040273Y-135891680D01*
X172301426Y-135999853D01*
X172578665Y-136055000D01*
X172861335Y-136055000D01*
X173138574Y-135999853D01*
X173399727Y-135891680D01*
X173634759Y-135734637D01*
X173834637Y-135534759D01*
X173990000Y-135302241D01*
X174145363Y-135534759D01*
X174345241Y-135734637D01*
X174580273Y-135891680D01*
X174841426Y-135999853D01*
X175118665Y-136055000D01*
X175401335Y-136055000D01*
X175678574Y-135999853D01*
X175939727Y-135891680D01*
X176174759Y-135734637D01*
X176374637Y-135534759D01*
X176530000Y-135302241D01*
X176685363Y-135534759D01*
X176885241Y-135734637D01*
X177120273Y-135891680D01*
X177381426Y-135999853D01*
X177658665Y-136055000D01*
X177941335Y-136055000D01*
X178218574Y-135999853D01*
X178479727Y-135891680D01*
X178714759Y-135734637D01*
X178914637Y-135534759D01*
X179071680Y-135299727D01*
X179179853Y-135038574D01*
X179235000Y-134761335D01*
X179235000Y-134478665D01*
X179179853Y-134201426D01*
X179071680Y-133940273D01*
X178935000Y-133735716D01*
X178935000Y-133045107D01*
X178953475Y-133026632D01*
X179115990Y-132783411D01*
X179227932Y-132513158D01*
X179285000Y-132226260D01*
X179285000Y-131933740D01*
X179227932Y-131646842D01*
X179115990Y-131376589D01*
X178953475Y-131133368D01*
X178746632Y-130926525D01*
X178503411Y-130764010D01*
X178233158Y-130652068D01*
X177946260Y-130595000D01*
X177653740Y-130595000D01*
X177366842Y-130652068D01*
X177096589Y-130764010D01*
X176853368Y-130926525D01*
X176646525Y-131133368D01*
X176530000Y-131307760D01*
X176413475Y-131133368D01*
X176206632Y-130926525D01*
X175963411Y-130764010D01*
X175693158Y-130652068D01*
X175406260Y-130595000D01*
X175113740Y-130595000D01*
X174826842Y-130652068D01*
X174556589Y-130764010D01*
X174313368Y-130926525D01*
X174106525Y-131133368D01*
X173990000Y-131307760D01*
X173873475Y-131133368D01*
X173666632Y-130926525D01*
X173423411Y-130764010D01*
X173153158Y-130652068D01*
X172866260Y-130595000D01*
X172573740Y-130595000D01*
X172286842Y-130652068D01*
X172016589Y-130764010D01*
X171773368Y-130926525D01*
X171566525Y-131133368D01*
X171450000Y-131307760D01*
X171333475Y-131133368D01*
X171126632Y-130926525D01*
X170883411Y-130764010D01*
X170613158Y-130652068D01*
X170326260Y-130595000D01*
X170033740Y-130595000D01*
X169746842Y-130652068D01*
X169476589Y-130764010D01*
X169233368Y-130926525D01*
X169026525Y-131133368D01*
X168910000Y-131307760D01*
X168793475Y-131133368D01*
X168586632Y-130926525D01*
X168343411Y-130764010D01*
X168073158Y-130652068D01*
X167786260Y-130595000D01*
X167493740Y-130595000D01*
X167206842Y-130652068D01*
X166936589Y-130764010D01*
X166693368Y-130926525D01*
X166486525Y-131133368D01*
X166370000Y-131307760D01*
X166253475Y-131133368D01*
X166046632Y-130926525D01*
X165803411Y-130764010D01*
X165533158Y-130652068D01*
X165246260Y-130595000D01*
X164953740Y-130595000D01*
X164666842Y-130652068D01*
X164396589Y-130764010D01*
X164153368Y-130926525D01*
X163946525Y-131133368D01*
X163784010Y-131376589D01*
X163672068Y-131646842D01*
X163615000Y-131933740D01*
X161505000Y-131933740D01*
X161447932Y-131646842D01*
X161335990Y-131376589D01*
X161173475Y-131133368D01*
X160966632Y-130926525D01*
X160723411Y-130764010D01*
X160453158Y-130652068D01*
X160166260Y-130595000D01*
X159873740Y-130595000D01*
X159586842Y-130652068D01*
X159316589Y-130764010D01*
X159073368Y-130926525D01*
X158941513Y-131058380D01*
X158919502Y-130985820D01*
X158860537Y-130875506D01*
X158781185Y-130778815D01*
X158684494Y-130699463D01*
X158574180Y-130640498D01*
X158454482Y-130604188D01*
X158330000Y-130591928D01*
X157765750Y-130595000D01*
X157607000Y-130753750D01*
X157353000Y-130753750D01*
X157194250Y-130595000D01*
X156630000Y-130591928D01*
X156505518Y-130604188D01*
X156385820Y-130640498D01*
X156275506Y-130699463D01*
X156210000Y-130753222D01*
X156144494Y-130699463D01*
X156034180Y-130640498D01*
X155914482Y-130604188D01*
X155790000Y-130591928D01*
X155225750Y-130595000D01*
X155067000Y-130753750D01*
X154813000Y-130753750D01*
X154654250Y-130595000D01*
X154290033Y-130593017D01*
X157738051Y-127145001D01*
X167236329Y-127145001D01*
X167292080Y-127150492D01*
X167347831Y-127145001D01*
X167347832Y-127145001D01*
X167514579Y-127128578D01*
X167728527Y-127063677D01*
X167925703Y-126958285D01*
X168098529Y-126816450D01*
X168134076Y-126773136D01*
X168403135Y-126504077D01*
X168446449Y-126468530D01*
X168588284Y-126295704D01*
X168693676Y-126098528D01*
X168746323Y-125924975D01*
X168758577Y-125884581D01*
X168768138Y-125787502D01*
X168775000Y-125717833D01*
X168775000Y-125717826D01*
X168780490Y-125662082D01*
X168775000Y-125606338D01*
X168775000Y-125425107D01*
X168793475Y-125406632D01*
X168955990Y-125163411D01*
X169067932Y-124893158D01*
X169125000Y-124606260D01*
X169125000Y-124313740D01*
X169067932Y-124026842D01*
X168955990Y-123756589D01*
X168793475Y-123513368D01*
X168586632Y-123306525D01*
X168343411Y-123144010D01*
X168073158Y-123032068D01*
X167786260Y-122975000D01*
X167493740Y-122975000D01*
X167206842Y-123032068D01*
X166936589Y-123144010D01*
X166693368Y-123306525D01*
X166561513Y-123438380D01*
X166539502Y-123365820D01*
X166480537Y-123255506D01*
X166401185Y-123158815D01*
X166304494Y-123079463D01*
X166194180Y-123020498D01*
X166074482Y-122984188D01*
X165950000Y-122971928D01*
X165385750Y-122975000D01*
X165227000Y-123133750D01*
X165227000Y-124333000D01*
X165247000Y-124333000D01*
X165247000Y-124587000D01*
X165227000Y-124587000D01*
X165227000Y-124607000D01*
X164973000Y-124607000D01*
X164973000Y-124587000D01*
X164953000Y-124587000D01*
X164953000Y-124333000D01*
X164973000Y-124333000D01*
X164973000Y-123133750D01*
X164814250Y-122975000D01*
X164250000Y-122971928D01*
X164125518Y-122984188D01*
X164005820Y-123020498D01*
X163895506Y-123079463D01*
X163798815Y-123158815D01*
X163719463Y-123255506D01*
X163660498Y-123365820D01*
X163638487Y-123438380D01*
X163506632Y-123306525D01*
X163263411Y-123144010D01*
X162993158Y-123032068D01*
X162706260Y-122975000D01*
X162413740Y-122975000D01*
X162126842Y-123032068D01*
X161856589Y-123144010D01*
X161613368Y-123306525D01*
X161406525Y-123513368D01*
X161290000Y-123687760D01*
X161173475Y-123513368D01*
X160966632Y-123306525D01*
X160723411Y-123144010D01*
X160453158Y-123032068D01*
X160166260Y-122975000D01*
X159873740Y-122975000D01*
X159586842Y-123032068D01*
X159316589Y-123144010D01*
X159073368Y-123306525D01*
X158866525Y-123513368D01*
X158704010Y-123756589D01*
X158592068Y-124026842D01*
X158535000Y-124313740D01*
X158535000Y-124606260D01*
X158588456Y-124875001D01*
X157323670Y-124875001D01*
X157267918Y-124869510D01*
X157045419Y-124891424D01*
X156831471Y-124956325D01*
X156634295Y-125061717D01*
X156504774Y-125168012D01*
X156504772Y-125168014D01*
X156461469Y-125203552D01*
X156425931Y-125246855D01*
X153535000Y-128137787D01*
X153535000Y-122369739D01*
X153540490Y-122313997D01*
X153535000Y-122258255D01*
X153535000Y-122258246D01*
X153518577Y-122091499D01*
X153453676Y-121877551D01*
X153348284Y-121680375D01*
X153206449Y-121507549D01*
X153163141Y-121472007D01*
X146691134Y-115000000D01*
X173921928Y-115000000D01*
X173934188Y-115124482D01*
X173970498Y-115244180D01*
X174029463Y-115354494D01*
X174108815Y-115451185D01*
X174205506Y-115530537D01*
X174315820Y-115589502D01*
X174435518Y-115625812D01*
X174560000Y-115638072D01*
X174974250Y-115635000D01*
X175133000Y-115476250D01*
X175133000Y-114427000D01*
X174083750Y-114427000D01*
X173925000Y-114585750D01*
X173921928Y-115000000D01*
X146691134Y-115000000D01*
X146201307Y-114510174D01*
X146215000Y-114441335D01*
X146215000Y-114158665D01*
X146159853Y-113881426D01*
X146051680Y-113620273D01*
X146038135Y-113600000D01*
X173921928Y-113600000D01*
X173925000Y-114014250D01*
X174083750Y-114173000D01*
X175133000Y-114173000D01*
X175133000Y-113123750D01*
X174974250Y-112965000D01*
X174560000Y-112961928D01*
X174435518Y-112974188D01*
X174315820Y-113010498D01*
X174205506Y-113069463D01*
X174108815Y-113148815D01*
X174029463Y-113245506D01*
X173970498Y-113355820D01*
X173934188Y-113475518D01*
X173921928Y-113600000D01*
X146038135Y-113600000D01*
X145894637Y-113385241D01*
X145694759Y-113185363D01*
X145459727Y-113028320D01*
X145198574Y-112920147D01*
X144957282Y-112872150D01*
X140137249Y-108052118D01*
X140379727Y-107951680D01*
X140614759Y-107794637D01*
X140814637Y-107594759D01*
X140970000Y-107362241D01*
X141125363Y-107594759D01*
X141325241Y-107794637D01*
X141560273Y-107951680D01*
X141821426Y-108059853D01*
X142098665Y-108115000D01*
X142381335Y-108115000D01*
X142658574Y-108059853D01*
X142919727Y-107951680D01*
X143154759Y-107794637D01*
X143354637Y-107594759D01*
X143510000Y-107362241D01*
X143665363Y-107594759D01*
X143865241Y-107794637D01*
X144100273Y-107951680D01*
X144361426Y-108059853D01*
X144638665Y-108115000D01*
X144921335Y-108115000D01*
X145198574Y-108059853D01*
X145459727Y-107951680D01*
X145694759Y-107794637D01*
X145894637Y-107594759D01*
X146051680Y-107359727D01*
X146159853Y-107098574D01*
X146215000Y-106821335D01*
X146215000Y-106538665D01*
X146159853Y-106261426D01*
X146051680Y-106000273D01*
X145894637Y-105765241D01*
X145694759Y-105565363D01*
X145540000Y-105461957D01*
X145540000Y-105358043D01*
X145694759Y-105254637D01*
X145894637Y-105054759D01*
X146051680Y-104819727D01*
X146159853Y-104558574D01*
X146215000Y-104281335D01*
X146215000Y-103998665D01*
X146159853Y-103721426D01*
X146051680Y-103460273D01*
X145894637Y-103225241D01*
X145728057Y-103058661D01*
X145824180Y-103029502D01*
X145934494Y-102970537D01*
X146031185Y-102891185D01*
X146110537Y-102794494D01*
X146169502Y-102684180D01*
X146205812Y-102564482D01*
X146218072Y-102440000D01*
X146215000Y-101925750D01*
X146056250Y-101767000D01*
X144907000Y-101767000D01*
X144907000Y-101787000D01*
X144653000Y-101787000D01*
X144653000Y-101767000D01*
X143503750Y-101767000D01*
X143345000Y-101925750D01*
X143341928Y-102440000D01*
X143354188Y-102564482D01*
X143390498Y-102684180D01*
X143449463Y-102794494D01*
X143528815Y-102891185D01*
X143625506Y-102970537D01*
X143735820Y-103029502D01*
X143831943Y-103058661D01*
X143665363Y-103225241D01*
X143508320Y-103460273D01*
X143455880Y-103586874D01*
X143423061Y-103507641D01*
X143276962Y-103288987D01*
X143091013Y-103103038D01*
X142872359Y-102956939D01*
X142629405Y-102856304D01*
X142371486Y-102805000D01*
X142108514Y-102805000D01*
X141850595Y-102856304D01*
X141607641Y-102956939D01*
X141388987Y-103103038D01*
X141203038Y-103288987D01*
X141142225Y-103380000D01*
X140797775Y-103380000D01*
X140736962Y-103288987D01*
X140551013Y-103103038D01*
X140332359Y-102956939D01*
X140089405Y-102856304D01*
X139831486Y-102805000D01*
X139568514Y-102805000D01*
X139434999Y-102831558D01*
X139434999Y-100840000D01*
X143341928Y-100840000D01*
X143345000Y-101354250D01*
X143503750Y-101513000D01*
X144653000Y-101513000D01*
X144653000Y-100363750D01*
X144907000Y-100363750D01*
X144907000Y-101513000D01*
X146056250Y-101513000D01*
X146215000Y-101354250D01*
X146218072Y-100840000D01*
X146205812Y-100715518D01*
X146169502Y-100595820D01*
X146110537Y-100485506D01*
X146031185Y-100388815D01*
X145934494Y-100309463D01*
X145824180Y-100250498D01*
X145704482Y-100214188D01*
X145580000Y-100201928D01*
X145065750Y-100205000D01*
X144907000Y-100363750D01*
X144653000Y-100363750D01*
X144494250Y-100205000D01*
X143980000Y-100201928D01*
X143855518Y-100214188D01*
X143735820Y-100250498D01*
X143625506Y-100309463D01*
X143528815Y-100388815D01*
X143449463Y-100485506D01*
X143390498Y-100595820D01*
X143354188Y-100715518D01*
X143341928Y-100840000D01*
X139434999Y-100840000D01*
X139434999Y-100399802D01*
X139461156Y-100373645D01*
X139568514Y-100395000D01*
X139831486Y-100395000D01*
X140089405Y-100343696D01*
X140332359Y-100243061D01*
X140551013Y-100096962D01*
X140736962Y-99911013D01*
X140883061Y-99692359D01*
X140970000Y-99482470D01*
X141056939Y-99692359D01*
X141203038Y-99911013D01*
X141388987Y-100096962D01*
X141607641Y-100243061D01*
X141850595Y-100343696D01*
X142108514Y-100395000D01*
X142371486Y-100395000D01*
X142629405Y-100343696D01*
X142872359Y-100243061D01*
X143091013Y-100096962D01*
X143276962Y-99911013D01*
X143423061Y-99692359D01*
X143523696Y-99449405D01*
X143575000Y-99191486D01*
X143575000Y-98928514D01*
X143553645Y-98821156D01*
X147539803Y-94834999D01*
X156048456Y-94834999D01*
X155995000Y-95103740D01*
X155995000Y-95396260D01*
X156052068Y-95683158D01*
X156164010Y-95953411D01*
X156326525Y-96196632D01*
X156533368Y-96403475D01*
X156776589Y-96565990D01*
X157046842Y-96677932D01*
X157333740Y-96735000D01*
X157626260Y-96735000D01*
X157913158Y-96677932D01*
X158183411Y-96565990D01*
X158426632Y-96403475D01*
X158633475Y-96196632D01*
X158750000Y-96022240D01*
X158866525Y-96196632D01*
X159073368Y-96403475D01*
X159316589Y-96565990D01*
X159586842Y-96677932D01*
X159873740Y-96735000D01*
X160166260Y-96735000D01*
X160453158Y-96677932D01*
X160723411Y-96565990D01*
X160966632Y-96403475D01*
X161173475Y-96196632D01*
X161290000Y-96022240D01*
X161406525Y-96196632D01*
X161613368Y-96403475D01*
X161856589Y-96565990D01*
X162126842Y-96677932D01*
X162413740Y-96735000D01*
X162706260Y-96735000D01*
X162993158Y-96677932D01*
X163263411Y-96565990D01*
X163506632Y-96403475D01*
X163713475Y-96196632D01*
X163830000Y-96022240D01*
X163946525Y-96196632D01*
X164153368Y-96403475D01*
X164396589Y-96565990D01*
X164666842Y-96677932D01*
X164953740Y-96735000D01*
X165246260Y-96735000D01*
X165533158Y-96677932D01*
X165803411Y-96565990D01*
X166046632Y-96403475D01*
X166253475Y-96196632D01*
X166370000Y-96022240D01*
X166486525Y-96196632D01*
X166693368Y-96403475D01*
X166936589Y-96565990D01*
X167206842Y-96677932D01*
X167493740Y-96735000D01*
X167786260Y-96735000D01*
X168073158Y-96677932D01*
X168343411Y-96565990D01*
X168586632Y-96403475D01*
X168793475Y-96196632D01*
X168955990Y-95953411D01*
X169067932Y-95683158D01*
X169125000Y-95396260D01*
X169125000Y-95103740D01*
X169067932Y-94816842D01*
X168955990Y-94546589D01*
X168793475Y-94303368D01*
X168586632Y-94096525D01*
X168343411Y-93934010D01*
X168073158Y-93822068D01*
X167786260Y-93765000D01*
X167493740Y-93765000D01*
X167206842Y-93822068D01*
X166936589Y-93934010D01*
X166693368Y-94096525D01*
X166486525Y-94303368D01*
X166370000Y-94477760D01*
X166253475Y-94303368D01*
X166046632Y-94096525D01*
X165860000Y-93971822D01*
X165860000Y-91754801D01*
X167273593Y-90341210D01*
X167493740Y-90385000D01*
X167786260Y-90385000D01*
X168073158Y-90327932D01*
X168343411Y-90215990D01*
X168586632Y-90053475D01*
X168793475Y-89846632D01*
X168910000Y-89672240D01*
X169026525Y-89846632D01*
X169233368Y-90053475D01*
X169420000Y-90178179D01*
X169420001Y-99022668D01*
X169416324Y-99060000D01*
X169420001Y-99097332D01*
X169420001Y-99097333D01*
X169430998Y-99208986D01*
X169443136Y-99249000D01*
X169474454Y-99352246D01*
X169545026Y-99484276D01*
X169616201Y-99571002D01*
X169640000Y-99600001D01*
X169668998Y-99623799D01*
X177727126Y-107681928D01*
X176900000Y-107681928D01*
X176775518Y-107694188D01*
X176655820Y-107730498D01*
X176545506Y-107789463D01*
X176448815Y-107868815D01*
X176369463Y-107965506D01*
X176310498Y-108075820D01*
X176274188Y-108195518D01*
X176261928Y-108320000D01*
X176261928Y-108333953D01*
X176111013Y-108183038D01*
X175892359Y-108036939D01*
X175649405Y-107936304D01*
X175391486Y-107885000D01*
X175128514Y-107885000D01*
X174870595Y-107936304D01*
X174627641Y-108036939D01*
X174408987Y-108183038D01*
X174223038Y-108368987D01*
X174076939Y-108587641D01*
X173976304Y-108830595D01*
X173925000Y-109088514D01*
X173925000Y-109351486D01*
X173976304Y-109609405D01*
X174076939Y-109852359D01*
X174223038Y-110071013D01*
X174408987Y-110256962D01*
X174627641Y-110403061D01*
X174870595Y-110503696D01*
X175128514Y-110555000D01*
X175391486Y-110555000D01*
X175649405Y-110503696D01*
X175892359Y-110403061D01*
X176111013Y-110256962D01*
X176261928Y-110106047D01*
X176261928Y-110120000D01*
X176274188Y-110244482D01*
X176310498Y-110364180D01*
X176369463Y-110474494D01*
X176448815Y-110571185D01*
X176545506Y-110650537D01*
X176655820Y-110709502D01*
X176775518Y-110745812D01*
X176900000Y-110758072D01*
X177040000Y-110758072D01*
X177040001Y-112761928D01*
X176900000Y-112761928D01*
X176775518Y-112774188D01*
X176655820Y-112810498D01*
X176545506Y-112869463D01*
X176448815Y-112948815D01*
X176369463Y-113045506D01*
X176343801Y-113093515D01*
X176314494Y-113069463D01*
X176204180Y-113010498D01*
X176084482Y-112974188D01*
X175960000Y-112961928D01*
X175545750Y-112965000D01*
X175387000Y-113123750D01*
X175387000Y-114173000D01*
X175407000Y-114173000D01*
X175407000Y-114427000D01*
X175387000Y-114427000D01*
X175387000Y-115476250D01*
X175545750Y-115635000D01*
X175960000Y-115638072D01*
X176084482Y-115625812D01*
X176204180Y-115589502D01*
X176314494Y-115530537D01*
X176343801Y-115506485D01*
X176369463Y-115554494D01*
X176448815Y-115651185D01*
X176545506Y-115730537D01*
X176655820Y-115789502D01*
X176775518Y-115825812D01*
X176900000Y-115838072D01*
X178700000Y-115838072D01*
X178824482Y-115825812D01*
X178944180Y-115789502D01*
X179054494Y-115730537D01*
X179151185Y-115651185D01*
X179230537Y-115554494D01*
X179289502Y-115444180D01*
X179295056Y-115425873D01*
X179361495Y-115492312D01*
X179612905Y-115660299D01*
X179892257Y-115776011D01*
X180188816Y-115835000D01*
X180491184Y-115835000D01*
X180787743Y-115776011D01*
X181067095Y-115660299D01*
X181318505Y-115492312D01*
X181532312Y-115278505D01*
X181700299Y-115027095D01*
X181816011Y-114747743D01*
X181875000Y-114451184D01*
X181875000Y-114148816D01*
X181823731Y-113891070D01*
X182076004Y-113638798D01*
X182105002Y-113615000D01*
X182137484Y-113575421D01*
X182195000Y-113505337D01*
X182195001Y-131796263D01*
X179879418Y-134111846D01*
X179853289Y-134133290D01*
X179831846Y-134159418D01*
X179831840Y-134159424D01*
X179797525Y-134201238D01*
X179767688Y-134237594D01*
X179704081Y-134356595D01*
X179676794Y-134446548D01*
X179667052Y-134478665D01*
X179664912Y-134485718D01*
X179655000Y-134586354D01*
X179655000Y-134586361D01*
X179651687Y-134620000D01*
X179655000Y-134653640D01*
X179655001Y-136475000D01*
X115091736Y-136475000D01*
X114985000Y-136368264D01*
X114985000Y-84611736D01*
X115091736Y-84505000D01*
X178532264Y-84505000D01*
X179655000Y-85627736D01*
%TA.AperFunction,Conductor*%
D32*
G36*
X179655000Y-85627736D02*
G01*
X179655001Y-96994351D01*
X179651687Y-97028000D01*
X179664912Y-97162283D01*
X179694591Y-97260119D01*
X179704082Y-97291406D01*
X179767689Y-97410407D01*
X179792175Y-97440243D01*
X179831840Y-97488576D01*
X179831847Y-97488583D01*
X179853290Y-97514711D01*
X179879418Y-97536154D01*
X182195000Y-99851736D01*
X182195000Y-108109663D01*
X182186812Y-108099686D01*
X182128800Y-108028997D01*
X182128796Y-108028993D01*
X182105002Y-108000000D01*
X182076010Y-107976207D01*
X173480000Y-99380199D01*
X173480000Y-90178178D01*
X173666632Y-90053475D01*
X173873475Y-89846632D01*
X173990000Y-89672240D01*
X174106525Y-89846632D01*
X174313368Y-90053475D01*
X174556589Y-90215990D01*
X174826842Y-90327932D01*
X175113740Y-90385000D01*
X175406260Y-90385000D01*
X175693158Y-90327932D01*
X175963411Y-90215990D01*
X176206632Y-90053475D01*
X176413475Y-89846632D01*
X176530000Y-89672240D01*
X176646525Y-89846632D01*
X176853368Y-90053475D01*
X177096589Y-90215990D01*
X177366842Y-90327932D01*
X177653740Y-90385000D01*
X177946260Y-90385000D01*
X178233158Y-90327932D01*
X178503411Y-90215990D01*
X178746632Y-90053475D01*
X178953475Y-89846632D01*
X179115990Y-89603411D01*
X179227932Y-89333158D01*
X179285000Y-89046260D01*
X179285000Y-88753740D01*
X179227932Y-88466842D01*
X179115990Y-88196589D01*
X178953475Y-87953368D01*
X178935000Y-87934893D01*
X178935000Y-87244284D01*
X179071680Y-87039727D01*
X179179853Y-86778574D01*
X179235000Y-86501335D01*
X179235000Y-86218665D01*
X179179853Y-85941426D01*
X179071680Y-85680273D01*
X178914637Y-85445241D01*
X178714759Y-85245363D01*
X178479727Y-85088320D01*
X178218574Y-84980147D01*
X177941335Y-84925000D01*
X177658665Y-84925000D01*
X177381426Y-84980147D01*
X177120273Y-85088320D01*
X176885241Y-85245363D01*
X176685363Y-85445241D01*
X176530000Y-85677759D01*
X176374637Y-85445241D01*
X176174759Y-85245363D01*
X175939727Y-85088320D01*
X175678574Y-84980147D01*
X175401335Y-84925000D01*
X175118665Y-84925000D01*
X174841426Y-84980147D01*
X174580273Y-85088320D01*
X174345241Y-85245363D01*
X174145363Y-85445241D01*
X173990000Y-85677759D01*
X173834637Y-85445241D01*
X173634759Y-85245363D01*
X173399727Y-85088320D01*
X173138574Y-84980147D01*
X172861335Y-84925000D01*
X172578665Y-84925000D01*
X172301426Y-84980147D01*
X172040273Y-85088320D01*
X171805241Y-85245363D01*
X171605363Y-85445241D01*
X171450000Y-85677759D01*
X171294637Y-85445241D01*
X171094759Y-85245363D01*
X170859727Y-85088320D01*
X170598574Y-84980147D01*
X170321335Y-84925000D01*
X170038665Y-84925000D01*
X169761426Y-84980147D01*
X169500273Y-85088320D01*
X169265241Y-85245363D01*
X169065363Y-85445241D01*
X168910000Y-85677759D01*
X168754637Y-85445241D01*
X168554759Y-85245363D01*
X168319727Y-85088320D01*
X168058574Y-84980147D01*
X167781335Y-84925000D01*
X167498665Y-84925000D01*
X167221426Y-84980147D01*
X166960273Y-85088320D01*
X166725241Y-85245363D01*
X166525363Y-85445241D01*
X166370000Y-85677759D01*
X166214637Y-85445241D01*
X166014759Y-85245363D01*
X165779727Y-85088320D01*
X165518574Y-84980147D01*
X165241335Y-84925000D01*
X164958665Y-84925000D01*
X164681426Y-84980147D01*
X164420273Y-85088320D01*
X164185241Y-85245363D01*
X163985363Y-85445241D01*
X163830000Y-85677759D01*
X163674637Y-85445241D01*
X163474759Y-85245363D01*
X163239727Y-85088320D01*
X162978574Y-84980147D01*
X162701335Y-84925000D01*
X162418665Y-84925000D01*
X162141426Y-84980147D01*
X161880273Y-85088320D01*
X161645241Y-85245363D01*
X161445363Y-85445241D01*
X161290000Y-85677759D01*
X161134637Y-85445241D01*
X160934759Y-85245363D01*
X160699727Y-85088320D01*
X160438574Y-84980147D01*
X160161335Y-84925000D01*
X159878665Y-84925000D01*
X159601426Y-84980147D01*
X159340273Y-85088320D01*
X159105241Y-85245363D01*
X158905363Y-85445241D01*
X158748320Y-85680273D01*
X158640147Y-85941426D01*
X158585000Y-86218665D01*
X158585000Y-86501335D01*
X158640147Y-86778574D01*
X158748320Y-87039727D01*
X158885000Y-87244284D01*
X158885001Y-87934892D01*
X158866525Y-87953368D01*
X158704010Y-88196589D01*
X158592068Y-88466842D01*
X158535000Y-88753740D01*
X158535000Y-89046260D01*
X158592068Y-89333158D01*
X158704010Y-89603411D01*
X158866525Y-89846632D01*
X159073368Y-90053475D01*
X159316589Y-90215990D01*
X159586842Y-90327932D01*
X159873740Y-90385000D01*
X160000198Y-90385000D01*
X157070200Y-93314999D01*
X147262323Y-93314999D01*
X147225000Y-93311323D01*
X147187677Y-93314999D01*
X147187668Y-93314999D01*
X147076015Y-93325996D01*
X146932754Y-93369453D01*
X146800724Y-93440025D01*
X146743281Y-93487168D01*
X146685000Y-93534998D01*
X146661202Y-93563996D01*
X142478844Y-97746355D01*
X142371486Y-97725000D01*
X142108514Y-97725000D01*
X141850595Y-97776304D01*
X141607641Y-97876939D01*
X141388987Y-98023038D01*
X141203038Y-98208987D01*
X141056939Y-98427641D01*
X140970000Y-98637530D01*
X140883061Y-98427641D01*
X140736962Y-98208987D01*
X140551013Y-98023038D01*
X140332359Y-97876939D01*
X140089405Y-97776304D01*
X139831486Y-97725000D01*
X139568514Y-97725000D01*
X139461157Y-97746355D01*
X138473645Y-96758843D01*
X138495000Y-96651486D01*
X138495000Y-96388514D01*
X138443696Y-96130595D01*
X138343061Y-95887641D01*
X138196962Y-95668987D01*
X138011013Y-95483038D01*
X137792359Y-95336939D01*
X137549405Y-95236304D01*
X137291486Y-95185000D01*
X137028514Y-95185000D01*
X136770595Y-95236304D01*
X136527641Y-95336939D01*
X136308987Y-95483038D01*
X136123038Y-95668987D01*
X135976939Y-95887641D01*
X135876304Y-96130595D01*
X135825000Y-96388514D01*
X135825000Y-96651486D01*
X135876304Y-96909405D01*
X135976939Y-97152359D01*
X136123038Y-97371013D01*
X136308987Y-97556962D01*
X136527641Y-97703061D01*
X136770595Y-97803696D01*
X137028514Y-97855000D01*
X137291486Y-97855000D01*
X137398843Y-97833645D01*
X138386355Y-98821157D01*
X138365000Y-98928514D01*
X138365000Y-99191486D01*
X138386355Y-99298844D01*
X138163997Y-99521202D01*
X138134999Y-99545000D01*
X138111201Y-99573998D01*
X138111200Y-99573999D01*
X138040025Y-99660725D01*
X137969453Y-99792755D01*
X137925997Y-99936016D01*
X137911323Y-100085001D01*
X137915000Y-100122333D01*
X137914999Y-103038884D01*
X137792359Y-102956939D01*
X137549405Y-102856304D01*
X137291486Y-102805000D01*
X137028514Y-102805000D01*
X136770595Y-102856304D01*
X136566129Y-102940997D01*
X129775000Y-96149869D01*
X129775000Y-95034775D01*
X129749895Y-94779881D01*
X129650686Y-94452832D01*
X129489579Y-94151422D01*
X129272766Y-93887234D01*
X129008577Y-93670421D01*
X128707167Y-93509314D01*
X128380118Y-93410105D01*
X128040000Y-93376606D01*
X127699881Y-93410105D01*
X127372832Y-93509314D01*
X127071422Y-93670421D01*
X126807234Y-93887234D01*
X126590421Y-94151423D01*
X126429314Y-94452833D01*
X126330105Y-94779882D01*
X126319752Y-94885000D01*
X123086144Y-94885000D01*
X122984180Y-94830498D01*
X122864482Y-94794188D01*
X122740000Y-94781928D01*
X119352873Y-94781928D01*
X122979802Y-91155000D01*
X124625225Y-91155000D01*
X124880119Y-91129895D01*
X125207168Y-91030686D01*
X125508578Y-90869579D01*
X125772766Y-90652766D01*
X125989579Y-90388578D01*
X126150686Y-90087168D01*
X126249895Y-89760119D01*
X126283394Y-89420000D01*
X126249895Y-89079881D01*
X126150962Y-88753740D01*
X131611000Y-88753740D01*
X131611000Y-89046260D01*
X131668068Y-89333158D01*
X131780010Y-89603411D01*
X131942525Y-89846632D01*
X132149368Y-90053475D01*
X132392589Y-90215990D01*
X132662842Y-90327932D01*
X132949740Y-90385000D01*
X133242260Y-90385000D01*
X133529158Y-90327932D01*
X133799411Y-90215990D01*
X134042632Y-90053475D01*
X134249475Y-89846632D01*
X134366000Y-89672240D01*
X134482525Y-89846632D01*
X134689368Y-90053475D01*
X134932589Y-90215990D01*
X135202842Y-90327932D01*
X135489740Y-90385000D01*
X135782260Y-90385000D01*
X136069158Y-90327932D01*
X136339411Y-90215990D01*
X136582632Y-90053475D01*
X136789475Y-89846632D01*
X136906000Y-89672240D01*
X137022525Y-89846632D01*
X137229368Y-90053475D01*
X137472589Y-90215990D01*
X137742842Y-90327932D01*
X138029740Y-90385000D01*
X138322260Y-90385000D01*
X138609158Y-90327932D01*
X138879411Y-90215990D01*
X139122632Y-90053475D01*
X139254487Y-89921620D01*
X139276498Y-89994180D01*
X139335463Y-90104494D01*
X139414815Y-90201185D01*
X139511506Y-90280537D01*
X139621820Y-90339502D01*
X139741518Y-90375812D01*
X139866000Y-90388072D01*
X140430250Y-90385000D01*
X140589000Y-90226250D01*
X140589000Y-89027000D01*
X140569000Y-89027000D01*
X140569000Y-88773000D01*
X140589000Y-88773000D01*
X140589000Y-87640250D01*
X140593000Y-87636250D01*
X140593000Y-87573750D01*
X140843000Y-87573750D01*
X140843000Y-88773000D01*
X140863000Y-88773000D01*
X140863000Y-89027000D01*
X140843000Y-89027000D01*
X140843000Y-90226250D01*
X141001750Y-90385000D01*
X141566000Y-90388072D01*
X141690482Y-90375812D01*
X141810180Y-90339502D01*
X141920494Y-90280537D01*
X142017185Y-90201185D01*
X142096537Y-90104494D01*
X142155502Y-89994180D01*
X142177513Y-89921620D01*
X142309368Y-90053475D01*
X142552589Y-90215990D01*
X142822842Y-90327932D01*
X143109740Y-90385000D01*
X143402260Y-90385000D01*
X143689158Y-90327932D01*
X143959411Y-90215990D01*
X144202632Y-90053475D01*
X144409475Y-89846632D01*
X144526000Y-89672240D01*
X144642525Y-89846632D01*
X144849368Y-90053475D01*
X145092589Y-90215990D01*
X145362842Y-90327932D01*
X145649740Y-90385000D01*
X145942260Y-90385000D01*
X146229158Y-90327932D01*
X146499411Y-90215990D01*
X146742632Y-90053475D01*
X146949475Y-89846632D01*
X147066000Y-89672240D01*
X147182525Y-89846632D01*
X147389368Y-90053475D01*
X147632589Y-90215990D01*
X147902842Y-90327932D01*
X148189740Y-90385000D01*
X148482260Y-90385000D01*
X148769158Y-90327932D01*
X149039411Y-90215990D01*
X149282632Y-90053475D01*
X149489475Y-89846632D01*
X149606000Y-89672240D01*
X149722525Y-89846632D01*
X149929368Y-90053475D01*
X150172589Y-90215990D01*
X150442842Y-90327932D01*
X150729740Y-90385000D01*
X151022260Y-90385000D01*
X151309158Y-90327932D01*
X151579411Y-90215990D01*
X151822632Y-90053475D01*
X152029475Y-89846632D01*
X152146000Y-89672240D01*
X152262525Y-89846632D01*
X152469368Y-90053475D01*
X152712589Y-90215990D01*
X152982842Y-90327932D01*
X153269740Y-90385000D01*
X153562260Y-90385000D01*
X153849158Y-90327932D01*
X154119411Y-90215990D01*
X154362632Y-90053475D01*
X154569475Y-89846632D01*
X154686000Y-89672240D01*
X154802525Y-89846632D01*
X155009368Y-90053475D01*
X155252589Y-90215990D01*
X155522842Y-90327932D01*
X155809740Y-90385000D01*
X156102260Y-90385000D01*
X156389158Y-90327932D01*
X156659411Y-90215990D01*
X156902632Y-90053475D01*
X157109475Y-89846632D01*
X157271990Y-89603411D01*
X157383932Y-89333158D01*
X157441000Y-89046260D01*
X157441000Y-88753740D01*
X157383932Y-88466842D01*
X157271990Y-88196589D01*
X157109475Y-87953368D01*
X157095000Y-87938893D01*
X157095000Y-87244284D01*
X157231680Y-87039727D01*
X157339853Y-86778574D01*
X157395000Y-86501335D01*
X157395000Y-86218665D01*
X157339853Y-85941426D01*
X157231680Y-85680273D01*
X157074637Y-85445241D01*
X156874759Y-85245363D01*
X156639727Y-85088320D01*
X156378574Y-84980147D01*
X156101335Y-84925000D01*
X155818665Y-84925000D01*
X155541426Y-84980147D01*
X155280273Y-85088320D01*
X155045241Y-85245363D01*
X154845363Y-85445241D01*
X154690000Y-85677759D01*
X154534637Y-85445241D01*
X154334759Y-85245363D01*
X154099727Y-85088320D01*
X153838574Y-84980147D01*
X153561335Y-84925000D01*
X153278665Y-84925000D01*
X153001426Y-84980147D01*
X152740273Y-85088320D01*
X152505241Y-85245363D01*
X152305363Y-85445241D01*
X152150000Y-85677759D01*
X151994637Y-85445241D01*
X151794759Y-85245363D01*
X151559727Y-85088320D01*
X151298574Y-84980147D01*
X151021335Y-84925000D01*
X150738665Y-84925000D01*
X150461426Y-84980147D01*
X150200273Y-85088320D01*
X149965241Y-85245363D01*
X149765363Y-85445241D01*
X149610000Y-85677759D01*
X149454637Y-85445241D01*
X149254759Y-85245363D01*
X149019727Y-85088320D01*
X148758574Y-84980147D01*
X148481335Y-84925000D01*
X148198665Y-84925000D01*
X147921426Y-84980147D01*
X147660273Y-85088320D01*
X147425241Y-85245363D01*
X147225363Y-85445241D01*
X147070000Y-85677759D01*
X146914637Y-85445241D01*
X146714759Y-85245363D01*
X146479727Y-85088320D01*
X146218574Y-84980147D01*
X145941335Y-84925000D01*
X145658665Y-84925000D01*
X145381426Y-84980147D01*
X145120273Y-85088320D01*
X144885241Y-85245363D01*
X144685363Y-85445241D01*
X144530000Y-85677759D01*
X144374637Y-85445241D01*
X144174759Y-85245363D01*
X143939727Y-85088320D01*
X143678574Y-84980147D01*
X143401335Y-84925000D01*
X143118665Y-84925000D01*
X142841426Y-84980147D01*
X142580273Y-85088320D01*
X142345241Y-85245363D01*
X142146643Y-85443961D01*
X142145812Y-85435518D01*
X142109502Y-85315820D01*
X142050537Y-85205506D01*
X141971185Y-85108815D01*
X141874494Y-85029463D01*
X141764180Y-84970498D01*
X141644482Y-84934188D01*
X141520000Y-84921928D01*
X141005750Y-84925000D01*
X140847000Y-85083750D01*
X140847000Y-86233000D01*
X140867000Y-86233000D01*
X140867000Y-86487000D01*
X140847000Y-86487000D01*
X140847000Y-87569750D01*
X140843000Y-87573750D01*
X140593000Y-87573750D01*
X140593000Y-86487000D01*
X140573000Y-86487000D01*
X140573000Y-86233000D01*
X140593000Y-86233000D01*
X140593000Y-85083750D01*
X140434250Y-84925000D01*
X139920000Y-84921928D01*
X139795518Y-84934188D01*
X139675820Y-84970498D01*
X139565506Y-85029463D01*
X139468815Y-85108815D01*
X139389463Y-85205506D01*
X139330498Y-85315820D01*
X139294188Y-85435518D01*
X139293357Y-85443961D01*
X139094759Y-85245363D01*
X138859727Y-85088320D01*
X138598574Y-84980147D01*
X138321335Y-84925000D01*
X138038665Y-84925000D01*
X137761426Y-84980147D01*
X137500273Y-85088320D01*
X137265241Y-85245363D01*
X137065363Y-85445241D01*
X136910000Y-85677759D01*
X136754637Y-85445241D01*
X136554759Y-85245363D01*
X136319727Y-85088320D01*
X136058574Y-84980147D01*
X135781335Y-84925000D01*
X135498665Y-84925000D01*
X135221426Y-84980147D01*
X134960273Y-85088320D01*
X134725241Y-85245363D01*
X134525363Y-85445241D01*
X134370000Y-85677759D01*
X134214637Y-85445241D01*
X134014759Y-85245363D01*
X133779727Y-85088320D01*
X133518574Y-84980147D01*
X133241335Y-84925000D01*
X132958665Y-84925000D01*
X132681426Y-84980147D01*
X132420273Y-85088320D01*
X132185241Y-85245363D01*
X131985363Y-85445241D01*
X131828320Y-85680273D01*
X131720147Y-85941426D01*
X131665000Y-86218665D01*
X131665000Y-86501335D01*
X131720147Y-86778574D01*
X131828320Y-87039727D01*
X131965000Y-87244284D01*
X131965001Y-87930892D01*
X131942525Y-87953368D01*
X131780010Y-88196589D01*
X131668068Y-88466842D01*
X131611000Y-88753740D01*
X126150962Y-88753740D01*
X126150686Y-88752832D01*
X125989579Y-88451422D01*
X125980005Y-88439755D01*
X126080119Y-88429895D01*
X126407168Y-88330686D01*
X126708578Y-88169579D01*
X126972766Y-87952766D01*
X127189579Y-87688578D01*
X127350686Y-87387168D01*
X127449895Y-87060119D01*
X127483394Y-86720000D01*
X127449895Y-86379881D01*
X127350686Y-86052832D01*
X127189579Y-85751422D01*
X126972766Y-85487234D01*
X126708578Y-85270421D01*
X126407168Y-85109314D01*
X126080119Y-85010105D01*
X125825225Y-84985000D01*
X123854775Y-84985000D01*
X123599881Y-85010105D01*
X123272832Y-85109314D01*
X122971422Y-85270421D01*
X122707234Y-85487234D01*
X122490421Y-85751422D01*
X122329314Y-86052832D01*
X122230105Y-86379881D01*
X122196606Y-86720000D01*
X122230105Y-87060119D01*
X122329314Y-87387168D01*
X122490421Y-87688578D01*
X122499995Y-87700245D01*
X122399881Y-87710105D01*
X122072832Y-87809314D01*
X121771422Y-87970421D01*
X121507234Y-88187234D01*
X121290421Y-88451422D01*
X121129314Y-88752832D01*
X121030105Y-89079881D01*
X120996606Y-89420000D01*
X121030105Y-89760119D01*
X121129314Y-90087168D01*
X121290421Y-90388578D01*
X121428441Y-90556757D01*
X118396321Y-93588878D01*
X118450686Y-93487168D01*
X118549895Y-93160119D01*
X118575000Y-92905225D01*
X118575000Y-90934775D01*
X118549895Y-90679881D01*
X118450686Y-90352832D01*
X118289579Y-90051422D01*
X118072766Y-89787234D01*
X117808577Y-89570421D01*
X117507167Y-89409314D01*
X117180118Y-89310105D01*
X116840000Y-89276606D01*
X116499881Y-89310105D01*
X116172832Y-89409314D01*
X115871422Y-89570421D01*
X115607234Y-89787234D01*
X115390421Y-90051423D01*
X115229314Y-90352833D01*
X115130105Y-90679882D01*
X115105000Y-90934776D01*
X115105000Y-92905225D01*
X115130106Y-93160119D01*
X115229315Y-93487168D01*
X115390422Y-93788578D01*
X115607235Y-94052766D01*
X115871423Y-94269579D01*
X116172833Y-94430686D01*
X116499882Y-94529895D01*
X116840000Y-94563394D01*
X117180119Y-94529895D01*
X117507168Y-94430686D01*
X117608878Y-94376321D01*
X116328998Y-95656201D01*
X116300000Y-95679999D01*
X116276202Y-95708997D01*
X116276201Y-95708998D01*
X116205026Y-95795724D01*
X116134454Y-95927754D01*
X116090998Y-96071015D01*
X116076324Y-96220000D01*
X116080001Y-96257332D01*
X116080001Y-97521928D01*
X115940000Y-97521928D01*
X115815518Y-97534188D01*
X115695820Y-97570498D01*
X115585506Y-97629463D01*
X115488815Y-97708815D01*
X115409463Y-97805506D01*
X115350498Y-97915820D01*
X115314188Y-98035518D01*
X115301928Y-98160000D01*
X115301928Y-99960000D01*
X115314188Y-100084482D01*
X115350498Y-100204180D01*
X115409463Y-100314494D01*
X115488815Y-100411185D01*
X115585506Y-100490537D01*
X115695820Y-100549502D01*
X115714127Y-100555056D01*
X115647688Y-100621495D01*
X115479701Y-100872905D01*
X115363989Y-101152257D01*
X115305000Y-101448816D01*
X115305000Y-101751184D01*
X115363989Y-102047743D01*
X115479701Y-102327095D01*
X115647688Y-102578505D01*
X115861495Y-102792312D01*
X116112905Y-102960299D01*
X116392257Y-103076011D01*
X116688816Y-103135000D01*
X116991184Y-103135000D01*
X117287743Y-103076011D01*
X117567095Y-102960299D01*
X117818505Y-102792312D01*
X117882379Y-102728438D01*
X117982499Y-102718577D01*
X118196447Y-102653676D01*
X118393623Y-102548284D01*
X118566449Y-102406449D01*
X118601996Y-102363135D01*
X120105644Y-100859487D01*
X120128304Y-100973405D01*
X120228939Y-101216359D01*
X120375038Y-101435013D01*
X120560987Y-101620962D01*
X120652001Y-101681775D01*
X120652000Y-102474091D01*
X120529114Y-102556201D01*
X120336201Y-102749114D01*
X120184629Y-102975957D01*
X120080225Y-103228011D01*
X120027000Y-103495589D01*
X120027000Y-103768411D01*
X120080225Y-104035989D01*
X120184629Y-104288043D01*
X120336201Y-104514886D01*
X120529114Y-104707799D01*
X120755957Y-104859371D01*
X121008011Y-104963775D01*
X121275589Y-105017000D01*
X121548411Y-105017000D01*
X121815989Y-104963775D01*
X122068043Y-104859371D01*
X122294886Y-104707799D01*
X122487799Y-104514886D01*
X122639371Y-104288043D01*
X122682000Y-104185127D01*
X122724629Y-104288043D01*
X122876201Y-104514886D01*
X123069114Y-104707799D01*
X123295957Y-104859371D01*
X123548011Y-104963775D01*
X123815589Y-105017000D01*
X124088411Y-105017000D01*
X124355989Y-104963775D01*
X124608043Y-104859371D01*
X124834886Y-104707799D01*
X125027799Y-104514886D01*
X125105555Y-104398517D01*
X125116188Y-104506482D01*
X125152498Y-104626180D01*
X125211463Y-104736494D01*
X125290815Y-104833185D01*
X125387506Y-104912537D01*
X125497820Y-104971502D01*
X125617518Y-105007812D01*
X125742000Y-105020072D01*
X126206250Y-105017000D01*
X126365000Y-104858250D01*
X126365000Y-103759000D01*
X126619000Y-103759000D01*
X126619000Y-104858250D01*
X126777750Y-105017000D01*
X127242000Y-105020072D01*
X127366482Y-105007812D01*
X127486180Y-104971502D01*
X127596494Y-104912537D01*
X127693185Y-104833185D01*
X127772537Y-104736494D01*
X127831502Y-104626180D01*
X127867812Y-104506482D01*
X127880072Y-104382000D01*
X127877000Y-103917750D01*
X127718250Y-103759000D01*
X126619000Y-103759000D01*
X126365000Y-103759000D01*
X126345000Y-103759000D01*
X126345000Y-103505000D01*
X126365000Y-103505000D01*
X126365000Y-102405750D01*
X126619000Y-102405750D01*
X126619000Y-103505000D01*
X127718250Y-103505000D01*
X127877000Y-103346250D01*
X127880072Y-102882000D01*
X127867812Y-102757518D01*
X127831502Y-102637820D01*
X127772537Y-102527506D01*
X127693185Y-102430815D01*
X127596494Y-102351463D01*
X127486180Y-102292498D01*
X127366482Y-102256188D01*
X127242000Y-102243928D01*
X126777750Y-102247000D01*
X126619000Y-102405750D01*
X126365000Y-102405750D01*
X126206250Y-102247000D01*
X125742000Y-102243928D01*
X125617518Y-102256188D01*
X125497820Y-102292498D01*
X125387506Y-102351463D01*
X125290815Y-102430815D01*
X125211463Y-102527506D01*
X125152498Y-102637820D01*
X125116188Y-102757518D01*
X125105555Y-102865483D01*
X125027799Y-102749114D01*
X124834886Y-102556201D01*
X124608043Y-102404629D01*
X124355989Y-102300225D01*
X124088411Y-102247000D01*
X123815589Y-102247000D01*
X123548011Y-102300225D01*
X123295957Y-102404629D01*
X123069114Y-102556201D01*
X122876201Y-102749114D01*
X122724629Y-102975957D01*
X122682000Y-103078873D01*
X122639371Y-102975957D01*
X122487799Y-102749114D01*
X122294886Y-102556201D01*
X122172000Y-102474091D01*
X122172000Y-101681775D01*
X122263013Y-101620962D01*
X122448962Y-101435013D01*
X122595061Y-101216359D01*
X122695696Y-100973405D01*
X122747000Y-100715486D01*
X122747000Y-100452514D01*
X125157000Y-100452514D01*
X125157000Y-100715486D01*
X125208304Y-100973405D01*
X125308939Y-101216359D01*
X125455038Y-101435013D01*
X125640987Y-101620962D01*
X125859641Y-101767061D01*
X126102595Y-101867696D01*
X126360514Y-101919000D01*
X126623486Y-101919000D01*
X126881405Y-101867696D01*
X127124359Y-101767061D01*
X127343013Y-101620962D01*
X127528962Y-101435013D01*
X127675061Y-101216359D01*
X127775696Y-100973405D01*
X127827000Y-100715486D01*
X127827000Y-100452514D01*
X127775696Y-100194595D01*
X127675061Y-99951641D01*
X127528962Y-99732987D01*
X127343013Y-99547038D01*
X127124359Y-99400939D01*
X126881405Y-99300304D01*
X126623486Y-99249000D01*
X126360514Y-99249000D01*
X126102595Y-99300304D01*
X125859641Y-99400939D01*
X125640987Y-99547038D01*
X125455038Y-99732987D01*
X125308939Y-99951641D01*
X125208304Y-100194595D01*
X125157000Y-100452514D01*
X122747000Y-100452514D01*
X122695696Y-100194595D01*
X122595061Y-99951641D01*
X122448962Y-99732987D01*
X122263013Y-99547038D01*
X122044359Y-99400939D01*
X121801405Y-99300304D01*
X121671225Y-99274409D01*
X121688284Y-99253623D01*
X121793676Y-99056447D01*
X121858577Y-98842499D01*
X121875000Y-98675752D01*
X121875000Y-98675743D01*
X121880490Y-98620001D01*
X121875000Y-98564259D01*
X121875000Y-98258072D01*
X122740000Y-98258072D01*
X122864482Y-98245812D01*
X122984180Y-98209502D01*
X123094494Y-98150537D01*
X123191185Y-98071185D01*
X123270537Y-97974494D01*
X123329502Y-97864180D01*
X123365812Y-97744482D01*
X123378072Y-97620000D01*
X123378072Y-97155000D01*
X126319752Y-97155000D01*
X126330106Y-97260119D01*
X126429315Y-97587168D01*
X126590422Y-97888578D01*
X126807235Y-98152766D01*
X127071423Y-98369579D01*
X127372833Y-98530686D01*
X127699882Y-98629895D01*
X128040000Y-98663394D01*
X128380119Y-98629895D01*
X128707168Y-98530686D01*
X128862518Y-98447650D01*
X135318009Y-104903141D01*
X135353551Y-104946449D01*
X135526377Y-105088284D01*
X135723553Y-105193676D01*
X135887705Y-105243471D01*
X135937500Y-105258577D01*
X136025001Y-105267195D01*
X136025000Y-105795716D01*
X135888320Y-106000273D01*
X135780147Y-106261426D01*
X135725000Y-106538665D01*
X135725000Y-106821335D01*
X135780147Y-107098574D01*
X135888320Y-107359727D01*
X136025000Y-107564284D01*
X136025001Y-108749867D01*
X131959869Y-112815000D01*
X131933740Y-112815000D01*
X131646842Y-112872068D01*
X131376589Y-112984010D01*
X131133368Y-113146525D01*
X130926525Y-113353368D01*
X130764010Y-113596589D01*
X130652068Y-113866842D01*
X130595000Y-114153740D01*
X130595000Y-114179868D01*
X129766864Y-115008005D01*
X129723550Y-115043552D01*
X129581715Y-115216378D01*
X129507621Y-115355000D01*
X129476323Y-115413555D01*
X129411422Y-115627503D01*
X129389508Y-115850001D01*
X129394999Y-115905752D01*
X129395000Y-130474238D01*
X129389508Y-130529999D01*
X129411422Y-130752497D01*
X129476323Y-130966445D01*
X129508329Y-131026324D01*
X129581716Y-131163622D01*
X129723551Y-131336448D01*
X129766859Y-131371990D01*
X130595000Y-132200132D01*
X130595000Y-132226260D01*
X130652068Y-132513158D01*
X130764010Y-132783411D01*
X130926525Y-133026632D01*
X131133368Y-133233475D01*
X131376589Y-133395990D01*
X131646842Y-133507932D01*
X131933740Y-133565000D01*
X132226260Y-133565000D01*
X132513158Y-133507932D01*
X132783411Y-133395990D01*
X133026632Y-133233475D01*
X133233475Y-133026632D01*
X133395990Y-132783411D01*
X133507932Y-132513158D01*
X133565000Y-132226260D01*
X133565000Y-131933740D01*
X133507932Y-131646842D01*
X133395990Y-131376589D01*
X133233475Y-131133368D01*
X133026632Y-130926525D01*
X132852240Y-130810000D01*
X133026632Y-130693475D01*
X133233475Y-130486632D01*
X133395990Y-130243411D01*
X133507932Y-129973158D01*
X133565000Y-129686260D01*
X133565000Y-129393740D01*
X133507932Y-129106842D01*
X133395990Y-128836589D01*
X133233475Y-128593368D01*
X133026632Y-128386525D01*
X132852240Y-128270000D01*
X133026632Y-128153475D01*
X133233475Y-127946632D01*
X133395990Y-127703411D01*
X133507932Y-127433158D01*
X133565000Y-127146260D01*
X133565000Y-126853740D01*
X133507932Y-126566842D01*
X133395990Y-126296589D01*
X133233475Y-126053368D01*
X133101620Y-125921513D01*
X133174180Y-125899502D01*
X133284494Y-125840537D01*
X133381185Y-125761185D01*
X133460537Y-125664494D01*
X133519502Y-125554180D01*
X133555812Y-125434482D01*
X133568072Y-125310000D01*
X133565000Y-124745750D01*
X133406250Y-124587000D01*
X132207000Y-124587000D01*
X132207000Y-124607000D01*
X131953000Y-124607000D01*
X131953000Y-124587000D01*
X131933000Y-124587000D01*
X131933000Y-124333000D01*
X131953000Y-124333000D01*
X131953000Y-123133750D01*
X132207000Y-123133750D01*
X132207000Y-124333000D01*
X133406250Y-124333000D01*
X133565000Y-124174250D01*
X133568072Y-123610000D01*
X133555812Y-123485518D01*
X133519502Y-123365820D01*
X133460537Y-123255506D01*
X133381185Y-123158815D01*
X133284494Y-123079463D01*
X133174180Y-123020498D01*
X133054482Y-122984188D01*
X132930000Y-122971928D01*
X132365750Y-122975000D01*
X132207000Y-123133750D01*
X131953000Y-123133750D01*
X131794250Y-122975000D01*
X131664999Y-122974296D01*
X131664999Y-120996000D01*
X136461928Y-120996000D01*
X136474188Y-121120482D01*
X136510498Y-121240180D01*
X136569463Y-121350494D01*
X136648815Y-121447185D01*
X136745506Y-121526537D01*
X136855820Y-121585502D01*
X136975518Y-121621812D01*
X137100000Y-121634072D01*
X137414250Y-121631000D01*
X137573000Y-121472250D01*
X137573000Y-120523000D01*
X136623750Y-120523000D01*
X136465000Y-120681750D01*
X136461928Y-120996000D01*
X131664999Y-120996000D01*
X131664999Y-120865704D01*
X131794250Y-120865000D01*
X131953000Y-120706250D01*
X131953000Y-119507000D01*
X132207000Y-119507000D01*
X132207000Y-120706250D01*
X132365750Y-120865000D01*
X132930000Y-120868072D01*
X133054482Y-120855812D01*
X133174180Y-120819502D01*
X133284494Y-120760537D01*
X133381185Y-120681185D01*
X133460537Y-120584494D01*
X133519502Y-120474180D01*
X133555812Y-120354482D01*
X133568072Y-120230000D01*
X133565710Y-119796000D01*
X136461928Y-119796000D01*
X136465000Y-120110250D01*
X136623750Y-120269000D01*
X137573000Y-120269000D01*
X137573000Y-119319750D01*
X137414250Y-119161000D01*
X137100000Y-119157928D01*
X136975518Y-119170188D01*
X136855820Y-119206498D01*
X136745506Y-119265463D01*
X136648815Y-119344815D01*
X136569463Y-119441506D01*
X136510498Y-119551820D01*
X136474188Y-119671518D01*
X136461928Y-119796000D01*
X133565710Y-119796000D01*
X133565000Y-119665750D01*
X133406250Y-119507000D01*
X132207000Y-119507000D01*
X131953000Y-119507000D01*
X131933000Y-119507000D01*
X131933000Y-119253000D01*
X131953000Y-119253000D01*
X131953000Y-119233000D01*
X132207000Y-119233000D01*
X132207000Y-119253000D01*
X133406250Y-119253000D01*
X133565000Y-119094250D01*
X133568072Y-118530000D01*
X133555812Y-118405518D01*
X133519502Y-118285820D01*
X133460537Y-118175506D01*
X133381185Y-118078815D01*
X133284494Y-117999463D01*
X133174180Y-117940498D01*
X133101620Y-117918487D01*
X133233475Y-117786632D01*
X133395990Y-117543411D01*
X133507932Y-117273158D01*
X133565000Y-116986260D01*
X133565000Y-116693740D01*
X133507932Y-116406842D01*
X133395990Y-116136589D01*
X133233475Y-115893368D01*
X133026632Y-115686525D01*
X132852240Y-115570000D01*
X133026632Y-115453475D01*
X133233475Y-115246632D01*
X133395990Y-115003411D01*
X133507932Y-114733158D01*
X133565000Y-114446260D01*
X133565000Y-114420131D01*
X134485131Y-113500000D01*
X135721928Y-113500000D01*
X135725000Y-114014250D01*
X135883750Y-114173000D01*
X137033000Y-114173000D01*
X137033000Y-113023750D01*
X136874250Y-112865000D01*
X136360000Y-112861928D01*
X136235518Y-112874188D01*
X136115820Y-112910498D01*
X136005506Y-112969463D01*
X135908815Y-113048815D01*
X135829463Y-113145506D01*
X135770498Y-113255820D01*
X135734188Y-113375518D01*
X135721928Y-113500000D01*
X134485131Y-113500000D01*
X137923141Y-110061991D01*
X137966449Y-110026449D01*
X138108284Y-109853623D01*
X138213676Y-109656447D01*
X138278577Y-109442499D01*
X138282055Y-109407186D01*
X141802751Y-112927883D01*
X141560273Y-113028320D01*
X141325241Y-113185363D01*
X141125363Y-113385241D01*
X140970000Y-113617759D01*
X140814637Y-113385241D01*
X140614759Y-113185363D01*
X140379727Y-113028320D01*
X140118574Y-112920147D01*
X139841335Y-112865000D01*
X139558665Y-112865000D01*
X139281426Y-112920147D01*
X139020273Y-113028320D01*
X138785241Y-113185363D01*
X138586643Y-113383961D01*
X138585812Y-113375518D01*
X138549502Y-113255820D01*
X138490537Y-113145506D01*
X138411185Y-113048815D01*
X138314494Y-112969463D01*
X138204180Y-112910498D01*
X138084482Y-112874188D01*
X137960000Y-112861928D01*
X137445750Y-112865000D01*
X137287000Y-113023750D01*
X137287000Y-114173000D01*
X137307000Y-114173000D01*
X137307000Y-114427000D01*
X137287000Y-114427000D01*
X137287000Y-114447000D01*
X137033000Y-114447000D01*
X137033000Y-114427000D01*
X135883750Y-114427000D01*
X135725000Y-114585750D01*
X135721928Y-115100000D01*
X135734188Y-115224482D01*
X135770498Y-115344180D01*
X135829463Y-115454494D01*
X135908815Y-115551185D01*
X135987204Y-115615517D01*
X135958815Y-115638815D01*
X135879463Y-115735506D01*
X135820498Y-115845820D01*
X135784188Y-115965518D01*
X135771928Y-116090000D01*
X135771928Y-117590000D01*
X135784188Y-117714482D01*
X135820498Y-117834180D01*
X135879463Y-117944494D01*
X135958815Y-118041185D01*
X136055506Y-118120537D01*
X136165820Y-118179502D01*
X136285518Y-118215812D01*
X136410000Y-118228072D01*
X137910000Y-118228072D01*
X138034482Y-118215812D01*
X138154180Y-118179502D01*
X138264494Y-118120537D01*
X138361185Y-118041185D01*
X138440537Y-117944494D01*
X138499502Y-117834180D01*
X138535812Y-117714482D01*
X138548072Y-117590000D01*
X138548072Y-116090000D01*
X138535812Y-115965518D01*
X138499502Y-115845820D01*
X138440537Y-115735506D01*
X138361185Y-115638815D01*
X138332796Y-115615517D01*
X138411185Y-115551185D01*
X138490537Y-115454494D01*
X138549502Y-115344180D01*
X138585812Y-115224482D01*
X138586643Y-115216039D01*
X138785241Y-115414637D01*
X138940000Y-115518044D01*
X138940001Y-119418493D01*
X138912733Y-119436713D01*
X138857499Y-119491947D01*
X138830537Y-119441506D01*
X138751185Y-119344815D01*
X138654494Y-119265463D01*
X138544180Y-119206498D01*
X138424482Y-119170188D01*
X138300000Y-119157928D01*
X137985750Y-119161000D01*
X137827000Y-119319750D01*
X137827000Y-120269000D01*
X137847000Y-120269000D01*
X137847000Y-120523000D01*
X137827000Y-120523000D01*
X137827000Y-121472250D01*
X137985750Y-121631000D01*
X138300000Y-121634072D01*
X138424482Y-121621812D01*
X138544180Y-121585502D01*
X138654494Y-121526537D01*
X138751185Y-121447185D01*
X138830537Y-121350494D01*
X138857499Y-121300053D01*
X138912733Y-121355287D01*
X139115008Y-121490443D01*
X139339764Y-121583540D01*
X139578363Y-121631000D01*
X139821637Y-121631000D01*
X140060236Y-121583540D01*
X140284992Y-121490443D01*
X140487267Y-121355287D01*
X140659287Y-121183267D01*
X140794443Y-120980992D01*
X140887540Y-120756236D01*
X140935000Y-120517637D01*
X140935000Y-120274363D01*
X140887540Y-120035764D01*
X140794443Y-119811008D01*
X140659287Y-119608733D01*
X140487267Y-119436713D01*
X140460000Y-119418494D01*
X140460000Y-115518043D01*
X140614759Y-115414637D01*
X140814637Y-115214759D01*
X140970000Y-114982241D01*
X141125363Y-115214759D01*
X141325241Y-115414637D01*
X141560273Y-115571680D01*
X141821426Y-115679853D01*
X142098665Y-115735000D01*
X142381335Y-115735000D01*
X142658574Y-115679853D01*
X142919727Y-115571680D01*
X143154759Y-115414637D01*
X143354637Y-115214759D01*
X143510000Y-114982241D01*
X143665363Y-115214759D01*
X143865241Y-115414637D01*
X143949129Y-115470689D01*
X143973551Y-115500447D01*
X144016865Y-115535994D01*
X144105699Y-115624828D01*
X143897114Y-115764201D01*
X143704201Y-115957114D01*
X143552629Y-116183957D01*
X143448225Y-116436011D01*
X143395000Y-116703589D01*
X143395000Y-116976411D01*
X143448225Y-117243989D01*
X143552629Y-117496043D01*
X143704201Y-117722886D01*
X143897114Y-117915799D01*
X144123957Y-118067371D01*
X144376011Y-118171775D01*
X144643589Y-118225000D01*
X144916411Y-118225000D01*
X145061365Y-118196167D01*
X146560001Y-119694804D01*
X146560000Y-130801821D01*
X146373368Y-130926525D01*
X146166525Y-131133368D01*
X146050000Y-131307760D01*
X145933475Y-131133368D01*
X145726632Y-130926525D01*
X145483411Y-130764010D01*
X145213158Y-130652068D01*
X144926260Y-130595000D01*
X144633740Y-130595000D01*
X144346842Y-130652068D01*
X144076589Y-130764010D01*
X143833368Y-130926525D01*
X143626525Y-131133368D01*
X143510000Y-131307760D01*
X143393475Y-131133368D01*
X143186632Y-130926525D01*
X142943411Y-130764010D01*
X142673158Y-130652068D01*
X142386260Y-130595000D01*
X142093740Y-130595000D01*
X141806842Y-130652068D01*
X141536589Y-130764010D01*
X141293368Y-130926525D01*
X141086525Y-131133368D01*
X140924010Y-131376589D01*
X140812068Y-131646842D01*
X140755000Y-131933740D01*
X140755000Y-132226260D01*
X140812068Y-132513158D01*
X140924010Y-132783411D01*
X141086525Y-133026632D01*
X141293368Y-133233475D01*
X141512759Y-133380068D01*
X141325241Y-133505363D01*
X141125363Y-133705241D01*
X140968320Y-133940273D01*
X140860147Y-134201426D01*
X140805000Y-134478665D01*
X140805000Y-134761335D01*
X140860147Y-135038574D01*
X140968320Y-135299727D01*
X141125363Y-135534759D01*
X141325241Y-135734637D01*
X141560273Y-135891680D01*
X141821426Y-135999853D01*
X142098665Y-136055000D01*
X142381335Y-136055000D01*
X142658574Y-135999853D01*
X142919727Y-135891680D01*
X143154759Y-135734637D01*
X143354637Y-135534759D01*
X143510000Y-135302241D01*
X143665363Y-135534759D01*
X143865241Y-135734637D01*
X144100273Y-135891680D01*
X144361426Y-135999853D01*
X144638665Y-136055000D01*
X144921335Y-136055000D01*
X145198574Y-135999853D01*
X145459727Y-135891680D01*
X145694759Y-135734637D01*
X145894637Y-135534759D01*
X146050000Y-135302241D01*
X146205363Y-135534759D01*
X146405241Y-135734637D01*
X146640273Y-135891680D01*
X146901426Y-135999853D01*
X147178665Y-136055000D01*
X147461335Y-136055000D01*
X147738574Y-135999853D01*
X147999727Y-135891680D01*
X148234759Y-135734637D01*
X148434637Y-135534759D01*
X148590000Y-135302241D01*
X148745363Y-135534759D01*
X148945241Y-135734637D01*
X149180273Y-135891680D01*
X149441426Y-135999853D01*
X149718665Y-136055000D01*
X150001335Y-136055000D01*
X150278574Y-135999853D01*
X150539727Y-135891680D01*
X150774759Y-135734637D01*
X150974637Y-135534759D01*
X151130000Y-135302241D01*
X151285363Y-135534759D01*
X151485241Y-135734637D01*
X151720273Y-135891680D01*
X151981426Y-135999853D01*
X152258665Y-136055000D01*
X152541335Y-136055000D01*
X152818574Y-135999853D01*
X153079727Y-135891680D01*
X153314759Y-135734637D01*
X153513357Y-135536039D01*
X153514188Y-135544482D01*
X153550498Y-135664180D01*
X153609463Y-135774494D01*
X153688815Y-135871185D01*
X153785506Y-135950537D01*
X153895820Y-136009502D01*
X154015518Y-136045812D01*
X154140000Y-136058072D01*
X154654250Y-136055000D01*
X154813000Y-135896250D01*
X154813000Y-134747000D01*
X155067000Y-134747000D01*
X155067000Y-135896250D01*
X155225750Y-136055000D01*
X155740000Y-136058072D01*
X155864482Y-136045812D01*
X155984180Y-136009502D01*
X156094494Y-135950537D01*
X156191185Y-135871185D01*
X156210000Y-135848259D01*
X156228815Y-135871185D01*
X156325506Y-135950537D01*
X156435820Y-136009502D01*
X156555518Y-136045812D01*
X156680000Y-136058072D01*
X157194250Y-136055000D01*
X157353000Y-135896250D01*
X157353000Y-134747000D01*
X155067000Y-134747000D01*
X154813000Y-134747000D01*
X154793000Y-134747000D01*
X154793000Y-134493000D01*
X154813000Y-134493000D01*
X154813000Y-132207000D01*
X155067000Y-132207000D01*
X155067000Y-134493000D01*
X157353000Y-134493000D01*
X157353000Y-132207000D01*
X155067000Y-132207000D01*
X154813000Y-132207000D01*
X154793000Y-132207000D01*
X154793000Y-131953000D01*
X154813000Y-131953000D01*
X154813000Y-130753750D01*
X155067000Y-130753750D01*
X155067000Y-131953000D01*
X157353000Y-131953000D01*
X157353000Y-130753750D01*
X157607000Y-130753750D01*
X157607000Y-131953000D01*
X157627000Y-131953000D01*
X157627000Y-132207000D01*
X157607000Y-132207000D01*
X157607000Y-134493000D01*
X157627000Y-134493000D01*
X157627000Y-134747000D01*
X157607000Y-134747000D01*
X157607000Y-135896250D01*
X157765750Y-136055000D01*
X158280000Y-136058072D01*
X158404482Y-136045812D01*
X158524180Y-136009502D01*
X158634494Y-135950537D01*
X158731185Y-135871185D01*
X158810537Y-135774494D01*
X158869502Y-135664180D01*
X158905812Y-135544482D01*
X158906643Y-135536039D01*
X159105241Y-135734637D01*
X159340273Y-135891680D01*
X159601426Y-135999853D01*
X159878665Y-136055000D01*
X160161335Y-136055000D01*
X160438574Y-135999853D01*
X160699727Y-135891680D01*
X160934759Y-135734637D01*
X161134637Y-135534759D01*
X161291680Y-135299727D01*
X161399853Y-135038574D01*
X161455000Y-134761335D01*
X161455000Y-134478665D01*
X161399853Y-134201426D01*
X161291680Y-133940273D01*
X161155000Y-133735716D01*
X161155000Y-133045107D01*
X161173475Y-133026632D01*
X161335990Y-132783411D01*
X161447932Y-132513158D01*
X161505000Y-132226260D01*
X161505000Y-131933740D01*
X163615000Y-131933740D01*
X163615000Y-132226260D01*
X163672068Y-132513158D01*
X163784010Y-132783411D01*
X163946525Y-133026632D01*
X163965001Y-133045108D01*
X163965000Y-133735716D01*
X163828320Y-133940273D01*
X163720147Y-134201426D01*
X163665000Y-134478665D01*
X163665000Y-134761335D01*
X163720147Y-135038574D01*
X163828320Y-135299727D01*
X163985363Y-135534759D01*
X164185241Y-135734637D01*
X164420273Y-135891680D01*
X164681426Y-135999853D01*
X164958665Y-136055000D01*
X165241335Y-136055000D01*
X165518574Y-135999853D01*
X165779727Y-135891680D01*
X166014759Y-135734637D01*
X166214637Y-135534759D01*
X166370000Y-135302241D01*
X166525363Y-135534759D01*
X166725241Y-135734637D01*
X166960273Y-135891680D01*
X167221426Y-135999853D01*
X167498665Y-136055000D01*
X167781335Y-136055000D01*
X168058574Y-135999853D01*
X168319727Y-135891680D01*
X168554759Y-135734637D01*
X168754637Y-135534759D01*
X168910000Y-135302241D01*
X169065363Y-135534759D01*
X169265241Y-135734637D01*
X169500273Y-135891680D01*
X169761426Y-135999853D01*
X170038665Y-136055000D01*
X170321335Y-136055000D01*
X170598574Y-135999853D01*
X170859727Y-135891680D01*
X171094759Y-135734637D01*
X171294637Y-135534759D01*
X171450000Y-135302241D01*
X171605363Y-135534759D01*
X171805241Y-135734637D01*
X172040273Y-135891680D01*
X172301426Y-135999853D01*
X172578665Y-136055000D01*
X172861335Y-136055000D01*
X173138574Y-135999853D01*
X173399727Y-135891680D01*
X173634759Y-135734637D01*
X173834637Y-135534759D01*
X173990000Y-135302241D01*
X174145363Y-135534759D01*
X174345241Y-135734637D01*
X174580273Y-135891680D01*
X174841426Y-135999853D01*
X175118665Y-136055000D01*
X175401335Y-136055000D01*
X175678574Y-135999853D01*
X175939727Y-135891680D01*
X176174759Y-135734637D01*
X176374637Y-135534759D01*
X176530000Y-135302241D01*
X176685363Y-135534759D01*
X176885241Y-135734637D01*
X177120273Y-135891680D01*
X177381426Y-135999853D01*
X177658665Y-136055000D01*
X177941335Y-136055000D01*
X178218574Y-135999853D01*
X178479727Y-135891680D01*
X178714759Y-135734637D01*
X178914637Y-135534759D01*
X179071680Y-135299727D01*
X179179853Y-135038574D01*
X179235000Y-134761335D01*
X179235000Y-134478665D01*
X179179853Y-134201426D01*
X179071680Y-133940273D01*
X178935000Y-133735716D01*
X178935000Y-133045107D01*
X178953475Y-133026632D01*
X179115990Y-132783411D01*
X179227932Y-132513158D01*
X179285000Y-132226260D01*
X179285000Y-131933740D01*
X179227932Y-131646842D01*
X179115990Y-131376589D01*
X178953475Y-131133368D01*
X178746632Y-130926525D01*
X178503411Y-130764010D01*
X178233158Y-130652068D01*
X177946260Y-130595000D01*
X177653740Y-130595000D01*
X177366842Y-130652068D01*
X177096589Y-130764010D01*
X176853368Y-130926525D01*
X176646525Y-131133368D01*
X176530000Y-131307760D01*
X176413475Y-131133368D01*
X176206632Y-130926525D01*
X175963411Y-130764010D01*
X175693158Y-130652068D01*
X175406260Y-130595000D01*
X175113740Y-130595000D01*
X174826842Y-130652068D01*
X174556589Y-130764010D01*
X174313368Y-130926525D01*
X174106525Y-131133368D01*
X173990000Y-131307760D01*
X173873475Y-131133368D01*
X173666632Y-130926525D01*
X173423411Y-130764010D01*
X173153158Y-130652068D01*
X172866260Y-130595000D01*
X172573740Y-130595000D01*
X172286842Y-130652068D01*
X172016589Y-130764010D01*
X171773368Y-130926525D01*
X171566525Y-131133368D01*
X171450000Y-131307760D01*
X171333475Y-131133368D01*
X171126632Y-130926525D01*
X170883411Y-130764010D01*
X170613158Y-130652068D01*
X170326260Y-130595000D01*
X170033740Y-130595000D01*
X169746842Y-130652068D01*
X169476589Y-130764010D01*
X169233368Y-130926525D01*
X169026525Y-131133368D01*
X168910000Y-131307760D01*
X168793475Y-131133368D01*
X168586632Y-130926525D01*
X168343411Y-130764010D01*
X168073158Y-130652068D01*
X167786260Y-130595000D01*
X167493740Y-130595000D01*
X167206842Y-130652068D01*
X166936589Y-130764010D01*
X166693368Y-130926525D01*
X166486525Y-131133368D01*
X166370000Y-131307760D01*
X166253475Y-131133368D01*
X166046632Y-130926525D01*
X165803411Y-130764010D01*
X165533158Y-130652068D01*
X165246260Y-130595000D01*
X164953740Y-130595000D01*
X164666842Y-130652068D01*
X164396589Y-130764010D01*
X164153368Y-130926525D01*
X163946525Y-131133368D01*
X163784010Y-131376589D01*
X163672068Y-131646842D01*
X163615000Y-131933740D01*
X161505000Y-131933740D01*
X161447932Y-131646842D01*
X161335990Y-131376589D01*
X161173475Y-131133368D01*
X160966632Y-130926525D01*
X160723411Y-130764010D01*
X160453158Y-130652068D01*
X160166260Y-130595000D01*
X159873740Y-130595000D01*
X159586842Y-130652068D01*
X159316589Y-130764010D01*
X159073368Y-130926525D01*
X158941513Y-131058380D01*
X158919502Y-130985820D01*
X158860537Y-130875506D01*
X158781185Y-130778815D01*
X158684494Y-130699463D01*
X158574180Y-130640498D01*
X158454482Y-130604188D01*
X158330000Y-130591928D01*
X157765750Y-130595000D01*
X157607000Y-130753750D01*
X157353000Y-130753750D01*
X157194250Y-130595000D01*
X156630000Y-130591928D01*
X156505518Y-130604188D01*
X156385820Y-130640498D01*
X156275506Y-130699463D01*
X156210000Y-130753222D01*
X156144494Y-130699463D01*
X156034180Y-130640498D01*
X155914482Y-130604188D01*
X155790000Y-130591928D01*
X155225750Y-130595000D01*
X155067000Y-130753750D01*
X154813000Y-130753750D01*
X154654250Y-130595000D01*
X154290033Y-130593017D01*
X157738051Y-127145001D01*
X167236329Y-127145001D01*
X167292080Y-127150492D01*
X167347831Y-127145001D01*
X167347832Y-127145001D01*
X167514579Y-127128578D01*
X167728527Y-127063677D01*
X167925703Y-126958285D01*
X168098529Y-126816450D01*
X168134076Y-126773136D01*
X168403135Y-126504077D01*
X168446449Y-126468530D01*
X168588284Y-126295704D01*
X168693676Y-126098528D01*
X168746323Y-125924975D01*
X168758577Y-125884581D01*
X168768138Y-125787502D01*
X168775000Y-125717833D01*
X168775000Y-125717826D01*
X168780490Y-125662082D01*
X168775000Y-125606338D01*
X168775000Y-125425107D01*
X168793475Y-125406632D01*
X168955990Y-125163411D01*
X169067932Y-124893158D01*
X169125000Y-124606260D01*
X169125000Y-124313740D01*
X169067932Y-124026842D01*
X168955990Y-123756589D01*
X168793475Y-123513368D01*
X168586632Y-123306525D01*
X168343411Y-123144010D01*
X168073158Y-123032068D01*
X167786260Y-122975000D01*
X167493740Y-122975000D01*
X167206842Y-123032068D01*
X166936589Y-123144010D01*
X166693368Y-123306525D01*
X166561513Y-123438380D01*
X166539502Y-123365820D01*
X166480537Y-123255506D01*
X166401185Y-123158815D01*
X166304494Y-123079463D01*
X166194180Y-123020498D01*
X166074482Y-122984188D01*
X165950000Y-122971928D01*
X165385750Y-122975000D01*
X165227000Y-123133750D01*
X165227000Y-124333000D01*
X165247000Y-124333000D01*
X165247000Y-124587000D01*
X165227000Y-124587000D01*
X165227000Y-124607000D01*
X164973000Y-124607000D01*
X164973000Y-124587000D01*
X164953000Y-124587000D01*
X164953000Y-124333000D01*
X164973000Y-124333000D01*
X164973000Y-123133750D01*
X164814250Y-122975000D01*
X164250000Y-122971928D01*
X164125518Y-122984188D01*
X164005820Y-123020498D01*
X163895506Y-123079463D01*
X163798815Y-123158815D01*
X163719463Y-123255506D01*
X163660498Y-123365820D01*
X163638487Y-123438380D01*
X163506632Y-123306525D01*
X163263411Y-123144010D01*
X162993158Y-123032068D01*
X162706260Y-122975000D01*
X162413740Y-122975000D01*
X162126842Y-123032068D01*
X161856589Y-123144010D01*
X161613368Y-123306525D01*
X161406525Y-123513368D01*
X161290000Y-123687760D01*
X161173475Y-123513368D01*
X160966632Y-123306525D01*
X160723411Y-123144010D01*
X160453158Y-123032068D01*
X160166260Y-122975000D01*
X159873740Y-122975000D01*
X159586842Y-123032068D01*
X159316589Y-123144010D01*
X159073368Y-123306525D01*
X158866525Y-123513368D01*
X158704010Y-123756589D01*
X158592068Y-124026842D01*
X158535000Y-124313740D01*
X158535000Y-124606260D01*
X158588456Y-124875001D01*
X157323670Y-124875001D01*
X157267918Y-124869510D01*
X157045419Y-124891424D01*
X156831471Y-124956325D01*
X156634295Y-125061717D01*
X156504774Y-125168012D01*
X156504772Y-125168014D01*
X156461469Y-125203552D01*
X156425931Y-125246855D01*
X153535000Y-128137787D01*
X153535000Y-122369739D01*
X153540490Y-122313997D01*
X153535000Y-122258255D01*
X153535000Y-122258246D01*
X153518577Y-122091499D01*
X153453676Y-121877551D01*
X153348284Y-121680375D01*
X153206449Y-121507549D01*
X153163141Y-121472007D01*
X146691134Y-115000000D01*
X173921928Y-115000000D01*
X173934188Y-115124482D01*
X173970498Y-115244180D01*
X174029463Y-115354494D01*
X174108815Y-115451185D01*
X174205506Y-115530537D01*
X174315820Y-115589502D01*
X174435518Y-115625812D01*
X174560000Y-115638072D01*
X174974250Y-115635000D01*
X175133000Y-115476250D01*
X175133000Y-114427000D01*
X174083750Y-114427000D01*
X173925000Y-114585750D01*
X173921928Y-115000000D01*
X146691134Y-115000000D01*
X146201307Y-114510174D01*
X146215000Y-114441335D01*
X146215000Y-114158665D01*
X146159853Y-113881426D01*
X146051680Y-113620273D01*
X146038135Y-113600000D01*
X173921928Y-113600000D01*
X173925000Y-114014250D01*
X174083750Y-114173000D01*
X175133000Y-114173000D01*
X175133000Y-113123750D01*
X174974250Y-112965000D01*
X174560000Y-112961928D01*
X174435518Y-112974188D01*
X174315820Y-113010498D01*
X174205506Y-113069463D01*
X174108815Y-113148815D01*
X174029463Y-113245506D01*
X173970498Y-113355820D01*
X173934188Y-113475518D01*
X173921928Y-113600000D01*
X146038135Y-113600000D01*
X145894637Y-113385241D01*
X145694759Y-113185363D01*
X145459727Y-113028320D01*
X145198574Y-112920147D01*
X144957282Y-112872150D01*
X140137249Y-108052118D01*
X140379727Y-107951680D01*
X140614759Y-107794637D01*
X140814637Y-107594759D01*
X140970000Y-107362241D01*
X141125363Y-107594759D01*
X141325241Y-107794637D01*
X141560273Y-107951680D01*
X141821426Y-108059853D01*
X142098665Y-108115000D01*
X142381335Y-108115000D01*
X142658574Y-108059853D01*
X142919727Y-107951680D01*
X143154759Y-107794637D01*
X143354637Y-107594759D01*
X143510000Y-107362241D01*
X143665363Y-107594759D01*
X143865241Y-107794637D01*
X144100273Y-107951680D01*
X144361426Y-108059853D01*
X144638665Y-108115000D01*
X144921335Y-108115000D01*
X145198574Y-108059853D01*
X145459727Y-107951680D01*
X145694759Y-107794637D01*
X145894637Y-107594759D01*
X146051680Y-107359727D01*
X146159853Y-107098574D01*
X146215000Y-106821335D01*
X146215000Y-106538665D01*
X146159853Y-106261426D01*
X146051680Y-106000273D01*
X145894637Y-105765241D01*
X145694759Y-105565363D01*
X145540000Y-105461957D01*
X145540000Y-105358043D01*
X145694759Y-105254637D01*
X145894637Y-105054759D01*
X146051680Y-104819727D01*
X146159853Y-104558574D01*
X146215000Y-104281335D01*
X146215000Y-103998665D01*
X146159853Y-103721426D01*
X146051680Y-103460273D01*
X145894637Y-103225241D01*
X145728057Y-103058661D01*
X145824180Y-103029502D01*
X145934494Y-102970537D01*
X146031185Y-102891185D01*
X146110537Y-102794494D01*
X146169502Y-102684180D01*
X146205812Y-102564482D01*
X146218072Y-102440000D01*
X146215000Y-101925750D01*
X146056250Y-101767000D01*
X144907000Y-101767000D01*
X144907000Y-101787000D01*
X144653000Y-101787000D01*
X144653000Y-101767000D01*
X143503750Y-101767000D01*
X143345000Y-101925750D01*
X143341928Y-102440000D01*
X143354188Y-102564482D01*
X143390498Y-102684180D01*
X143449463Y-102794494D01*
X143528815Y-102891185D01*
X143625506Y-102970537D01*
X143735820Y-103029502D01*
X143831943Y-103058661D01*
X143665363Y-103225241D01*
X143508320Y-103460273D01*
X143455880Y-103586874D01*
X143423061Y-103507641D01*
X143276962Y-103288987D01*
X143091013Y-103103038D01*
X142872359Y-102956939D01*
X142629405Y-102856304D01*
X142371486Y-102805000D01*
X142108514Y-102805000D01*
X141850595Y-102856304D01*
X141607641Y-102956939D01*
X141388987Y-103103038D01*
X141203038Y-103288987D01*
X141142225Y-103380000D01*
X140797775Y-103380000D01*
X140736962Y-103288987D01*
X140551013Y-103103038D01*
X140332359Y-102956939D01*
X140089405Y-102856304D01*
X139831486Y-102805000D01*
X139568514Y-102805000D01*
X139434999Y-102831558D01*
X139434999Y-100840000D01*
X143341928Y-100840000D01*
X143345000Y-101354250D01*
X143503750Y-101513000D01*
X144653000Y-101513000D01*
X144653000Y-100363750D01*
X144907000Y-100363750D01*
X144907000Y-101513000D01*
X146056250Y-101513000D01*
X146215000Y-101354250D01*
X146218072Y-100840000D01*
X146205812Y-100715518D01*
X146169502Y-100595820D01*
X146110537Y-100485506D01*
X146031185Y-100388815D01*
X145934494Y-100309463D01*
X145824180Y-100250498D01*
X145704482Y-100214188D01*
X145580000Y-100201928D01*
X145065750Y-100205000D01*
X144907000Y-100363750D01*
X144653000Y-100363750D01*
X144494250Y-100205000D01*
X143980000Y-100201928D01*
X143855518Y-100214188D01*
X143735820Y-100250498D01*
X143625506Y-100309463D01*
X143528815Y-100388815D01*
X143449463Y-100485506D01*
X143390498Y-100595820D01*
X143354188Y-100715518D01*
X143341928Y-100840000D01*
X139434999Y-100840000D01*
X139434999Y-100399802D01*
X139461156Y-100373645D01*
X139568514Y-100395000D01*
X139831486Y-100395000D01*
X140089405Y-100343696D01*
X140332359Y-100243061D01*
X140551013Y-100096962D01*
X140736962Y-99911013D01*
X140883061Y-99692359D01*
X140970000Y-99482470D01*
X141056939Y-99692359D01*
X141203038Y-99911013D01*
X141388987Y-100096962D01*
X141607641Y-100243061D01*
X141850595Y-100343696D01*
X142108514Y-100395000D01*
X142371486Y-100395000D01*
X142629405Y-100343696D01*
X142872359Y-100243061D01*
X143091013Y-100096962D01*
X143276962Y-99911013D01*
X143423061Y-99692359D01*
X143523696Y-99449405D01*
X143575000Y-99191486D01*
X143575000Y-98928514D01*
X143553645Y-98821156D01*
X147539803Y-94834999D01*
X156048456Y-94834999D01*
X155995000Y-95103740D01*
X155995000Y-95396260D01*
X156052068Y-95683158D01*
X156164010Y-95953411D01*
X156326525Y-96196632D01*
X156533368Y-96403475D01*
X156776589Y-96565990D01*
X157046842Y-96677932D01*
X157333740Y-96735000D01*
X157626260Y-96735000D01*
X157913158Y-96677932D01*
X158183411Y-96565990D01*
X158426632Y-96403475D01*
X158633475Y-96196632D01*
X158750000Y-96022240D01*
X158866525Y-96196632D01*
X159073368Y-96403475D01*
X159316589Y-96565990D01*
X159586842Y-96677932D01*
X159873740Y-96735000D01*
X160166260Y-96735000D01*
X160453158Y-96677932D01*
X160723411Y-96565990D01*
X160966632Y-96403475D01*
X161173475Y-96196632D01*
X161290000Y-96022240D01*
X161406525Y-96196632D01*
X161613368Y-96403475D01*
X161856589Y-96565990D01*
X162126842Y-96677932D01*
X162413740Y-96735000D01*
X162706260Y-96735000D01*
X162993158Y-96677932D01*
X163263411Y-96565990D01*
X163506632Y-96403475D01*
X163713475Y-96196632D01*
X163830000Y-96022240D01*
X163946525Y-96196632D01*
X164153368Y-96403475D01*
X164396589Y-96565990D01*
X164666842Y-96677932D01*
X164953740Y-96735000D01*
X165246260Y-96735000D01*
X165533158Y-96677932D01*
X165803411Y-96565990D01*
X166046632Y-96403475D01*
X166253475Y-96196632D01*
X166370000Y-96022240D01*
X166486525Y-96196632D01*
X166693368Y-96403475D01*
X166936589Y-96565990D01*
X167206842Y-96677932D01*
X167493740Y-96735000D01*
X167786260Y-96735000D01*
X168073158Y-96677932D01*
X168343411Y-96565990D01*
X168586632Y-96403475D01*
X168793475Y-96196632D01*
X168955990Y-95953411D01*
X169067932Y-95683158D01*
X169125000Y-95396260D01*
X169125000Y-95103740D01*
X169067932Y-94816842D01*
X168955990Y-94546589D01*
X168793475Y-94303368D01*
X168586632Y-94096525D01*
X168343411Y-93934010D01*
X168073158Y-93822068D01*
X167786260Y-93765000D01*
X167493740Y-93765000D01*
X167206842Y-93822068D01*
X166936589Y-93934010D01*
X166693368Y-94096525D01*
X166486525Y-94303368D01*
X166370000Y-94477760D01*
X166253475Y-94303368D01*
X166046632Y-94096525D01*
X165860000Y-93971822D01*
X165860000Y-91754801D01*
X167273593Y-90341210D01*
X167493740Y-90385000D01*
X167786260Y-90385000D01*
X168073158Y-90327932D01*
X168343411Y-90215990D01*
X168586632Y-90053475D01*
X168793475Y-89846632D01*
X168910000Y-89672240D01*
X169026525Y-89846632D01*
X169233368Y-90053475D01*
X169420000Y-90178179D01*
X169420001Y-99022668D01*
X169416324Y-99060000D01*
X169420001Y-99097332D01*
X169420001Y-99097333D01*
X169430998Y-99208986D01*
X169443136Y-99249000D01*
X169474454Y-99352246D01*
X169545026Y-99484276D01*
X169616201Y-99571002D01*
X169640000Y-99600001D01*
X169668998Y-99623799D01*
X177727126Y-107681928D01*
X176900000Y-107681928D01*
X176775518Y-107694188D01*
X176655820Y-107730498D01*
X176545506Y-107789463D01*
X176448815Y-107868815D01*
X176369463Y-107965506D01*
X176310498Y-108075820D01*
X176274188Y-108195518D01*
X176261928Y-108320000D01*
X176261928Y-108333953D01*
X176111013Y-108183038D01*
X175892359Y-108036939D01*
X175649405Y-107936304D01*
X175391486Y-107885000D01*
X175128514Y-107885000D01*
X174870595Y-107936304D01*
X174627641Y-108036939D01*
X174408987Y-108183038D01*
X174223038Y-108368987D01*
X174076939Y-108587641D01*
X173976304Y-108830595D01*
X173925000Y-109088514D01*
X173925000Y-109351486D01*
X173976304Y-109609405D01*
X174076939Y-109852359D01*
X174223038Y-110071013D01*
X174408987Y-110256962D01*
X174627641Y-110403061D01*
X174870595Y-110503696D01*
X175128514Y-110555000D01*
X175391486Y-110555000D01*
X175649405Y-110503696D01*
X175892359Y-110403061D01*
X176111013Y-110256962D01*
X176261928Y-110106047D01*
X176261928Y-110120000D01*
X176274188Y-110244482D01*
X176310498Y-110364180D01*
X176369463Y-110474494D01*
X176448815Y-110571185D01*
X176545506Y-110650537D01*
X176655820Y-110709502D01*
X176775518Y-110745812D01*
X176900000Y-110758072D01*
X177040000Y-110758072D01*
X177040001Y-112761928D01*
X176900000Y-112761928D01*
X176775518Y-112774188D01*
X176655820Y-112810498D01*
X176545506Y-112869463D01*
X176448815Y-112948815D01*
X176369463Y-113045506D01*
X176343801Y-113093515D01*
X176314494Y-113069463D01*
X176204180Y-113010498D01*
X176084482Y-112974188D01*
X175960000Y-112961928D01*
X175545750Y-112965000D01*
X175387000Y-113123750D01*
X175387000Y-114173000D01*
X175407000Y-114173000D01*
X175407000Y-114427000D01*
X175387000Y-114427000D01*
X175387000Y-115476250D01*
X175545750Y-115635000D01*
X175960000Y-115638072D01*
X176084482Y-115625812D01*
X176204180Y-115589502D01*
X176314494Y-115530537D01*
X176343801Y-115506485D01*
X176369463Y-115554494D01*
X176448815Y-115651185D01*
X176545506Y-115730537D01*
X176655820Y-115789502D01*
X176775518Y-115825812D01*
X176900000Y-115838072D01*
X178700000Y-115838072D01*
X178824482Y-115825812D01*
X178944180Y-115789502D01*
X179054494Y-115730537D01*
X179151185Y-115651185D01*
X179230537Y-115554494D01*
X179289502Y-115444180D01*
X179295056Y-115425873D01*
X179361495Y-115492312D01*
X179612905Y-115660299D01*
X179892257Y-115776011D01*
X180188816Y-115835000D01*
X180491184Y-115835000D01*
X180787743Y-115776011D01*
X181067095Y-115660299D01*
X181318505Y-115492312D01*
X181532312Y-115278505D01*
X181700299Y-115027095D01*
X181816011Y-114747743D01*
X181875000Y-114451184D01*
X181875000Y-114148816D01*
X181823731Y-113891070D01*
X182076004Y-113638798D01*
X182105002Y-113615000D01*
X182137484Y-113575421D01*
X182195000Y-113505337D01*
X182195001Y-131796263D01*
X179879418Y-134111846D01*
X179853289Y-134133290D01*
X179831846Y-134159418D01*
X179831840Y-134159424D01*
X179797525Y-134201238D01*
X179767688Y-134237594D01*
X179704081Y-134356595D01*
X179676794Y-134446548D01*
X179667052Y-134478665D01*
X179664912Y-134485718D01*
X179655000Y-134586354D01*
X179655000Y-134586361D01*
X179651687Y-134620000D01*
X179655000Y-134653640D01*
X179655001Y-136475000D01*
X115091736Y-136475000D01*
X114985000Y-136368264D01*
X114985000Y-84611736D01*
X115091736Y-84505000D01*
X178532264Y-84505000D01*
X179655000Y-85627736D01*
G37*
%TD.AperFunction*%
%TD*%
M02*
